<mxfile host="65bd71144e">
    <diagram id="W-AlZfO_jeNbRxc6R7lh" name="Page-1">
        <mxGraphModel dx="1072" dy="563" grid="1" gridSize="10" guides="1" tooltips="1" connect="1" arrows="1" fold="1" page="1" pageScale="1" pageWidth="850" pageHeight="1100" math="0" shadow="0">
            <root>
                <mxCell id="0"/>
                <mxCell id="1" parent="0"/>
                <mxCell id="31" value="" style="shape=image;verticalLabelPosition=bottom;labelBackgroundColor=default;verticalAlign=top;aspect=fixed;imageAspect=0;image=data:image/png,iVBORw0KGgoAAAANSUhEUgAAAmQAAAISCAYAAABiatNgAAAAAXNSR0IArs4c6QAAAARnQU1BAACxjwv8YQUAAAAJcEhZcwAADsMAAA7DAcdvqGQAAGScSURBVHhe7d0JYBbF3cfxXwhHQkDugFwCKiDIpQiooCJqwQPFo1h9xapU633gUbCK2ApVFLxa1HpiRVEBS1VQimhBBeS+5L4E5L5JQiDJu7PZ5+E5k+dKNgnfT7vu7Mzuk+eZIbv/zM7Ok9Ts+355AgAAgGvKOWsAAAC4hIAMAADAZQRkAAAALiMgAwAAcBkBGQAAgMsIyAAAAFxGQAYAAOAyAjIAAACXEZABAAC4jIAMAADAZQRkAAAALiMgAwAAcBkBGYCyKa8ULQgvVH2V5AXhhaqvkrCUEARkAEqXUCfUUEtpEur9h1rKklCfL9RS2oT6DKGWsiTU5wu1lFSh3muopYgRkAEo+YrxpFiilfZ6KO3vP5FKe12U9vcfiyL+zARkAEqmIj75lXqlpX5Ky/t0U2mpH9rymCKoi6Rm3/ejagGULM5Z6YSKaWpR4yQ1TKutapWqqny55PyC49jR3BztO3xAmw7t1Io9G7Q/+1B+QVL+qsTwubLQjqGFbUujhLbn8d6WRfn7R0AGoOTwORt1qNNcZ6a3dLYQztztyzV/x0pny+L2hTzgikI7Rq7EtaXB72SBEtlmyTVua/eUkwaA4hfiT8LzGrRXm1onO1soSP202qpSMVUbDmx1chzFfTGnHeNGW5Y+YdvMiLLdGEMGwD0hTvzmr/Dm1Rs7W4iEqS9Tb35M3Yao3yJBOyZM2LYsLrRl1EK2mRFluxGQAXBHiJOVGZ/CLZHYmHoz9RekqC/mtGPChWxLU8+0ZYmViN8/AjIAxS/MScoMFkbswtZfUV3IacciQ1uWPvG2GQEZgOJVwMnJPLmF2BVYf4m+kNOORYq2LH3ibTMCMgDFp5CTknmMHrErtP4SdSGnHYscbVn6xNtmBGQAikdhF5DcPOanipNdf1Y9FijeCzntWCxoy9In3jYjIANQ9Ao78efFe2WBn8LqM9bqph2LX1HVKW1ZdGL8/SMgA1C0Ijnxc+5PLFOfib6g0o7uKKwtY6nzwo6hLeNj6q6w378QxQRkEdmhveeO1lq/5Vsd3O4UA4hNooMG+Ev0hTwc2rHoFdaWiWoC2jJxoqzL6AOypYsDApP8ZevEg84OBcuZ8m3QsdumZDqlAMqUgs5HnpMV5/+i4anXRFxgaUd30ZalTyRtFlCUsB6yjGfn6OCvzgYAFCTUSSoRFxtEV49m18J2L6icdixa0dYlbem+aOvRpyiBtyw3atebG5XjbAE4znEuLzlivbAWdFiJuFjv1cJbrtWgW6brgJNT5hVFW8JdTtskdAxZzuRZ2vN9trMFACEk+EK+cbh1Qa4xXAu3OBkhHYcX7kAR/pUer4Q07+HFmtLCtOtQzVnr5OGYRLdlQn8nV2pajRL0u3Z4nWb07q9hvSerwFNEUYugjhM8qD9T+59dpEyGhAHHt3DnngJOSgm9JhzHiqUei/iHHJ29RHPq9lSXq+Zp4fTj9+kpt9uS38noFVhnhVRoggMyy65l2v3BDnpHARTOOVFw4k8sb30G1mtRVXRC2/GQ1nw2TrriPHW5oI3WvDXT3Z6NWB1ep4WDR+m1l1c6GbGJqS3jaQfn2KL6p1LsKjVV14lvauDEnqrvZBW1sG1WiMQHZJbD78zRvuWMJgPgo8yc4Y9zYdoxYc27a4mWvl1dXbo3V3q3rjp58XStXeyUlSa7NmnJy1O18bCzXRIVdVsex8LWYQGVm5CALK1/B6U56Xw7tHvECsX97zAnW0eWbtSBMXO044Gv9UvvY1NlbLz9a217foUyNoQas7Zb+37vP7WGWcJPr5GjzL8H77/1i8im8shdu1H7nv9WW/o6x/b+t34dulgHlxZy7zY7U4dnrtP+N2dp2wOTtNH7sz/RL/d+rR3vrFPW9gIC21BTkDyxzn6wIu/Xzdo31FNnn2jHd9xHRjGJ8mTuPT9xFUgMpx6jviAEZsfaHHG244Fv/6c56b10ckdro1kbteu+TtMnLNbR/OLjS6xtGciltjwuxVpn1mGJ6SFr2FTV76vjbDiWztGeCOcmCyV35hxtPO8j/XL7t9rx92U68NNWHdnlFFqOLt2qQxNmaesNH2nLyM0Bv6w1ldKrppM+5tDC3cp10n6ydyhjjJP2aqwqZ1Vx0mFYAWPW+1bQc9O32jVho7I2Ofm79inzi/nafvsnId5bviMTvtaG7p9o84Dp2vnOCh36aYfPfpk6Mm+rDrw5XVv6jNfWsbuj+n3KtQK1X6+dql1feOosU7k8a4ESyHvucvnEn/XzLE27Z4hetAeSW8uZg/TBgMlaE2r40pxx9j7T5ljpjfOs4wZpuHPM+JdXKit/Lx2YPlHjL77L+3q+ZX6O7tWaN97Ue+f09/vZG33Od1Er5vr0/rjckGfYKGzXio9mqeqNzZ3bS+k6+co2OvDBEm2I4C98vzpv8YDeK6genXr/wLN/jf56sfcoTft8U1A7HRg33N7HbvMgziD24Z5bk85265e01GwOHeS8/rX6YNxee4+olNq2jFAU7eC1b5OWDh+l187Mr9dh57xk7390y3R9EFTPoR/oyX8YaJw2WumsmZM18XcPaJj5+eZ3dfg87YnnLwCn7qJtugTdskxWpT6dVbO1s+mIZ26yvAMHI/6LKOvTqdr+jv+4tUrntlSqk/aa8KsOhwpMVu1QUOh4WTNVTnfSYWR9MFVbXtta4FQf9nt7Pzigytlb8HHHZCrj5anaMSXC4DZnu/a9ND/8P2TADYWdmYr5onPMEW35x1CNPGe4Zs6rruYD7tfNn9yv3pfX1Y7P39RbLQZZF+Ejzr7+jq6ZrrHXT1Vm21665NVr1LHBds0ZPEjvjlyp7eNe0qsPrFDKdb9TX6usS7O9Ttk6//PaoXWacdPDeuuFJUq5+Fr1/eQRXX1NI2VZP/s16yKzNNbBU059hq3WQtvDWQeKpJ0i2CWstYu18L/V1bF7S5V3smqY25bbx2nptENOTmh7PHV+xTW68f071f3ydG1/26rHS0YF16MVSE/s1V9vPTZPR9t209XvD9aNr/ZQs0qLNeWmBzTyj9O1x9k1etVVf0g/Xfpgt/yg8qKeutRsW0uLkyrYe0Ql1rYsrB0iacuiFks7bLR+7zo9oA+GLlbVy/tZxzyiiy9P08bBT2ncB55ekUhl2/9uRt69WOW7X6Peb/ZX17bW7+rQoXrNek9Fdh0NU/eJG0NWsaaq3dNGlZzNfImYmyxVFc5toep3d1SdoZfoxBe6qfYNTVWhllPsyHpzjg74Ph7dsJ6qnOWkvdbp8Con6ePwkg1B77HqufUKqZyN2j9hh5MuWNZr83Uw7L+TKkq5rJVq3d1Z6S9Yn2/oOarep4H3ZJQvUwdfWaqMSGKy71Zov/1nGeCCeM7xcV0fZmls6/y/lkMv/TX2M2dXH0enf6r3Hp+nGg8O1oM/3K9Lb++mFhd1U5ch9+uBHware8eVmnLjp1oTondm2pPz1PKjR+xj2t34O109caiuvsg6Mzz9nN4aKl064VhZ70+ecsqm+/T0HNHGf/xDX24+Tzf/8KL6Dumpdhd1VsdBd+q2KfernaZr4psx3Kor5uus99qSgAv8ls8na026dUHu5BO4NGumFm2kmZ8vCX+B/OE9jZ1yhv44y6rz+3qo9eU9dPELg3TvpN+p8dqpAfVoBc4DhmrmRisAmP2Sbn7hd+p4eRu1ttvpJT3wYjdp7Eua+EGsT3emq8V9vdW1/xmqYTY7naeuZttaOnb0H9xTqES0ZTyvUaT/lmJpB3PMS1qobuq78B+6cYhVp5eb35n+uvmbR5X+tRW4O3tGZpzGft5Ct/0v/3e19TVW8PzOU+p7lXTg7claEsuUK3HUWeICMktS27aqeYN/v1TMc5NVrKJqg3rppGnXqdFzna3XbaWq59dTapemOuHubmo4rINSnF3z7dCBn3Y7aaOKUi9u4KQ9MnVoie8+xkFl/xiY10pVzq7opAuSqsr39VKT//VTs+/Ncr0aPdUi4H0Zm7X/e/+fkVS5qWq9cKV17NWqP6ijqt3QQlW6WJ/v/FNU8+Eeqv9UUyU7+9p2rVDGwkjrsY5OeOryY+/rv1erVrtIPg9QfBJ5IZeaqt2D+b0QoZdr1M66qPs7pBVjx+lAem9dPKBN8O9trTbqdn8P6xoQunem/t291a6xs2FL18nXdrbWe5V+3++Cyup3b2qtF+tXz52tfYu1YOg6dXz0GrUI+ANTjbuo4/XWReGDldYlKEZOvUZVvYloipit09pP10nXn66T/P6yb6pm11t198H/tCJcj+H2Zur+aDfV8P9LVildeqrbjVY9jpx/LBBePFMz/yu1GGQFAKcG9lhVUPrNvdXN+rey4vUS9HRnLG0ZA+/rF/UPMmJpB88xTwb+flmqNVe3Qb2djUg11aUP9VS6X5xsBdR9e1rredq+IXTveERiaLOEBmTm1mXq/52jE/xOLmZusvnK2OdsRij5/I6qdVkdJYeJI5JaN1Daqc6G4/AvmX5jxMq3O0mVnbTHYSv48vuLc/sOZfzkpB3JNzVUSgTxS6VbLlDdvnVUzhs5VVSFizur1t3B49cOL9zn93Mr9e2mal2q+Rzrr/zZzQIelLBeY1Nkty3Tnuim2hfXPPbaqVVUPj3MDwKKWiRnpLjP/+lq2T+/FyL00kstT3Z29dqs7R9Yq+s76KQwHRcpbU+XGYmx9OfgsKhx8+AxDeWdgKBxi+CyqnVN3jod8QQGq9ZpprWac9PNIXr0fqe3XrYKrR8bdQ+ZURTX0yJux6PTZ2r6YqnrBcduV3rU72Zu/83SgmlhwtP0FqrfzEn7SVP9s0wkvk0HnbFkB1ausC7wbdS6W7gxKU3V2FyPF6/Tnpij4RKuWH4nCxZLO+Qf01Qntw19TPkWTe3f18i1UJ3AwM6SUtvu29Se3QXfJg8rkroL0QYJDsgs1RqoxgPBvTs7/rU15vbNO5ipI0u3KmPKCu1znrj89fZvtSvw9uO+bP+f0bCe0ro4aY+fNinL55cs9+dfrb+TfaWqaqc6SnK2wqunE3qG3q/SeSHGr30Xfkxc3sGDOjxvqw59sUz77Ccurc935w/a75R7HM6I5OZvK51wYSEPIwCQtmzL/8u7SqWgAMDLKThwNPgv5aq1w99+8gRmBTmwIf9+SItbQ/XoeZamqmrvVQTCXZSjOFF7X8LvtaJ4Aa8j2jBtqj3oesbVvwsOUM8bbbfVinGLQ4/tOic9bD2Vr+L/Z/metbOs/1ZWheBbGcfYHTbZOhpTNJxgkVRnJAFWpOJuy8jE0g4HNq6w/mu1dWCPcsxqKLWak0wYnzqLsl0SH5BZki/sqNo9A25dWoHUnkXRjCbL1pHvFmv7TZ9o3W8+0S+3f62tT83SLueJy8ylkfQWVVHqhYG3LTcqa5Xn1l+2sn5a7aQdtVqq8hmR9CadqAoNnWSghtUCxtKFkJOpzE9naWvf0dbnG6/N936tbUPnaJf9xKX1+dbGOE3FhbVUkbuTKOESdyGPQ/261qndcvBwob1Q9dMCb6nEr2qD/BNIjYt7hOjR8yzOOKSoBF8QorwuxCaen7FvsZaO3Os3AD5w6d63qTRtspntJ5j1x3i4Nsy/8Ff0BslVG5vbyhk6UuiI7RpKiWTI1+HDKrpJheJsuCgOL5Z/Iz5iaYfUmo3yE+Eae9eeOB7GKDqR1m2RBGSmlymtf8eAW267tffVFTocUUx2UIeGfq5fBs3XwVgDE0f5s4Jv/e1f4Dz1mL1bmRPsLK9K1zcIMQYsegVWbOYO7X3gc/06coUyon0oBChrivlCcEy60q+yVh+Fn1Iha94SLVV1tWgT7q+vOKSny9xFXTp7bWy3JcuQrOmz7Nu3Xe+6OURQmr9cfLe5bblOC6atyz/Il5W3PeTdpXXa+B9r1f101XfuctU4uZmqygoAfwx3P9I55qKmSnd6T6qelH8/dPumENNWrFynYvm6zVgiplh/t4rhdzKWdkitazpYZmnNotC3EvcsWpLf610SxFCHRRSQWU5sqlqPBfROLZ2jfZMLH5ieM2WOtgVMylr+wlb2U5YNPr1eTb66Uc2+v07pFzqFBUmvp7TA/cZsUpZ5G0HTXdRUlbOCx39FbfvBAibFzVHWR7O0e55voJmq1N4dlf5CLzWa6Pl8vax3A5QirgVWsbICrb49VXX7OE15dnHwE3z7VurHl6ZKHXurdbfE95Cp2ZnqaJ7mGvmhps8MvsBkzZ+oOfOdjVgksj0KCgb8ymL5oXu1YpxVz+qtFucUUM9t2qh9G2nL32eGeOp1sqb9I3CetyPa/van+nKx1PrGM4/1NHY8Q906Siue/lBzVgXfit4zdqKmL66uLrd1OXaMFc2ZsUkLP5gb0AOzXQv/PjF0EJCWln8bdevB+KdP8KnW4u7JKjIxtENK987qbgXWc54bpxWB88ttnK6vR6wtulv8xaDoAjJL+d4dVCtghF3mT1udVDgHlfGFmarNR5dzVP8vHe2nLCudWFHlqphbijnKi+ir5FNV+aJTnLTHOh22/qQJmu7irJZBDwqEl6HcMHdN8zbsChiXZjm/Sv5wlOwdOvSm/xOXyTd0U73HWqlKlzqqUMv5fNk5cU4XAqAwKT1v1o2DmmvjyCEaec5L+vLlqVr63+maOfglvdhpkKbs7qEb3+pdRN+BV13thtyvdukrNaXX/XrrgQ81c9w8Lf1gor7s/4BGXjjRbyLLMmvtXC0wU5Lc1yHg6cpATdX6Nisi2z5Va2cHXMAvv0Yt1jynV657U1M+mJVfh7fcrxcHzFKNGx/RpddUd3Y0mqrrW/nTiozvdL/eG+Cp9w818bq7NPyPi5X+5KO6tKfPvZX6XdTN+nei/47Sa71HOT/jQ43v/ZSWdPuduju7+anWUPUvstZvv6lxg6dq4bhxmvZ5DBPDuibOyG/NPM18eaJmBC3znKA2hnao1EZdXuihGosn6r1zhmj8UJ/f14snKX3QtQoxRt8FsdVdkQZkpsfphIcCp6coTKZyAp561OnVggfdbtqqQ4H7hVGufcOAqDlTmSs3Bk13UfnieuEH9wZZoQMzQkVkmTo0cZmTPqZSO+cz7M0Muj2R0rxa0MMBeUt+DZ6sFihtirRnJREqqPEjQzVwYn+1brFNSweP0gfXvaRpUw6p2YBBeuSbO9W6KM/wjbup7+wXraDwTB2ZPk4T+w/VB09/o19TuunSKc+rewdnv6gVfX2Gbdoof/Se6TOss6n1d/fZzQo9/9qTxGqvpn0W0KNZvqE6vvq8ru52RGtGDNcH94zW0k1tdPH7L+reVzsf6+ny8NZ7Gx39cWp+vd8zXVvq9lBfq95ve7B5wHsx/04e1x+H9FD6zrmads9wTfz7OqXcPEh9b2wU5n2nq+NrQ61gsKI2vjxKY4fO1dGUIuhpTaREdr8tnq5pg0fry6Bl3bE/NKJuB6nq5Xfq3h/uV9cz9mjFcPP7+qEW7Gqoiz8fou5nBQ5QKgGiqNOkZt/3i64FzPcn3u7fj5721HWqe3HQc4WOHGW9OUlb3gmc6+sY/+N3aO+5k+S3d+uOajCqlSp5xtrnHNTBoZO0fXLA+LILu+mkvwQ84WnL1qGhH2nbF86m0fsUVZ242ucv0AaqM7aHqoYcKhLiPdnqqPoLF6hGl9T8gCo7Uxlvf6ut7wdOGFtTtd69XNVM79v2ddrWZ7pfD1pynwvU8OHGx973QevnPWT9vMAZ7vr3UrNbfL6iKkRbhK8DoIiFOpOEORnZ2eY/9tosufb6D2dcbYoRh3/OH5+fSLL+3jYnJntJMv8PFjIzhBDt6M0yCc98Q7RjQgW1Zbn89oq4LU0bhdo3oD392tKk7aUUtuXMDzWo1zh1+fA99fbtWStG/5xntZmp84DfPyOoiQIyiriHzEhWyo0dVS3ix1RTlRw4w/7SOdr6+6na+eYy7fv7D9pyw/jgYKxAFZV6bsBtS79gzHJhM1WOetyuFTgN+ETrPF/s3f2TEMGYVQM926qK51Zo9dSgiD9nwrfafPsP2jVmmXY/P1W/3BAiGAPKiIBrARItTP2GrHcao3ShvQpwRBunz7PWbVS/eQnsKYtAMQRkltR6qvFYiwh7bULNsG8FLWs3a/87c6ygZbX9Jd7JPZsGPT1ZkHJnnqQTnHQoVS9qEGWvkhU4RhJk1mqqWv19er8q1lHlm4J7E48uXW0Fm3O0d8Jm+wvBU6zPF67PEQCKDNd8lFh7tfTlqdoeYqL5rJkT9eXQdarat6dahJwkuOQrnoDMUu7cDqrTJ7IQo/xlnVX3svCTmyaf0UF1H25Z+FxfvqpYgVAfJx3kFFVuH+3kXXVU668XhLnF6WjdQnVf76YqJzrbtmSl3nyBap4Rvi7KX3aB0vs3LL7GAQDAKOEB+dH5o/Rik7vshwA8DwrYD8H0+lAbO/bU1YM6l5wnLaOsy2K85ldU5X6dVSWiW5dVlDbocjUa2kFVz6jm7V0q3/oU1Xyqlxq+2EYpUXcfVVTK2S2cdIAbmqlyLLP11musOm9dqbr9T1FqM88bqqKUC1uolvU+TxrVWWl+wZgjtY6qv3i5TnywhdJaewLP/C9Rr/3C1Wo4qLHKMwgMpUmsJ3HPcSEHxSBmbtUn7ZhY5vcj1joN9zsZ6W3PEtmW1dX6mcG6+r78hwDyHxKYqJXbW6jdq4M1cFJ/tSgJj1lGWncBbRH9oH4ACBTFyd+bZRImbW9b/8nN0y3tr1T5cF/wikIdzc3ROwv+bf2pbS4I1uKsPBeIkNeJwEzTHoH7FdaO3i8Rph0TxW7LhVZb2u1jLc7KbEfcjkaofQPak7ZMjKDfP8N0ezltE9RuARncFQNQYuzNOi5m3ioyJaX+aMf4uVaHAUEDbRm5oLoKDMAKQUAGIH5Rnni8Ao7bfCDc16ggEkH151O/IXtVEiWwHffTjvEqqC0jEmt705YxC6qrKNuAgAxAsSooMFi+M8T3FCJidv3FeiFOINoxfiHrsEij6tCW76ItIxVvXRGQASgZrGvN/sOHNGdL8DddoHCm3kz9xS2Wa37AMfuzacd4+LeluxE2v5ORScTvHwEZgKJT0F/0YcrmbVmuFTv4qzwapr5MvR3jU7fF3avi/DjaMTYrdq4PaMuiF/afCG0ZEb/fvzB1GcmvYXKN29o95aQBIHYRnHBCsp/wsg42x1tps1q/51fl5eWp/gnpphAFmLNpqWZuXpJ/wjeL7xNedjI/HfKCEMlVIoygQz1P6pkC2jEmdltustrS01WSiLYMkx2S5zX4nYxYfpstttrMqa842oxpLwAkTqizifeZ+mO8WSZh0va29Z/c/ALzNXrKzdUJlaqoZZ0manhCXVVPPUHlk3n8/mhOjvZm7tem/du0fMd67T980LoIlAu+iDuraC4IBYq2Hc3/zTbtGFaBbeltO2vxtG20bWnqP9S+tGXMwraZqWezxPH7R0AGIHFCnU0KO/kb9txHnrS1Nv+3107arJ18T573WLPpJG0+G375JVDQSdonw056Ns2Gve2srZN+kk+e/1/nhrWO9SIeTojK9GaZhEnb2550/trTjnaQbTI87WjWdpaz7SS9fDb88kuooKr0ybCTnk2zYW876yjb0uwaUqgCkxWq7kJUqDfLk/C0l9k0eeb/ZfB30q/afDbspGfTbNjbzjpcm3nyzH9i+P0jIAOQOKHOJmHOwHa2p8w37TnJW/wu5vkH5Jd5F/MfJx3IU+YjRFaxi+TEbPNkmTKT9i75Z/r8XhTnYmBnWIudthZn5XndkD/TCPdzo61P33bwpH0u1naWWRfUjmYdir3/MQGbrgpZr+Hq1F5bCe+F2iwh2tKzb2luS8NZ+fGU+QiRVaRC1l+4urPXVsKkPYv5j5XnbTM73+RZa+/vorPtSR9b+QvIJCADkDgRnoQNb7ZJmLS97UkfW3v28/3r3LuvvfKs81c237QtKKMECDhD+2560t4TtrU2SXs5FoTZxeY/vuuAfe2c/FWwUAUmK1R1eeo5gDc7sG3M2rSZvZnfjva+noTdA2Mc2yd/nb+y+aZtQRklREA9+m560t66ttYmaS9h2tJzYTcb3gAuP8/7Mr5CZlpMdqgq89R1AG+23UZmbW846WNrz36l+3cyoM58Nz1pb71aa5O0l6L7/SMgA5A44c4mnhO0D2+W78nbN+1zMTdyPRdws20vzrbhOc7wzTcCt8OKeMdChDv7hhC4q2c78AxuNu0Tfv5f5N5iT8JcIHzzAsq9+/sKmWkx2aGqwreOfXizfdvEk2lWnou2w68dPW3s4bOf33sI2K1gUe1ciDB1FErgrp7twHo2m3YbudiWhm9dO7xZnoRZ+aaL/XfSiGpnS5i6CCVwV99t3zo1Sbst8vPKBQTJiWozAjIAiRPubOJ7cnZ4szwJ321v2lq8Z/1ju/oe480zfDd880PxO7CIhTwjOwKLfPa1k55NJ9/vpcyVwVtuFmfDJ+23v69wBSY7XNWEqDNvlifhu+1NW0u4dnTS3jzDd8M3P5DfQcUkbIVafIsC9rM3PVnWRtDLeNrSZ5/89bF00DEe4QpMdrgqClF33ixPwnfbm7aWWH8njYBNP4H7JkrYirMEFvnsayc9m06+30sV9Ptnr/MTfsd4hMgkIAOQWKHOKGFOtN5sT8JeWf8xa89imHJnn9DHhODdMUC4/YtDqBOzEfKMbfFkB57YTcJePNvOYv7jzctPeI8JFK7AZEdZp35t4t3FSXsWwy7P3/A7xl7nr4J4dwwQbv/iEku92uv8hHc3k7AXz7ZZnA1vXn7Ce0ygcAUmO8p69WsX7y5O2rMYdnn+ht8x9jp/FcS7Y4Bw+ydaLPVnr/MT3t1MwrNhVp7Fc4C9nZ/2HhMoRAEBGYDEiuJkHP5E7iTMH+KB+1j8Xsrz17pvXkFCvI9iE/bsHMCzm3NvJOgwT4ZZeW6fhLgYGCF/ZLj34ckOV0Vh6s6b7Ul4d7MSJu1ZDJ/X8Dsu6NhC+LyOK8LVYSDPbnG2ZdgfF67Ak11QNYWoQ782sdf5K28izO+k4d0sqb+TYSsxgGe3WNvMXucnQv7IMO+DgAxAYoU7o4Q56XqzPQnvblbCk/bcIQl4Db9N3w3/3Y4JON4VYU7G3hO54bNP0O6eDHMh8JY5Cc+2s0+4HxW2wDc7yjr0ZnsS9so3bSmsHQNfO2DTK3A/N4StXItvkc9+QYd4MkpFWxpWwpMurW0ZSX0Z4erdk+EJxOxNJ8+zb7hjPcIUEJABSLxQZ5UwJ16/bM+GvfJN+66thCftCPkaoRRQVGwiPEkHnbPNtifTU2avA/PyE2HO+QUUWHyLwtVVmPoNagPvtpPwbHvXvvvkC3qNcAooKlYR1nFQlXueovTke8sD8/MTtGUCFVBlvvUZVLVm25PpKfPu45Nf0Gt4hCkgIAOQeOHOKmFOzN5sT8K7W+C2JXDfAGHP/WELXBDuhFzYCdxT7t3P5wCT9HmBQl8rFN+igqqrsLr3JLy7BWx78y2FvVagsAUuCVOfhda/p9y7X2C+t6Dw1woUmF1QlRVW/56Ed7fAbUvgvgHCNlnYgiIWpt4KrWffcm86oMzZt9DXCoGADEDixXAC9hZ5Et5dfY7x7uOsjQhO6m6d9wtSwHn5GN+dPElvVqiy/ESBrx2uMFR2uHqjHb0iakcj0W1Z0A8OVRSu7o7Ttoyo3QpsM8PZ8JblJwp87XCFVjYBGYCiEe7MEtMFwAiR51ducfssnwiBJ2zPpl+2z4a3PD8R08XACFVUUHWGqWu/7OO5HY1o2tI3j7Z0T7g2M7xpn0xP0ue4sE1TSJt5nw8AgBLDc+IyK+85LESeJ+3dthKhlpIo1Ps0i10WYrH5bPjmO8d5Dg+poMJwRQW9Xhh+P8b383j55HnyPWnvtpUIXEqyUO/XLHZZiMXms+HNszjHeQ4PqaDCcEUxvJ5ftmfDrLz5IfI8ae+2lQhcSopw782sPIvhm/Yk/Mq9hb5Jf2ELLE4RPWQAikZBZ5YC/moO+Ve54XdIwPHhX67gMrcVcI4OLvPJ8CQjuRB4RHBBCKnAug1fmNB2DJdfkhRUh35lATt6NhPRloUdV1A9Hq9tGa7OgvJ9MnzLIm23ggqdInrIABSNGE9Opshb7LthVp5870ZAWUC2LVRZSVmMUPlmsQVk+Jb51KFPMrSCdij0WGcdSgGva4q8xb4bZuXJ924ElAVkh8wvaYtH2DK/Df9Nn3r0SYZW6A4FKOjQAl7XFHmLfTfMypPv3QgoC8gOme/mYoTLD8zwLfOpB98qCamgQp8iAjIA7ijwDBZQ7HvGMyu/Qz0ZAQWB2SV18ROm0HfTty4sfvUUSkE7FHZsJAp5A37Fvhsm6XeoJyOgIDC7pC9eIQoCNu368KmTQqqy4B0KOzYShbwBv2Kz4ckwK79DPRkBBYHZJWXxClPgu+n7uS1+dRJKoTscQ0AGoOjEebIKOPf5Z5iV7+IVWBDJUhRC/ZzCFkeo7IDKCNgMraAdCjvWVzw/x+JX7Hnjnkyz8l28AgsiWYpKqJ9V2OIIkeX3+S0Bm6EVukOE4vw5Qe/VN8OsfBevwIJIlniFes3CFkeo7IAPHrAZWmE7BBQTkAEoWvGetCxBJz9Phm+mSYZbChXqoHiXQoQ6xLN4hPicgR87rIJ2iuT4QIUdU8ib8rxvv91CZZpkuKVQoQ5KxFKAULv7Lobv5/T5rAGb4RW2UySv4auw/SN4U0Hv3ZPhm2mS4ZZChToomqUQoQ7xLB4hPlPgRwyrsJ1CFBOQASh6hZ3AIjrD5e8WtKsn03cJZLJK2hKokM8RIiu8iHdMsAh/bsjP4sn0XQKZrJK2BIrgc4TJDq2wHSN9nUCFHRfhGwz5WTyZvksgk+XmEqiQ9xwiK7zCdgxTzFOWAIpHJGeaAp70KkiMh5VoEZ/8A0VyYKyvbRRRO5bFNvQosraMpx2NImpLo7S3pxu/f0lTMheU4V8DACVJXqRn6QL2i/ZEH/HPdEFSlGf9AneP8LWi/Zmh0I7+YqlT2tJ9Je33j4AMQLFKxAXAVwk5txeJiM7xUVxUEnEB90hkO5blNvRVaPWXgbY0ykp7RlzFEe5YWJsxhgxAsYr4QmL28ywF8N3NdylNQr1/sxQoop3ymTpP5AXciLodC+DZJdRS2oT6DJ4lrEJ3OKZEtGUh+/vu5ruUVKHeq1kKFPGO+SKpY3rIALgm6lsXx0tXSjgRnvw9En3hDiXm20+0pZOIXIlsz+OtHYvwd5AeMgCuifoCY/YPXMqyOD5rcVy8DfNzYvpZns9UTO/Tdb6fN4bPXJztGRXfz+RZyoo4P1u0dUlABsBVcV9ofE+WgUtpEOp9e5YYFdfF21dcP9P3M4daSotQ792zxMjUa3G353H1OxnqPXqWOMRSh9yyBFBixHz7C17FffEOhXZMDNqy9ImnzeghA1BimJOZZ0HkSlq90YbxKYltSXuGl6g6IiADUCIl6iRXFvnWTUmun5L+/kqa0tKeJf19FrWiqgcCMgAlXlGdAEuT0vz5fd97af0MiVYW6qQ0v/doFcdnJSADUOr4nhx9l7Ig1OcyS1kT6jN6lrIi1GfzLGVNqM9oltIm1GcwS3FgUD8AAIDL6CEDAABwGQEZAACAywjIAAAAXEZABgAA4DICMgAAAJcRkAEAALiMgAwAAMBlBGQAAAAuIyADAABwGQEZAACAywjIAAAAXEZABgAA4DICMgAAAJcRkAEAALiMgAwAAMBlBGQAAAAuIyADAABwGQEZAACAywjIAAAAXEZABgAA4DICMgAAAJcRkAEoBjv1zY3tdXGq/zJmtlNcBhz8YbRGnH+Z/bn6dhyoMV9tdkoAoHBJUzIX5DlpACXSIo1J7ad3nK143PLdAt3QydkoViYgu0jDxjubDvfej7/dHw9Q35unOluOJ0drysC2zkYh1kzQ46cPkX982VJ3zPpI10b4EgCOb/SQAUC8du0KCMaM5Vq6fKeTBoCCEZABQLwaNFBXJ3lMW7VuWdtJJ9JhHVwxW9+MHKYh54/WMicXQOlGQAYA8WrQSwO+H6henRrYmzVb99Itnw9L7O3KfYv06R39dFNqZ/Vpf7uGDRqrGbOznUIApR1jyIBSIHvfAYW69O4e95Ruuztg7FPvwXrrjYtU09n0VTGtqiqWdzaKVRkfQ1YcNk/SkFMGaoazme8evZTZX62cLQClFz1kQClQsVpVVQm1VHF28FU+JfS+1uJOMAYAKAwBGQAAgMsIyIDj1dED2vjVBL1z/wA90vGiY/ODNemjRy4fotdHz9DGXc6+ETi4aKo+tV7r/tM984xdpvvveFPfzI79ScPszYv0zT9GaMTlZuyU53Xb66bzb9eQ+0fbr10yRlGZqUmOvb/8ZYC+CTkV2WHtnj3JrqtHnHnL7MWu9wF65ekJmrH0gLOvz/xtQbcrjVd1v/fnWcuwRU4+gNKGgAw4Du3+brSGtO+m264aojFvTNWCpT5B07Z1WjB1gj694x7d1vAiPfL0DO0+6pSFtFmzH71dt3UeoNet11q2xsm28peNflXDzr9ewz7e4uRFaN86fWO95k2n9NOwAaM1aeoibXWKjK2zZ2vGGyOs175Il50+RJO8AUwJt2GqXu95mfqeP9CuqwWzfSI2u96nauKwIRoy1KpzJxvA8YGADDiuHNbqV+7RnT1HaIY3cCrITi0YZu1/xyS/gOiYzfrmtpv1+CuzCwggduqbmx/S6987m4XZMEOv9O6jYQW+po81EzSi490aM/uwk1FCbZ5qBZAD9Ol3zE0GIBgBGXAcOfjFCD3+aPS9L7vHDNSwYYuCbg/u/niEho2JJMDYqd3bnGSBluvTfvdoYtRfqbRI7/z2KX2zwdksgZaNHqZvAuvg5K7qPXCwBk9+VQNf6K/elzUNejq2SoNOat/DWs4PLpMaqJUp8yzVKjr5AEobAjLguLFck58eGxSM1bzsHg1fPUtTMhfkL3v+q+FPdw26+C97+g1N9e1Vy5qtfz8aMFWExX699c5rWcuEOcPUO8KpLQ5OHKvXg4Kxtur93keacMDnNWeFeM1tk/T6W7NLyJiyQJu14fvAwLWT7h33qu59so+6nt9VF951j+79dILGrn9Dd5zuCaxqq9Nzb2j459by1u0hprfooztMmWe5q6WTD6C0ISADjhPZ3/1XnwSO+W7bX4Pf7a/2DSo5GZaU2mr/yAsa+GDgLPMzNPHL5U7aer1ZszU5sMenbj8NNK9X19m2VGndS/e+PdgKPwqzWdPfnuCkj+n61jDd+9uWquIzZUeVtqFfc/fwqVqwz9koUQ7o0A4n6bVWSxeGGPVft5OuHdgj5DxyAMouAjLgOLFx9mdBvWPt7+ijVqHmMlMltb/q+qCgYPXMdd7X2Lgo+NbnKfdfqvahXu/kTurR20mHs225FnzlpL366cqr82e/D3JyN/W42kl7jdXqFU6yRGmgxl2cpJcZW3eZbrpxhCZ9tU4Hs5xsAMclAjLguHBAuzcFj/Vq1TJMsGM0aBB8i2z8Zmdw/2Ed/PVYb5lH+7ZNnVSgBqrX3kmGs22zNjpJr96nqV6Kkw5SW/VOd5I+Vq0viYPmq6p9734he722jh+tEVf1UZ8al+nxQRO0LKKxdgDKGgIy4LhgBVAh4pRKMc/cbwV4IQbQV63qc+szWlnZWu0kvaz3V1aGqVfscbeGv95H9ZztYJs1e+QQ3d/5dr0ztZRM4wEgYQjIgONExRA9TYcLnF8shLqxBkgHdDD0vBnHWMFXUA+S9f6iHaRfcr8eqpIa9xus99e/oXtv7xo+MNs2W2MuH6hJEU1LAqCsICADjgu1Va9l4CB9adnykFPJ27KX/xw8M3wPz9QL1uu1sBN+Vq0O93qbtXGmkwynQVMF3dWc+LO2hh1bZZ5cdJJetXVSk+DPWaLU7aTeL72q9/dM11uTh+mW34aazmKGvvkufNsAKHsIyIDjROMzLnVSxyx4fZKWhQx4DmjBxC+d9DGdzm/pDR5qNgx+bnLG61ODbztasqd+GfyEZ6C6LdW+h5P2Gq1/TwwzJmzRVE0OnHWj7lVqFTw3RMmUUlWNz++lG96boLc+Cx5ftmBbJN9btV/ZPAwAlAkEZMBxouK5XXWDz3QUtkWvatj9E7Ta99qftVMLhg/UC28EBkJ91OuyYw8B1OvYVac4aa/ZI/TKgEna6DP1xO7v3tSQ20ZHMBltA3X4bVcnfcyMRwfpna/8v7Py4KJJeuXeEVrmbHuccv9Fah/2IYAoZe7XwX0HClyyI77lu1wT7x6rBZtDf5tAlRNrBwVkNcsH3By2toNvF3+pSePpSQPKgqQpmQvynDSAUmb3xwPU9+aAbqKrh2nsB71C3Aaz9h8/UHfeOCmC4ChYp79/oWdu9X0q03zx9UUaNt7ZjMEt3y3QDb4dbVnLNeY31+udqGfqt9Ttp+FLHgo97UYhQtZjBI69f/Pl4v30jp3r0UMDV7+gC+0qO1Zer1Mfdb2qqRqf3FInarNWz5ytSWOsINbv6craumHyF7rlfN+HJJbr087X6/WCehqfHK0pA9s6GwBKE3rIgONIzauf0uAno79gt3rkDQ30C8aM2rpw6DBdGNjrFkqnXrow6HZkCCktdcPoCF/TV91eeuiru2MKxorb1tkT9OmgERrR93Y90neIXh8ZGIxZ7XTDQF3pF4wZLdX1juAeRABlAwEZcFyppFYD/6m33uvnN5t+WGbW+Pcm6JmnOylkrHNSLw2Y+JA6FfRaJ/fR4NH3qHM1Z7sw1msOnDtad4SbEDZAvasf0vBZw9SrRRxTbpQYtdX+3hf00uuhZ+qvd+tADbyhhD+0ACAmBGTAcaeSGv/WCmKW/1cvvTdQ1/brpFYnO0XGyW3V/uq+uuO90Rq7/A3d8dumoYMxR8W2/fTMwi/0zAt91dXnC7Drdeqh3i+8obELBqvrSVEGS7Xa6toPvtCEBa/qoYH+r2uClsbnd1KvBwfrmQXT9f4HEQaXrmqr3gve0MAX+qlXj4D6rttU7Xv00bUvDNNLq7/Q8Od6qF7YqTsa6MK3JuitsfeoV+CXjZvX4cvFgVKLMWQAAAAuo4cMAADAZQRkAAAALiMgAwAAcBkBGQAAgMsIyAAAAFxGQAYAAOAyAjIAAACXEZABAAC4jIAMAADAZQRkAAAALiMgAwAAcBkBGQAAgMsIyAAAAFxGQAYAAOAyAjIAAACXEZABAAC4jIAMAADAZQRkAAAALkuakrkgz0lHpWJOedU8kqYTjlZW+ZwkKc9aAABA6ZSUp6PJedpfPkO7KxxSdvJRpyB+qft26MSVM1Vz0zJV3rtV5Y4ecUpKl9zyFZRRvZ52N2ylX5t3UWa1Ok5J/GIKyOpkVbWXtLTKSk2pqArlyyspiYAMAIDSKi8vT0eOHlVmVrYOHcrQjpQD9hKvJnO/VJN5XzpbZcv6My7V+jMvdbbiE3VA1iijpqorTbWrV1dyOe54AgBQ1uTk5mrn3r3aq0P6pfJuJzd6Lb77l90zVpaZnrIV5/+fsxW7qCIq0ytmgrG6NWsSjAEAUEaZa7y51ptrvrn2x8L0jJX1YMwwn9F81nhFHFWZMWOmUUzPGAAAKPvMNd9c+00MEA0zZqys3qYMxXxW85njEXFAZgbwmzFj9IwBAHB8MNd8c+03MUA0joeesUDxfuaIoyvzNKUZwA8AAI4f5tpvYoBomKcpjzfxfuaIAzIztYV5mhIAABw/zLXfnt4qCmZqi+NNvJ858vuPeUlMbQEAwHHGvvZHOddoaZ1nLB7xfmYGhAEAALiMgAwAAMBlBGQAAAAuIyADAABwGQEZAACAywjIAABAmbR17s+qcN/P+nCvkxGBWI5JBAIyAABQshzZqyf/PMMKjJbqnfi+kajUICADAAAlStb6fXqn6om6s8Mefbgqy8kt2wjIAABACXJU0+b/IrVL110tqmva9F1a4JSUZQRkAACg5Di0TxNmVNRdLauq5al11H3zDk3b7JSVYQRkAACgxNi6fLveOeFEdW9ibdSppt+1PKgR8/aqrN+4JCADAAAlRJYm/bRL9TpXVXt7O0Xd21fX1ln79GMBXxW599ddGjZmoU69zzwIMFtt3linD7flOqWhxXJMUSIgAwAAJcOOffpwWUXd0vIEKxTL18Tcttz/iyasOOrk+Fs/d4XaDPtZT66pqD5XnqqP+5+kPtUz9OQrq/TONmenALEcU9QIyAAAQImwYNGvmnZCXXVv4hOe1ElTrwbSqEX7FDQ12I5tuu+9HdJZLbTq8dP0XI+66tO2rp7+bWst7l9ZX07e5ezoI5ZjigEBGQAAKAEOatqcg1agVE1nV3CybFXUvVMVaeZ2TQqIyBYs+VWTVENP96wj3xjOSGnSQE/3cDZ8xHJMcSAgAwAArstatUsjNksPtjh2u9KjffM6aq9d+nC579D+bP283grgGlRXhzpOlp9yOq1hLSftEcsxxYOADAAAuCxXPy7fpq1WauQ/flAFe6C9z/LsOnsusknz9mm9vb+RrfVrrFV6RdXLz4hALMcUDwIyAADgrsx9mjAlW2p1op67smnIZeBZVaTlv2qCd06y8qpX31rlmGczQ9u6/7CT8ojlmOJBQAYAAFy1d9VOjbLWD17QVA/2aBByefpCc9vyoMYsP5h/kCqqSQNrtWiv5h/Kz/GXpfkrPPt6xHJM8SAgAwAALsrWpLlmrokG6nVyAWFJg2q6wQqmFkzbpWn2nGTldHarRqqnbRr63z1BT2Cun7tBQzdVdLY8YjmmeBCQAQAA9+zYow/nW+seNQKergxURX26VZf2b9O09fkTuKaceqJe7pKiBVOXqs0rq/TkzF1WcPerHn1vnrp9V1nPXVrV3s9XLMcUBwIyAADgmvWrdmiStb7z5CpBT1cGsieJVbaGzffMSVZRfW5or8U3N1CHg3s0bMzP6v3ldu2te5Km3N1IZ1eydwoQyzFFL2lK5oI8J12gVnsbqH692s4WAAA4XmzZulPLqkf+Dd8X/PMeJ3V8+fYPrzqp6NFDBgAA4DICMgAAAJcRkAEAALiMgAwAAMBlBGQAAAAuIyADAABwWeQBWVKe8vIimiEDAACUEfa134oBopFbvsAZXsukeD9zxAHZ0eQ8HTl61NkCAADHA3PtNzFANDKq13NSx494P3PEAdn+8hnKzMp2tgAAwPHAXPtNDBCN3Q1bOanjR7yfOeKAbHeFQzp0KEM5ufnfHwUAAMo2c803134TA0Tj1+ZdnNTxI97PHHFAlp18VDtSDmjn3sDvRgcAAGWRueaba7+JAaKRWa2O1p9xqbNV9pnPaj5zPCIf1G8xjbJXh7Rt9256ygAAKKPMNd5c680131z7Y7H+zEuPi54y8xnNZ41XxF8u7qtOVlV7SUurrNSUiqpQvrySkpKcUgAAUNqYpynNAH4zZszcpjSBWKzBmK8mc79Uk3lfOltli+kZS0QwZsQUkBkVc8qr5pE0nXC0ssrnWMFYHgEZAAClVlKe/TSlGcBvxoxFe5uyIKn7dujElTNVc9MyVd67VeWOHnFKShcztYV5mtIM4Dc9Y/HepvQVc0AGAACAxIhqDBkAAAASj4AMAADAZQRkAAAALiMgAwAAcBkBGQAAgMsIyAAAAFxGQAYAAOAyAjIAAACXEZABAAC4LKaZ+vOsI44czlXmoaPKPpyjnKNM9g8AQFFJLp+kCpXKKbVyeVVKTXZyUZZEHZDl5uTpl3UHtHbpfu1Yf1gHd+daQVmuVeDsAAAAEiYpSXYwllYrSbUbV1SLdjWU3iBNFa28eFXOSVb9rEqqmV1BaTnlVI7vpS5QblKeDiXnanfFI9qSclgZyTlOSfyiCsgOZ+ZoyU+7tfT7vUrNq6IO7RqpcYNaqpJWyfoHQyMCAJBoeXl5OngoS79s3qP5izfoUM4hNetQWe3PTVfVahWcvaLX9FCKmmVUdrYQi7WVM7QuLcvZik/EAVlebp6m/XuTNsw/rIu7na4ObU5SmhWIAQCA4nHkSI5mzV2rr75bqBNblVf33o2VWqW8Uxq50w6k2T1jiJ/pKfu56iFnK3YR93cunr1Ly37Yr+uu6KyuXZoTjAEAUMwqVEjWOZ1O0dW9ztL2lblaOne3UxI50zNGMJY4pi5NncYrooDs4P4jmjR2vS7t3l6nt2zg5AIAgOJWrlySTj+toc7v0krLZu/Wrq2ZTknhzJgxblMmnqlTU7fxiCggW7V4j6qnVlWnM5o5OQAAwC2mp6zFyfVUtUJVrV2+38ktHD1jRSfeuo0oIFu77IDandZYqSmxDx4EAACJU71aZZ1Ys6Z+XX/QySmceZoSRSPeuo0oINu5NUP161ZXUjmepAQAoCRITamomjWq6sD+7PzppyJgprZA0Yi3biM6OudInipUKC/CMQAASgYz21T55HL2ZO25EU7QzjxjRSfeuiVUBgAAcBkBGQAAgMsIyAAAAFxGQAYAAOAyAjIAAACXEZABAAC4jIAMAADAZQRkAAAALiMgAwAAcBkBGQAAgMsIyAAAAFxGQAYAAOAyAjIAAACXEZABAAC4jIAMAADAZQRkAAAALiMgAwAAcBkBGQAAgMsIyAAAAFxGQAYAAOAyAjIAAOC+jAzpxx8LXjIznZ3LHgIyAADguqSXX1ZS374FL6NGOXuXPQRkJVhebq62/bpZs77/Vtu3bXFyAQAogw4ezF+3aiV16eK/mDxjz578dRlUJgKyPbt36vvv/quMQ05jlhE5OTlaumie/vn357Vi6SInN3KHD2fppx//py2bNjg5AACUUHl5+avBg5X38cf+i5WXX5i/T1lUqgMyE7CsWr5Ub48aoTHvjNKBA/uckuNbnvUPduf2rZo4boye/+sgrV75s1MCAEAJsGuXkkaO9Fu0cKFdlPTJJ0FlJs9m7RNYZl6rLEiakrmg0HDzH08uUp/uZ6vLmc2UlJTk5LonNzdX27du0fRpX+nrLyZo/pwf1bzl6Rr5+hjVPbGBs1fpd/TIEf3vm8ka897rurn/Pep2YU+nJDwTlM7/6Ud98dlY+1bn1i2bNGr0Z+p+8WXOHgCAsuKb6cv1w6qFurZ/c6WkJTu54fXYUdNJuWzlSiVddJGzEZ+8qVOlU091ttw1tc5uJxW9UtdDZoKxVSuWasSwJ/T2ayOVVrWqWp3eQRUqVnL2OH7t2rld773+koY+MUDbrIC13RmdVTmtilMKAEAJ0aiR8saOlR580MmIXp51rP0aDRs6OaVbqbxleTgrU/XqN9CDf/qLvZzSspWSkwv/y6CsO3IkWymplXXD7/+op/72qrp1v0SVKqU4pQAAlBCpqdLZZysvnp6t5s3t17BfqwwodQFZuXLldHq7jrr34Sd1Ua/eqp1e1wrGyjulsTmclaV/f/Iv3de/r37431Tl5Bx1SqSjR4/qleFDdPUlnbRs8XwnN9+yJfPVs2trfT7hIycnvwdv47rV+seIv+qqizrqzFNr6ooL2uvFYU9o4/o1zl7HLFk4V4/e83uN+/AdrV+zUs/8+UF1bF5bo998xdkjWG5OjiZ8PFpdWtXTs089qiwrQDXq1mug399+v2685U6d1PQUgjEAAEqJUtlDZoKyChUqWutkJVn/i1fFSpXUsHFTZWVm2rdDs6wAzePAvr1aumi+du7YbpUtswMuwwycX7lssWrWqqOTT21p52VnH9a0KV/ontt+q0/GvKPWbc7QHfc9pvZndtHE8WN02+8u04/Tp9rHeuTm5thPQ/66ZZP+8eJQeyD+0aNHdCQ729nDnxlX9s3Xn+v1l/6mSy67Wvc+8qRSUvL/OjDj+8pXqKDk8uVLxFg/AAAQmVL9lGWimOClXv2GSqtSVWtW/qxDB/Y7JdKG9autYOkXpdetp9VWQOaZWsOsVy5fppOanGIfa4Isc+x7b7ykFqe10T/H/Ed/HfG6br/3MT39/Ci98cF/rH1P1ohn/qyN1mv6MgGYGYh/asvW+vzbBZq/Zq9uu2uAU5rPhHDZVpBmpvf456vD1fncC+xeQsaIAQBQ+hGQOWrUqq22Z5ylg1YwZgbHm0lZTW/Yovk/2U9w9ujZ277laMqMHTu2ac2qn9WyVRtVqXqCPQXHzBnTtGvHdl3zu9/rlOatvL1UZm22f3fzHVq7ZoV++nGGFcDl97QZe3bttAKrNF3c6yrVTq8Xsncr+/BhzZ01Qx9/8JZatm5rB2zmdi0AACj9CMgcKSkpanZKCx3Yv0+/bFhrjx0zwZnpuep0znnqcNY5qlixkjZtXGffZty0fq19W/HU0063x7CZAfXr163WKS1a2a8TSqs27XXyqadp/dpVfrckK1k/u0Wrtvbtz5DBWFaWFs6bZY8zq2kFjjfeepcaNm4Scl8AAFD6EJA5zHi0xk1OtseTrV29wh4PZgIzM31E2zM6qX6DRqpWo4YddJlAzexzopXX6KT8udlyrADO9GJVr1FTqZUrO6/qz9xerHpCNfsWZa7POLITTqiu2nXqqkKFCk6Ov8ysTC1ZOM96P+vs3rH6DRrb7xcAAJQNBGQ+TFBkbk9u/mWj9u3do8Xz56hhoyZ2AFSteg3Vqp2udatX6tfNm7RuzUo1aHSSFYDVsAOypHLlVC452Q7WDluBWSiZGRk6dPCAUlMrK9k3oDLHF/BwQpoVyJ119nn2GLMZ06bYty7NgwAAAKBsICDzYQb1Nz/tdPtrh8zXDf00a7oVCHWz81NT0+zeMBNw/bxkvj2o3zxdWcl5wrFixYpW8HaSddwy+5ZkKGtXL7cDuWantlD58pFP1WGenDRj1a678TZ7rNn7b/1d82b/aN9WBQAApV+ZD8jMVweZpxI/++RfdjBVEDOdhhnjlXU4UzOmfaVNG9fr9HZn5k+zYQVcTZqdao81m/X9d/Z2o5NOtgKr/NuMZm2efKxcuYomfvKBHZR5prcwa7P90eh/2k9gnnHWOXaPWjTM7cxWbTrohlvutMecjXpxqBbNm+2UAgCA0qxMB2Rm8L0Z6/XV5+P09efjtWP7Vr85wEIxU1iYwMtM9mpuSZpxZYa5LVmn7on29BOT/vOpPelqnfR6drDmKT+tdTtd3+92zfvpBz14xw16bshjev+tV/XM4w/ojzddpV83b9SDA5/WifUb2cdEywRl7c7opJv/cJ8yMw7qmSce1OIFc5xSAABQWpXpgMwMfE+vV98OqszTj2YcWGFPJpopLE47vb19O7Bdh7Ps25UeZkB+85at7VnwzXiuKlWPlRmpldPUs/e1+ssLr6ndmZ01+fNPNWLon7V44Vz16XuT/v7OOCu/iz3WLFamJ+7Mzl316JPP2mPSnnj4j1pCUAYAKI3S02P/6qN69ZxE2ZA0JXNBwV1Gln88uUh9up+tLmfmP1EIAADc98305fph1UJd27+5UtIK/2O/x46aTqoEWbtW2rbN2YiQCcaaNnU2So6pdXY7qeiV+TFkAACgBGvWLP9LwqNZSmAwFi8CMgAAAJcRkAEAALiMgAwAAMBlBGQAAAAuIyADAABwGQEZAACAywjIAAAAXEZABgAA4DICMgAAAJcRkAEAALiMgAwAAMBlBGQAAAAuIyADAABwGQEZAACAywjIAAAAXEZABgAA4DICMgAAAJcRkAEAALiMgAwAAMBlBGQAAAAuizggy8tzEgAAoORISrL+w0W6tIsoICtfUcrOPkJQBgBACZGbm2ddm49a8VieypWPrH8l19oXRSPeuo2oBWvVrawt2/ZaARkNCQBASZCZla09+w7phGqVVKFiZAHZoeRcJ4VEi7duI2rBZq2raeGyjTqaQ0MCAFAS7N2fqa17duvExpXz71pGYHfFI04KiRZv3UYUkDVvU11HkjL1/cxVTg4AAHCLuVW5eNkv2p+9X81aV3dyC7cl5bCTQqLFW7cRBWRpVSvogisb6r2Pf9DipZucXAAAUNxy8/K0YvU2Tf1xiU7rVEM1alVySgqXkZyjtZUznC0kiqlTU7fxiOyms6VVx1rqdmW6hr86Wd/PWu3kAgCA4jR77lq9/q9v1LxTFbXvUkdJ5SK8X+lYl5ZFT1kCmbo0dRqvpCmZCyIeqZ9zJFfzvt+hKR/+opMb19Ul3duo5aknKjWlgrMHAABINHOLctnKLfrq2yWav2iDet/SVJ2711NyhYj7VYI0PZSiZhmVnS3EwvSMJSIYM6IKyDwyDh7R1PG/6KfvtmnPziylplZQclLs/ygAAEBoOXm5OnQoWzXrpOrM89N10dWNVaVqYjpCKuckq35WJdXMrqC0nHIqlxddb9vxxkxtYZ6mNAP4Tc9YvLcpfcUUkHkcPZqrg/uzlXHgqHJ5AhMAgIRLKldOVU6ooCrVKig5mc6PsiqugAwAAADxI9QGAABwGQEZAACAywjIAAAAXEZABgAA4DICMgAAAJcRkAEAALiMgAwAAMBlBGQAAAAuIyADAABwWcwz9W/fnKEZk7do2ezd2vzLAWUfTtz3OQEAgHwVKyWrQaOqatWpprr2rK/0Bon7QnC+yzI6Je67LCeOXq0vx6zX1Vecqa6dT1Wzk+ooJSUxX3QKAACOyco6orUbdmjGrFUa/5+5uvSGJurd7xSnNHZND6WoWUbigrvj0drKGVqXluVsxSfqgOy94cuUuSNZD93ZU+m1qzq5AACgqG3feUAjRk1Wap0c3fxIKyc3eqcdSLN7xhA/01P2c9VDzlbsohpDZnrGTDD2tyeuIxgDAKCYmWuvuQaba7G5JsfC9IwRjCWOqUtTp/GKOCAzY8bMbUrTMwYAANxjrsXmmmyuzdEwY8a4TZl4pk5N3cYj4oDMDOA3Y8boGQMAwF3mWmyuyebaHA16xopOvHUbcUBmnqY0A/gBAID7zDXZXJujYZ6mRNGIt24jDsjM1BbmaUoAAOA+c0021+ZomKktUDTirduIjzbzjDG1BQAAJYO5Jkc7ByjzjBWdeOuWUBkAAMBlBGQAAAAuIyADAABwGQEZAACAywjIAAAAXEZABgAA4DICMgAAAJcRkAEAALiMgAwAAMBlBGQAAAAuIyADAABwGQEZAACAywjIAAAAXEZABgAA4DICMgAAAJcRkAEAALiMgAwAAMBlBGQAAAAuIyADAABwGQEZAACAywjIAACA+zIypB9/LHjJzHR2LnsIyAAAgOuSXn5ZSX37FryMGuXsXfYQkJUy61av0BXdO2jipx84OQAAlAEHD+avW7WSunTxX0yesWdP/roMKrUB2eZf1mvY4Id1yTmn6dT0cvbabP+6+Rdnj+jk5OTohWce1zltGmjJwrlOrr+8vDz9Y8Rf1b5ZNc2d/b2T6+/A/n2697bf6rbrL9We3TudXHeY97t86UINevAPuuCMpnY9XdnjTL3+8t+0b89uZy8AAEoA65plrwYPVt7HH/svVl5+Yf4+ZVGpDMg2rFute269TnNnfa9eV1yrR54Ypu4XX6ZxH71rB0NrVv7s7Bm55ORktT+zs3Zs+1VLFsxxcv0dPLBfPy9dpEMHD2jRvNlOrj9zvOnFatWmg06oVsPJdcfCebN0/RXnafPG9bruxlvtejq93Zka9eIw/en+27RzxzZnTwAAitGuXUoaOdJv0cKFdlHSJ58ElZk8m7VPYJl5rbIgaUrmgojCzdt6fK2pnz3sbLnL9I79vHShzruwpypWrOTkSrN/+E6P3vN7XXpVXz34p6dVoWJFpyQyJpC67w/X6+xuF+qRPw8LOn75skV65O6bdfhwljqfe4Ee/8sIpaSkOqX5pk6eqD/2u0qvjf5MPXr2dnITx/Me/3D3w+p97Y1Obmjm/e7euV1dul6ocuXyY2/Ta/b5+A/1xCN3asDjz+im2+6x8wEApU+Pq57XW1MvcbYK12NHTSflspUrlXTRRc5GfPKmTpVOPdXZctfUOrHffSqVPWQNGjXRRT2v9AvGjA4dz9Yll19t36Y7dOiAkxu59Hr11bJVWy1bPD/k7caVyxarcuU0tW57hp3eZQU7vsxtzwVzZ6nFaW3U9OTmTq57zGc557yLvMGYkZSUpAsuvkzduv9GK5cvVVZW2X1iBQBQQjVqpLyxY6UHH3QyopdnHWu/RsOGTk7pVmrHkIVierSqVavubEUvrUpVtWrT3h5D9svGdU5uviPZ2VqyaJ4aNzlZ5/foqXk//aD1a1Y6pfkyDh3U+rWr1PSUFqpT90Qnt+Qx9VS9Zi1nCwCAYpaaKp19tvLi6dlq3tx+Dfu1yoAyFZCZ3p6tW7fYgVVycnknNzpnnX2eKqdVCRojZnrMTM+ZCdjadeiklq3baeHcWfYtQI/NmzbYvXOntW6rKlVPcHKlzIxDGvPuKN14VXd7YL15KMAM+v/q83HKzj7s7JXPfAZzO9EsZszaR++9bg/If+qxe+xbpeGYcXPX9jxbf7jxCvt9FMS8ny2/bLD+DVdWcrlkJxcAALilTAVkv27aqAVzZqpDxy5+AVE0GjQ6yQqo2lnB1wJ78L6H6TFbvWKZ2p7RyXtrc92aVXavmIcJikwPWbszO9u3Bg2zfdfvr9GIYU+o2akt9fd3x+lPg59Tcvny9oMJQ58YYAdIoUya+In+NuRRO8DKyc3xC/58mZ/72H23qrz1moOGPK8GDU9ySkIzn8OMwevY+dyox9kBAIDEKzMBmQme3n3jZVWqlKILf3OFNyCKlnky0jwhuXH9Gu3de2xwnukxO6VFKzVq3NR7a9MMmt++dYtdbsaPLV+6SGecdY6aOOPHTKBlnmg0U2G8+/FX+svwUbrk0j66/uY7NOrd8Ro68p/67JP39fmEj+z9fW3d/It+mP6N3h8/VSu35djHBj5AYJgnJZ//6yA7/cyIN+zbpQXZ9utmvT1qpDqc2UUdu3RzcgEAgJvKREC2Y/tW+5bejzO+0WODn1WTZrHfk/ZMf+E7RswEe6bHzARqNWrWtvNMT9kvG9Zq7eoV9vb+fXvsW5rNW7VRrdrpdt6q5Us1fdpX9pQT5kEAX6aH7JLLrta5512k/33zlR20+fpp5nRdc/3NatO+Y9jg0gRjTwz4o/35n335bZ3c/DSnJLS1q5bb012Y268P/3moataq45QAAAA3lfqAbOmiebr31uvs4OS19ybYY8Di1eyUFn5jxEwvmOkNO90Kqjy3+ExPmZnTyzxVaXrHtln7mF611qe39/ZkmduVaWlV/G5h+jqhWnW1aN1Wmzau0+5dO5zcfO3O6GwHgOHs379Xrwx/Oj8YffbVAoMx8xn+981k/fHmPqpdp65eefuTQnvSAABA8Sm1AVlubq49xuru319j33p71QoyzBitRPCMETOTwJqB9aYXzExx4fv61WrU1CnNW9lBlxlHZqbBOGStT2/f0dlDdg9aSmplVQqYnsPDBGnJ5crp6NGjyrWCOl/pdU+0b7+GY247/vvTf9lPfJoxb+GYhwbef+tVe362/7v1Lj0z8g3VSa/nlAIAgJKgVAZkpsfniwkfacif7tXdA/5sTwJrxnUlineM2NKFdlBlesFM0GMG/HuYYKllqzb2PiYoM1NiBO5T30pnZWbocMCTlIHM3GYVU/yDr5TKle3bmuHc8/ATuuvBQXpr1AiNee815VhBXSCT9+7rL+rtf4zQs6+8Y08CGzh3GwAAcF+pDMhWr1ymv498RgOffl7X3nBrgYFLrMwYMXM78Kcf/+dMdxH8VUimN8z0is2b/b39pKO5bVilyrGnO82cZeY1Fs//ycnxt2+vGXe2wH4IoKYzNi1S5ZPLq98f7tNtdz5kfwfn+LHvBQVls378TmPeeU3DXnpL5/foFfODDgAAoGiVyoBsxrSv7bFQZ3e9sMiCDM8Ysa+//MweG2YG+psB/748U2R889Xn9tOLvmPMDHNL03y909j33wz6wnJzy/Xb/35hf0n5xZdeqdTKaU5J5MxYtf53P6yrrrtJzzzxkL7898feqTHMRLbfTvnSHlPXtsNZdh4AACiZSl1AZiZH3bBujT2I/6P3/6k3Xnk25PLtlC/s/c1EqyZYuaJ7B3tgfqTM05SmV8x8P6YZB2YG+gfyTJHxw/Sp9vsyT1j6qla9hu5/9Ck7/fvf/sae7PU/48bYk72a77sc/OjdVkA1QN0vuszeJxYmkLvv0cG6uNdV9uub76k0QVlGxiGtW7PSvuX63hsvhawjsyyYO9N5JQAA4JZSF5CZYMNMkmpuEb4yfIiG/2VgyMU8fRkP09NlerwMM8DfDPQP5JkiwzBPZYaakNXcxnzjg4n2l4GbucweuvP/9PzQx+0pJ975eLJuvXNA3LdczWs99tRzdo/hkEH36YvPxirXqiNzC9P0wI3825Mh68gsG63gFgAAV6Snx/7VR/XK1gNqSVMyF4Se/j3AbT2+1tTPHna2AACA23pc9bzemnqJs1W4HjtqOqkSZO1aads2ZyNCJhhr2tTZKDmm1jk2oXy0CMgAACilykRAVobEE5CVykH9AAAAZQkBGQAAgMsIyAAAAFxGQAYAAOAyAjIAAACXEZABAAC4jIAMAADAZQRkAAAALiMgAwAAcBkBGQAAgMsIyAAAAFxGQAYAAOAyAjIAAACXEZABAAC4jIAMAADAZQRkAAAALiMgAwAAcBkBGQAAgMsIyAAAAFxGQAYAAOAyAjIAAACXRRyQVayUrKysI84WAABwk7kmm2tzNHKT8pwUEi3euo04IGvQqKrWbtjhbAEAADeZa7K5NkfjUHKuk0KixVu3EQdkrTrV1IxZq5wtAADgJnNNNtfmaOyuyJ2uohJv3UYckHXtWV/j/zNX23cecHIAAIAbzLXYXJPNtTkaW1IOOykkWrx1G3FAlt6gsi69oYlGjJrs5AAAADeYa7G5JptrczQyknO0tnKGs4VEMXVq6jYeEQdkRu9+pyi1To7+9JdP6CkDAKCYmWuvuQaba7G5JsdiXVoWPWUJZOrS1Gm8kqZkLoj6sYCJo1fryzHrdfUVZ6pr51PV7KQ6Skmp4JQCAIBEMU9TmgH8ZsyYuU1pesZiDcZ8NT2UomYZ0fWwwZ/pGUtEMGbEFJAZ2zdnaMbkLVo2e7c2/3JA2Yfj66oDAADBzNQW5mlKM4DfjBmL9jZlQSrnJKt+ViXVzK6gtJxyKpeX5JQgFDO1hXma0gzgNz1j8d6m9BVzQAYAAIDEiGoMGQAAABKPgAwAAMBlBGQAAAAuIyADAABwGQEZAACAywjIAAAAXEZABgAA4DICMgAAAJcRkAEAALiMgAwAAMBlfJclAAAlGN9lWXKUuO+ynDh6tb4cs15XX3GmunY+Vc1OqqOUlApOKQAASJSsrCNau2GHZsxapfH/matLb2ii3v1OcUpj1/RQipplJC64Ox6trZyhdWlZzlZ8og7I3hu+TJk7kvXQnT2VXruqkwsAAIra9p0HNGLUZKXWydHNj7RycqN32oE0u2cM8TM9ZT9XPeRsxS6qMWSmZ8wEY3974jqCMQAAipm59pprsLkWm2tyLEzPGMFY4pi6NHUar4gDMjNmzNymND1jAADAPeZabK7J5tocDTNmjNuUiWfq1NRtPCIOyMwAfjNmjJ4xAADcZa7F5ppsrs3RoGes6MRbtxEHZOZpSjOAHwAAuM9ck821ORrmaUoUjXjrNuKAzExtYZ6mBAAA7jPXZHNtjoaZ2gJFI966jfhoM88YU1sAAFAymGtytHOAMs9Y0Ym3bgmVAQAAXEZABgAA4DICMgAAAJcRkAEAALiMgAwAAMBlBGQAAAAuIyADAABwGQEZAACAywjIAAAAXEZABgAA4DICMgAAAJcRkAEAALiMgAwAAMBlBGQAAAAuIyADAABwGQEZAACAywjIAAAAXEZABgAA4DICMgAAAJcRkAEAALiMgAwAALgvI0P68ceCl8xMZ+eyh4AMAAC4Lunll5XUt2/By6hRzt5lDwFZKbNu9Qpd0b2DJn76gZMDAEAZcPBg/rpVK6lLF//F5Bl79uSvy6BSGZDl5eVp+dKFGvTgH3TBGU11ano5XdvzbI15d5QyMw45e0UnJydHLzzzuM5p00BLFs51cv2Zn/uPEX9V+2bVNHf2906uvwP79+ne236r266/VHt273RyS5bc3FzNnDFN9/Xvq44tatv1d/M1F+urz8cpO/uwsxcAAMXIusbaq8GDlffxx/6LlZdfmL9PWVQqA7L1a1bqkXt+r507tqlvvz/okSeGqVGTZnru6T/p2SGPxRSUJScnq/2ZnbVj269asmCOk+vv4IH9+nnpIh06eECL5s12cv2Z400vVqs2HXRCtRpObskyf86P+mO/q5Rcvrxuv+cRPTTor6qUmqp7br1O777+onKOHnX2BACgCOzapaSRI/0WLVxoFyV98klQmcmzWfsElpnXKguSpmQuiCjcvK3H15r62cPOlrt+2bBWa1Yt13kX9lS5cvkxpen1+fj9f+qJR+7Ua6M/U4+eve38aJhA6r4/XK+zu12oR/48TBUqVnRK8i1ftkiP3H2zDh/OUudzL9DjfxmhlJRUpzTf1MkT7WAn1vdQGM97/MPdD6v3tTc6udH5eckCZVhB6xlnnaOkpCQ7z/SMvTL8aY376F298a+JOr3dmXY+AKDk6nHV83pr6iXOVuF67KjppFy2cqWSLrrI2YhP3tSp0qmnOlvumlpnt5OKXqnsIWt0UjNdcNGl3mDMMOlO55yvFqe10aoVS53c6KTXq6+Wrdpq2eL5IW83rly2WJUrp6l12zPs9K6d252SfOa254K5s+z30PTk5k5uyXPa6e11ZqdzvcGYUbFiJSvA/Y3dw7dh3WonFwCAItCokfLGjpUefNDJiF6edaz9Gg0bOjmlW6kMyMIxAUaSFZhVrx7bXwBpVaqqVZv29hiyXzauc3LzHcnO1pJF89S4yck6v0dPzfvpB/vWqa+MQwe1fu0qNT2lherUPdHJLT3KJSfb6+o1SshfUACAsik1VTr7bOXF07PVvLn9GvZrlQFlKiDbuGGtDuzbq9Zx3G476+zzVDmtStAYMdNjZnrOTMDWrkMntWzdTgvnzrIH+nts3rTBftjgtNZtVaXqCU6u7DFt5oGDG6/qbg+gNw8FmEH/oQbRZ2Vl2rddzWLGrH303uv2gwtPPXaPfas0nDUrf7YfbPjDjVfY7yNa5nOsWLbI7jlr0qxkdP0CAHC8KBMBmXmy8esvxuvZpx7VbXcPUKvT2zsl0WvQ6CQroGpnBV8L7MH7HqbHbPWKZWp7Rifvrc11a1bZvWIeJigyPWTtzuzsvR1otu/6/TUaMewJNTu1pf7+7jj9afBz9oB6M4h+6BMDwj6EMGniJ/rbkEftACsnN8cv+PNlfu5j992q8tZrDhryvBo0PMkpKZx5zb17dumj0a/r3Tde1q13Pqj6URwPAADiV2oDMs98XKbH6YxTalgBxT817KU39X+33m0HO7EyT0aaJyQ3rl+jvXuPDc4zPWantGilRo2bem9tmkH+27duscvN+LHlSxfZA+WbOOPHTKA16sVhdsD47sdf6S/DR+mSS/vo+pvv0Kh3x2voyH/qs0/e1+cTPrL397V18y/6Yfo3en/8VK3clmMfG/gAgWGeNH3+r4Ps9DMj3rBvl0bCTNth6q553WSd1aKO5v80U6+P/kyXXHa139gyAABQ9EptQFblhGq65vqb7SkvHnhsiD1Vw83XXqIXnx0c81xkhmf6C98xYqanzPSYmUCtRs3adp7pKTNPe661AkNj/7499i3N5q3aqFbtdDtv1fKlmj7tK1134632gwC+TNBogp9zz7tI//vmKzto8/XTzOn252vTvmPYAMkEY08M+KN2bN+qZ19+Wyc3P80pKZx5j6buzHLXg4/bn+O6y861b60y7QUAAMWr1AZkddLr6fd3PKDb731Mdw94Qu9++rVe+udH+vfH7+uDd/5h91jFqtkpLfzGiJleMNMbdroVVHmmwjA9ZWZqCPNUpflZ26x9TK9a69Pbe3uyzO3KtLQqfrcwfZ1QrbpatG6rTRvXafeuHU5uvnZndLYDwHD2799rT1NhgrGnnn01qmDMMOPETN2Z5cGBf9HYz6frsSef1cvPDdGk/3zq7AUAAIpDmRnUbwKerhdcoiuuuUFTvvy3tv66ySmJnmeMmJkE1gysN71HZooLMwbMo1qNmjqleSs76DLjyMw0GIes9entOzp75M+XlpJaWZUqVnJy/Jn3nFyunI4eParcgAAyve6JqlQpxdkK9vaokfr3p/+yn/g0Y97iZXrsLr3yt+rW/Tf66vPxQT12AACg6JSZgMwwtxubndrCnvQ0Oyv8E4mF8Y4RW7rQDqpML5gJesyAfw8TLLVs1cbexwRlZkqMwH3qW+mszAwdLuTriMzcZhVT/IOvlMqVCxwLd8/DT+iuBwfprVEjNOa91xJym9E8XWq+8cDcos3J4bYlAADFpUwFZObW4dpVK1Steg07qIqHGSNmbgf+9OP/nOkugr8KyfSGmV6xebO/t590NLcNq1Q5Nt2FmbPMvMbi+T85Of727TXjzhbYDwHUdMamRap8cnn1+8N9uu3Oh+zv4Bw/9r24gzLT0/fL+rX2+LIKFfy/pQAAABSdUhmQff3lhKAxV2as1+wfvtN/xo1R1wsuVq06dZ2S2HjGiH395Wf22DAz0N/0wPnyTJHxzVefa9uvm/3GmBnmlqb5eqex778Z9IXl5quevv3vF/bTjhdfeqVSK6c5JZEzY9X63/2wrrruJj3zxEP68t8fh50aw8PMc2bqL/DBB/N+/jv535oy6TN1635J3AEtAACIXKkMyFb9vESXnHOaPXnqG688ay8P3fl/uvPmPvbErr/9v/7e4MkEICZYMVNkmIH5kTJPU5peMRPkmXFgZqB/IM8UGT9Mn2pP2mqesPRleuruf/QpO/373/7Gfr8mYDSTvZrvuxz86N1WQDVA3S+6zN4nFiaQu+/Rwbq411X2638+/sNCg7Lp075Wr66n2/O2mbob9eJQ+/08fFc/9et/rxUgXuXsCQAAikOpDMiu+u1NuvGWu+y5wYb/ZaDeeHW4fbvuuVff1TMj31DNWnWcPWNnerpMj5dhBvibgf6BPFNkGOapzFATsprbmG98MNH+MnDzfk3g+PzQx+33+M7Hk3XrnQPimjfNMK/12FPP6eyuF2rIoPv0xWdjwwZlZuzbjb//o3r0ulJTv/6PXX9jR/9TNWrU0gefTdMDf3o6pt46AACilp4e+1cf1avnJMqGpCmZCwruTnHc1uNrTf3sYWcLAAC4rcdVz+utqZc4W4XrsaMEflfx2rXStm3ORoRMMNa0qbNRckytc2xC+WgRkAEAUEqViYCsDIknICtTT1kCAACURgRkAAAALiMgAwAAcBkBGQAAgMsIyAAAAFxGQAYAAOAyAjIAAACXEZABAAC4jIAMAADAZQRkAAAALiMgAwAAcBkBGQAAgMsIyAAAAFxGQAYAAOAyAjIAAACXEZABAAC4jIAMAADAZQRkAAAALiMgAwAAcBkBGQAAgMsIyAAAAFwWcUBWsVKysrKOOFsAAMBN5ppsrs3RyE3Kc1JItHjrNuKArEGjqlq7YYezBQAA3GSuyebaHI1DyblOCokWb91GHJC16lRTM2atcrYAAICbzDXZXJujsbsid7qKSrx1G3FA1rVnfY3/z1xt33nAyQEAAG4w12JzTTbX5mhsSTnspJBo8dZtxAFZeoPKuvSGJhoxarKTAwAA3GCuxeaabK7N0chIztHayhnOFhLF1Kmp23hEHJAZvfudotQ6OfrTXz6hpwwAgGJmrr3mGmyuxeaaHIt1aVn0lCWQqUtTp/FKmpK5IOrHAiaOXq0vx6zX1Vecqa6dT1Wzk+ooJaWCUwoAABLFPE1pBvCbMWPmNqXpGYs1GPPV9FCKmmVE18MGf6ZnLBHBmBFTQGZs35yhGZO3aNns3dr8ywFlH46vqw4AAAQzU1uYpynNAH4zZiza25QFqZyTrPpZlVQzu4LScsqpXF6SU4JQzNQW5mlKM4Df9IzFe5vSV8wBGQAAABIjqjFkAAAASDwCMgAAAJcRkAEAALiMgAwAAMBlBGQAAAAuIyADAABwGQEZAACAywjIAAAAXEZABgAA4DICMgAAAJcRkAEAALiMgAwAAMBlBGQAAAAuIyADAABwGQEZAACAywjIAAAAXEZABgAA4DICMgAAAJcRkAEAALiMgAwAAMBlBGQAAAAuIyADAABwGQEZAACAywjIAAAAXEZABgAA4DICMgAAAJcRkAEAALiMgAwAAMBlBGQAAAAuIyADAABwGQEZAACAywjIAAAAXEZABgAA4DICMgAAAJcRkAEAALiMgAwAAMBlBGQAAAAuIyADAABwGQEZAACAywjIAAAAXEZABgAA4DICMgAAAJcRkAEAALiMgAwAAMBlBGQAAAAuIyADAABwGQEZAACAywjIAAAAXEZABgAA4DICMgAAAJcRkAEAALiMgAwAAMBlBGQAAAAuIyADAABwGQEZAACAq6T/B+930JhyX+QrAAAAAElFTkSuQmCC;" vertex="1" parent="1">
                    <mxGeometry x="125" y="620" width="421.42" height="364.95" as="geometry"/>
                </mxCell>
                <mxCell id="30" value="" style="shape=image;verticalLabelPosition=bottom;labelBackgroundColor=default;verticalAlign=top;aspect=fixed;imageAspect=0;image=data:image/png,iVBORw0KGgoAAAANSUhEUgAAAmQAAAISCAYAAABiatNgAAAAAXNSR0IArs4c6QAAAARnQU1BAACxjwv8YQUAAAAJcEhZcwAADsMAAA7DAcdvqGQAAGScSURBVHhe7d0JYBbF3cfxXwhHQkDugFwCKiDIpQiooCJqwQPFo1h9xapU633gUbCK2ApVFLxa1HpiRVEBS1VQimhBBeS+5L4E5L5JQiDJu7PZ5+E5k+dKNgnfT7vu7Mzuk+eZIbv/zM7Ok9Ts+355AgAAgGvKOWsAAAC4hIAMAADAZQRkAAAALiMgAwAAcBkBGQAAgMsIyAAAAFxGQAYAAOAyAjIAAACXEZABAAC4jIAMAADAZQRkAAAALiMgAwAAcBkBGYCyKa8ULQgvVH2V5AXhhaqvkrCUEARkAEqXUCfUUEtpEur9h1rKklCfL9RS2oT6DKGWsiTU5wu1lFSh3muopYgRkAEo+YrxpFiilfZ6KO3vP5FKe12U9vcfiyL+zARkAEqmIj75lXqlpX5Ky/t0U2mpH9rymCKoi6Rm3/ejagGULM5Z6YSKaWpR4yQ1TKutapWqqny55PyC49jR3BztO3xAmw7t1Io9G7Q/+1B+QVL+qsTwubLQjqGFbUujhLbn8d6WRfn7R0AGoOTwORt1qNNcZ6a3dLYQztztyzV/x0pny+L2hTzgikI7Rq7EtaXB72SBEtlmyTVua/eUkwaA4hfiT8LzGrRXm1onO1soSP202qpSMVUbDmx1chzFfTGnHeNGW5Y+YdvMiLLdGEMGwD0hTvzmr/Dm1Rs7W4iEqS9Tb35M3Yao3yJBOyZM2LYsLrRl1EK2mRFluxGQAXBHiJOVGZ/CLZHYmHoz9RekqC/mtGPChWxLU8+0ZYmViN8/AjIAxS/MScoMFkbswtZfUV3IacciQ1uWPvG2GQEZgOJVwMnJPLmF2BVYf4m+kNOORYq2LH3ibTMCMgDFp5CTknmMHrErtP4SdSGnHYscbVn6xNtmBGQAikdhF5DcPOanipNdf1Y9FijeCzntWCxoy9In3jYjIANQ9Ao78efFe2WBn8LqM9bqph2LX1HVKW1ZdGL8/SMgA1C0Ijnxc+5PLFOfib6g0o7uKKwtY6nzwo6hLeNj6q6w378QxQRkEdmhveeO1lq/5Vsd3O4UA4hNooMG+Ev0hTwc2rHoFdaWiWoC2jJxoqzL6AOypYsDApP8ZevEg84OBcuZ8m3QsdumZDqlAMqUgs5HnpMV5/+i4anXRFxgaUd30ZalTyRtFlCUsB6yjGfn6OCvzgYAFCTUSSoRFxtEV49m18J2L6icdixa0dYlbem+aOvRpyiBtyw3atebG5XjbAE4znEuLzlivbAWdFiJuFjv1cJbrtWgW6brgJNT5hVFW8JdTtskdAxZzuRZ2vN9trMFACEk+EK+cbh1Qa4xXAu3OBkhHYcX7kAR/pUer4Q07+HFmtLCtOtQzVnr5OGYRLdlQn8nV2pajRL0u3Z4nWb07q9hvSerwFNEUYugjhM8qD9T+59dpEyGhAHHt3DnngJOSgm9JhzHiqUei/iHHJ29RHPq9lSXq+Zp4fTj9+kpt9uS38noFVhnhVRoggMyy65l2v3BDnpHARTOOVFw4k8sb30G1mtRVXRC2/GQ1nw2TrriPHW5oI3WvDXT3Z6NWB1ep4WDR+m1l1c6GbGJqS3jaQfn2KL6p1LsKjVV14lvauDEnqrvZBW1sG1WiMQHZJbD78zRvuWMJgPgo8yc4Y9zYdoxYc27a4mWvl1dXbo3V3q3rjp58XStXeyUlSa7NmnJy1O18bCzXRIVdVsex8LWYQGVm5CALK1/B6U56Xw7tHvECsX97zAnW0eWbtSBMXO044Gv9UvvY1NlbLz9a217foUyNoQas7Zb+37vP7WGWcJPr5GjzL8H77/1i8im8shdu1H7nv9WW/o6x/b+t34dulgHlxZy7zY7U4dnrtP+N2dp2wOTtNH7sz/RL/d+rR3vrFPW9gIC21BTkDyxzn6wIu/Xzdo31FNnn2jHd9xHRjGJ8mTuPT9xFUgMpx6jviAEZsfaHHG244Fv/6c56b10ckdro1kbteu+TtMnLNbR/OLjS6xtGciltjwuxVpn1mGJ6SFr2FTV76vjbDiWztGeCOcmCyV35hxtPO8j/XL7t9rx92U68NNWHdnlFFqOLt2qQxNmaesNH2nLyM0Bv6w1ldKrppM+5tDC3cp10n6ydyhjjJP2aqwqZ1Vx0mFYAWPW+1bQc9O32jVho7I2Ofm79inzi/nafvsnId5bviMTvtaG7p9o84Dp2vnOCh36aYfPfpk6Mm+rDrw5XVv6jNfWsbuj+n3KtQK1X6+dql1feOosU7k8a4ESyHvucvnEn/XzLE27Z4hetAeSW8uZg/TBgMlaE2r40pxx9j7T5ljpjfOs4wZpuHPM+JdXKit/Lx2YPlHjL77L+3q+ZX6O7tWaN97Ue+f09/vZG33Od1Er5vr0/rjckGfYKGzXio9mqeqNzZ3bS+k6+co2OvDBEm2I4C98vzpv8YDeK6genXr/wLN/jf56sfcoTft8U1A7HRg33N7HbvMgziD24Z5bk85265e01GwOHeS8/rX6YNxee4+olNq2jFAU7eC1b5OWDh+l187Mr9dh57xk7390y3R9EFTPoR/oyX8YaJw2WumsmZM18XcPaJj5+eZ3dfg87YnnLwCn7qJtugTdskxWpT6dVbO1s+mIZ26yvAMHI/6LKOvTqdr+jv+4tUrntlSqk/aa8KsOhwpMVu1QUOh4WTNVTnfSYWR9MFVbXtta4FQf9nt7Pzigytlb8HHHZCrj5anaMSXC4DZnu/a9ND/8P2TADYWdmYr5onPMEW35x1CNPGe4Zs6rruYD7tfNn9yv3pfX1Y7P39RbLQZZF+Ejzr7+jq6ZrrHXT1Vm21665NVr1LHBds0ZPEjvjlyp7eNe0qsPrFDKdb9TX6usS7O9Ttk6//PaoXWacdPDeuuFJUq5+Fr1/eQRXX1NI2VZP/s16yKzNNbBU059hq3WQtvDWQeKpJ0i2CWstYu18L/V1bF7S5V3smqY25bbx2nptENOTmh7PHV+xTW68f071f3ydG1/26rHS0YF16MVSE/s1V9vPTZPR9t209XvD9aNr/ZQs0qLNeWmBzTyj9O1x9k1etVVf0g/Xfpgt/yg8qKeutRsW0uLkyrYe0Ql1rYsrB0iacuiFks7bLR+7zo9oA+GLlbVy/tZxzyiiy9P08bBT2ncB55ekUhl2/9uRt69WOW7X6Peb/ZX17bW7+rQoXrNek9Fdh0NU/eJG0NWsaaq3dNGlZzNfImYmyxVFc5toep3d1SdoZfoxBe6qfYNTVWhllPsyHpzjg74Ph7dsJ6qnOWkvdbp8Con6ePwkg1B77HqufUKqZyN2j9hh5MuWNZr83Uw7L+TKkq5rJVq3d1Z6S9Yn2/oOarep4H3ZJQvUwdfWaqMSGKy71Zov/1nGeCCeM7xcV0fZmls6/y/lkMv/TX2M2dXH0enf6r3Hp+nGg8O1oM/3K9Lb++mFhd1U5ch9+uBHware8eVmnLjp1oTondm2pPz1PKjR+xj2t34O109caiuvsg6Mzz9nN4aKl064VhZ70+ecsqm+/T0HNHGf/xDX24+Tzf/8KL6Dumpdhd1VsdBd+q2KfernaZr4psx3Kor5uus99qSgAv8ls8na026dUHu5BO4NGumFm2kmZ8vCX+B/OE9jZ1yhv44y6rz+3qo9eU9dPELg3TvpN+p8dqpAfVoBc4DhmrmRisAmP2Sbn7hd+p4eRu1ttvpJT3wYjdp7Eua+EGsT3emq8V9vdW1/xmqYTY7naeuZttaOnb0H9xTqES0ZTyvUaT/lmJpB3PMS1qobuq78B+6cYhVp5eb35n+uvmbR5X+tRW4O3tGZpzGft5Ct/0v/3e19TVW8PzOU+p7lXTg7claEsuUK3HUWeICMktS27aqeYN/v1TMc5NVrKJqg3rppGnXqdFzna3XbaWq59dTapemOuHubmo4rINSnF3z7dCBn3Y7aaOKUi9u4KQ9MnVoie8+xkFl/xiY10pVzq7opAuSqsr39VKT//VTs+/Ncr0aPdUi4H0Zm7X/e/+fkVS5qWq9cKV17NWqP6ijqt3QQlW6WJ/v/FNU8+Eeqv9UUyU7+9p2rVDGwkjrsY5OeOryY+/rv1erVrtIPg9QfBJ5IZeaqt2D+b0QoZdr1M66qPs7pBVjx+lAem9dPKBN8O9trTbqdn8P6xoQunem/t291a6xs2FL18nXdrbWe5V+3++Cyup3b2qtF+tXz52tfYu1YOg6dXz0GrUI+ANTjbuo4/XWReGDldYlKEZOvUZVvYloipit09pP10nXn66T/P6yb6pm11t198H/tCJcj+H2Zur+aDfV8P9LVildeqrbjVY9jpx/LBBePFMz/yu1GGQFAKcG9lhVUPrNvdXN+rey4vUS9HRnLG0ZA+/rF/UPMmJpB88xTwb+flmqNVe3Qb2djUg11aUP9VS6X5xsBdR9e1rredq+IXTveERiaLOEBmTm1mXq/52jE/xOLmZusvnK2OdsRij5/I6qdVkdJYeJI5JaN1Daqc6G4/AvmX5jxMq3O0mVnbTHYSv48vuLc/sOZfzkpB3JNzVUSgTxS6VbLlDdvnVUzhs5VVSFizur1t3B49cOL9zn93Mr9e2mal2q+Rzrr/zZzQIelLBeY1Nkty3Tnuim2hfXPPbaqVVUPj3MDwKKWiRnpLjP/+lq2T+/FyL00kstT3Z29dqs7R9Yq+s76KQwHRcpbU+XGYmx9OfgsKhx8+AxDeWdgKBxi+CyqnVN3jod8QQGq9ZpprWac9PNIXr0fqe3XrYKrR8bdQ+ZURTX0yJux6PTZ2r6YqnrBcduV3rU72Zu/83SgmlhwtP0FqrfzEn7SVP9s0wkvk0HnbFkB1ausC7wbdS6W7gxKU3V2FyPF6/Tnpij4RKuWH4nCxZLO+Qf01Qntw19TPkWTe3f18i1UJ3AwM6SUtvu29Se3QXfJg8rkroL0QYJDsgs1RqoxgPBvTs7/rU15vbNO5ipI0u3KmPKCu1znrj89fZvtSvw9uO+bP+f0bCe0ro4aY+fNinL55cs9+dfrb+TfaWqaqc6SnK2wqunE3qG3q/SeSHGr30Xfkxc3sGDOjxvqw59sUz77Ccurc935w/a75R7HM6I5OZvK51wYSEPIwCQtmzL/8u7SqWgAMDLKThwNPgv5aq1w99+8gRmBTmwIf9+SItbQ/XoeZamqmrvVQTCXZSjOFF7X8LvtaJ4Aa8j2jBtqj3oesbVvwsOUM8bbbfVinGLQ4/tOic9bD2Vr+L/Z/metbOs/1ZWheBbGcfYHTbZOhpTNJxgkVRnJAFWpOJuy8jE0g4HNq6w/mu1dWCPcsxqKLWak0wYnzqLsl0SH5BZki/sqNo9A25dWoHUnkXRjCbL1pHvFmv7TZ9o3W8+0S+3f62tT83SLueJy8ylkfQWVVHqhYG3LTcqa5Xn1l+2sn5a7aQdtVqq8hmR9CadqAoNnWSghtUCxtKFkJOpzE9naWvf0dbnG6/N936tbUPnaJf9xKX1+dbGOE3FhbVUkbuTKOESdyGPQ/261qndcvBwob1Q9dMCb6nEr2qD/BNIjYt7hOjR8yzOOKSoBF8QorwuxCaen7FvsZaO3Os3AD5w6d63qTRtspntJ5j1x3i4Nsy/8Ff0BslVG5vbyhk6UuiI7RpKiWTI1+HDKrpJheJsuCgOL5Z/Iz5iaYfUmo3yE+Eae9eeOB7GKDqR1m2RBGSmlymtf8eAW267tffVFTocUUx2UIeGfq5fBs3XwVgDE0f5s4Jv/e1f4Dz1mL1bmRPsLK9K1zcIMQYsegVWbOYO7X3gc/06coUyon0oBChrivlCcEy60q+yVh+Fn1Iha94SLVV1tWgT7q+vOKSny9xFXTp7bWy3JcuQrOmz7Nu3Xe+6OURQmr9cfLe5bblOC6atyz/Il5W3PeTdpXXa+B9r1f101XfuctU4uZmqygoAfwx3P9I55qKmSnd6T6qelH8/dPumENNWrFynYvm6zVgiplh/t4rhdzKWdkitazpYZmnNotC3EvcsWpLf610SxFCHRRSQWU5sqlqPBfROLZ2jfZMLH5ieM2WOtgVMylr+wlb2U5YNPr1eTb66Uc2+v07pFzqFBUmvp7TA/cZsUpZ5G0HTXdRUlbOCx39FbfvBAibFzVHWR7O0e55voJmq1N4dlf5CLzWa6Pl8vax3A5QirgVWsbICrb49VXX7OE15dnHwE3z7VurHl6ZKHXurdbfE95Cp2ZnqaJ7mGvmhps8MvsBkzZ+oOfOdjVgksj0KCgb8ymL5oXu1YpxVz+qtFucUUM9t2qh9G2nL32eGeOp1sqb9I3CetyPa/van+nKx1PrGM4/1NHY8Q906Siue/lBzVgXfit4zdqKmL66uLrd1OXaMFc2ZsUkLP5gb0AOzXQv/PjF0EJCWln8bdevB+KdP8KnW4u7JKjIxtENK987qbgXWc54bpxWB88ttnK6vR6wtulv8xaDoAjJL+d4dVCtghF3mT1udVDgHlfGFmarNR5dzVP8vHe2nLCudWFHlqphbijnKi+ir5FNV+aJTnLTHOh22/qQJmu7irJZBDwqEl6HcMHdN8zbsChiXZjm/Sv5wlOwdOvSm/xOXyTd0U73HWqlKlzqqUMv5fNk5cU4XAqAwKT1v1o2DmmvjyCEaec5L+vLlqVr63+maOfglvdhpkKbs7qEb3+pdRN+BV13thtyvdukrNaXX/XrrgQ81c9w8Lf1gor7s/4BGXjjRbyLLMmvtXC0wU5Lc1yHg6cpATdX6Nisi2z5Va2cHXMAvv0Yt1jynV657U1M+mJVfh7fcrxcHzFKNGx/RpddUd3Y0mqrrW/nTiozvdL/eG+Cp9w818bq7NPyPi5X+5KO6tKfPvZX6XdTN+nei/47Sa71HOT/jQ43v/ZSWdPuduju7+anWUPUvstZvv6lxg6dq4bhxmvZ5DBPDuibOyG/NPM18eaJmBC3znKA2hnao1EZdXuihGosn6r1zhmj8UJ/f14snKX3QtQoxRt8FsdVdkQZkpsfphIcCp6coTKZyAp561OnVggfdbtqqQ4H7hVGufcOAqDlTmSs3Bk13UfnieuEH9wZZoQMzQkVkmTo0cZmTPqZSO+cz7M0Muj2R0rxa0MMBeUt+DZ6sFihtirRnJREqqPEjQzVwYn+1brFNSweP0gfXvaRpUw6p2YBBeuSbO9W6KM/wjbup7+wXraDwTB2ZPk4T+w/VB09/o19TuunSKc+rewdnv6gVfX2Gbdoof/Se6TOss6n1d/fZzQo9/9qTxGqvpn0W0KNZvqE6vvq8ru52RGtGDNcH94zW0k1tdPH7L+reVzsf6+ny8NZ7Gx39cWp+vd8zXVvq9lBfq95ve7B5wHsx/04e1x+H9FD6zrmads9wTfz7OqXcPEh9b2wU5n2nq+NrQ61gsKI2vjxKY4fO1dGUIuhpTaREdr8tnq5pg0fry6Bl3bE/NKJuB6nq5Xfq3h/uV9cz9mjFcPP7+qEW7Gqoiz8fou5nBQ5QKgGiqNOkZt/3i64FzPcn3u7fj5721HWqe3HQc4WOHGW9OUlb3gmc6+sY/+N3aO+5k+S3d+uOajCqlSp5xtrnHNTBoZO0fXLA+LILu+mkvwQ84WnL1qGhH2nbF86m0fsUVZ242ucv0AaqM7aHqoYcKhLiPdnqqPoLF6hGl9T8gCo7Uxlvf6ut7wdOGFtTtd69XNVM79v2ddrWZ7pfD1pynwvU8OHGx973QevnPWT9vMAZ7vr3UrNbfL6iKkRbhK8DoIiFOpOEORnZ2eY/9tosufb6D2dcbYoRh3/OH5+fSLL+3jYnJntJMv8PFjIzhBDt6M0yCc98Q7RjQgW1Zbn89oq4LU0bhdo3oD392tKk7aUUtuXMDzWo1zh1+fA99fbtWStG/5xntZmp84DfPyOoiQIyiriHzEhWyo0dVS3ix1RTlRw4w/7SOdr6+6na+eYy7fv7D9pyw/jgYKxAFZV6bsBtS79gzHJhM1WOetyuFTgN+ETrPF/s3f2TEMGYVQM926qK51Zo9dSgiD9nwrfafPsP2jVmmXY/P1W/3BAiGAPKiIBrARItTP2GrHcao3ShvQpwRBunz7PWbVS/eQnsKYtAMQRkltR6qvFYiwh7bULNsG8FLWs3a/87c6ygZbX9Jd7JPZsGPT1ZkHJnnqQTnHQoVS9qEGWvkhU4RhJk1mqqWv19er8q1lHlm4J7E48uXW0Fm3O0d8Jm+wvBU6zPF67PEQCKDNd8lFh7tfTlqdoeYqL5rJkT9eXQdarat6dahJwkuOQrnoDMUu7cDqrTJ7IQo/xlnVX3svCTmyaf0UF1H25Z+FxfvqpYgVAfJx3kFFVuH+3kXXVU668XhLnF6WjdQnVf76YqJzrbtmSl3nyBap4Rvi7KX3aB0vs3LL7GAQDAKOEB+dH5o/Rik7vshwA8DwrYD8H0+lAbO/bU1YM6l5wnLaOsy2K85ldU5X6dVSWiW5dVlDbocjUa2kFVz6jm7V0q3/oU1Xyqlxq+2EYpUXcfVVTK2S2cdIAbmqlyLLP11musOm9dqbr9T1FqM88bqqKUC1uolvU+TxrVWWl+wZgjtY6qv3i5TnywhdJaewLP/C9Rr/3C1Wo4qLHKMwgMpUmsJ3HPcSEHxSBmbtUn7ZhY5vcj1joN9zsZ6W3PEtmW1dX6mcG6+r78hwDyHxKYqJXbW6jdq4M1cFJ/tSgJj1lGWncBbRH9oH4ACBTFyd+bZRImbW9b/8nN0y3tr1T5cF/wikIdzc3ROwv+bf2pbS4I1uKsPBeIkNeJwEzTHoH7FdaO3i8Rph0TxW7LhVZb2u1jLc7KbEfcjkaofQPak7ZMjKDfP8N0ezltE9RuARncFQNQYuzNOi5m3ioyJaX+aMf4uVaHAUEDbRm5oLoKDMAKQUAGIH5Rnni8Ao7bfCDc16ggEkH151O/IXtVEiWwHffTjvEqqC0jEmt705YxC6qrKNuAgAxAsSooMFi+M8T3FCJidv3FeiFOINoxfiHrsEij6tCW76ItIxVvXRGQASgZrGvN/sOHNGdL8DddoHCm3kz9xS2Wa37AMfuzacd4+LeluxE2v5ORScTvHwEZgKJT0F/0YcrmbVmuFTv4qzwapr5MvR3jU7fF3avi/DjaMTYrdq4PaMuiF/afCG0ZEb/fvzB1GcmvYXKN29o95aQBIHYRnHBCsp/wsg42x1tps1q/51fl5eWp/gnpphAFmLNpqWZuXpJ/wjeL7xNedjI/HfKCEMlVIoygQz1P6pkC2jEmdltustrS01WSiLYMkx2S5zX4nYxYfpstttrMqa842oxpLwAkTqizifeZ+mO8WSZh0va29Z/c/ALzNXrKzdUJlaqoZZ0manhCXVVPPUHlk3n8/mhOjvZm7tem/du0fMd67T980LoIlAu+iDuraC4IBYq2Hc3/zTbtGFaBbeltO2vxtG20bWnqP9S+tGXMwraZqWezxPH7R0AGIHFCnU0KO/kb9txHnrS1Nv+3107arJ18T573WLPpJG0+G375JVDQSdonw056Ns2Gve2srZN+kk+e/1/nhrWO9SIeTojK9GaZhEnb2550/trTjnaQbTI87WjWdpaz7SS9fDb88kuooKr0ybCTnk2zYW876yjb0uwaUqgCkxWq7kJUqDfLk/C0l9k0eeb/ZfB30q/afDbspGfTbNjbzjpcm3nyzH9i+P0jIAOQOKHOJmHOwHa2p8w37TnJW/wu5vkH5Jd5F/MfJx3IU+YjRFaxi+TEbPNkmTKT9i75Z/r8XhTnYmBnWIudthZn5XndkD/TCPdzo61P33bwpH0u1naWWRfUjmYdir3/MQGbrgpZr+Hq1F5bCe+F2iwh2tKzb2luS8NZ+fGU+QiRVaRC1l+4urPXVsKkPYv5j5XnbTM73+RZa+/vorPtSR9b+QvIJCADkDgRnoQNb7ZJmLS97UkfW3v28/3r3LuvvfKs81c237QtKKMECDhD+2560t4TtrU2SXs5FoTZxeY/vuuAfe2c/FWwUAUmK1R1eeo5gDc7sG3M2rSZvZnfjva+noTdA2Mc2yd/nb+y+aZtQRklREA9+m560t66ttYmaS9h2tJzYTcb3gAuP8/7Mr5CZlpMdqgq89R1AG+23UZmbW846WNrz36l+3cyoM58Nz1pb71aa5O0l6L7/SMgA5A44c4mnhO0D2+W78nbN+1zMTdyPRdws20vzrbhOc7wzTcCt8OKeMdChDv7hhC4q2c78AxuNu0Tfv5f5N5iT8JcIHzzAsq9+/sKmWkx2aGqwreOfXizfdvEk2lWnou2w68dPW3s4bOf33sI2K1gUe1ciDB1FErgrp7twHo2m3YbudiWhm9dO7xZnoRZ+aaL/XfSiGpnS5i6CCVwV99t3zo1Sbst8vPKBQTJiWozAjIAiRPubOJ7cnZ4szwJ321v2lq8Z/1ju/oe480zfDd880PxO7CIhTwjOwKLfPa1k55NJ9/vpcyVwVtuFmfDJ+23v69wBSY7XNWEqDNvlifhu+1NW0u4dnTS3jzDd8M3P5DfQcUkbIVafIsC9rM3PVnWRtDLeNrSZ5/89bF00DEe4QpMdrgqClF33ixPwnfbm7aWWH8njYBNP4H7JkrYirMEFvnsayc9m06+30sV9Ptnr/MTfsd4hMgkIAOQWKHOKGFOtN5sT8JeWf8xa89imHJnn9DHhODdMUC4/YtDqBOzEfKMbfFkB57YTcJePNvOYv7jzctPeI8JFK7AZEdZp35t4t3FSXsWwy7P3/A7xl7nr4J4dwwQbv/iEku92uv8hHc3k7AXz7ZZnA1vXn7Ce0ygcAUmO8p69WsX7y5O2rMYdnn+ht8x9jp/FcS7Y4Bw+ydaLPVnr/MT3t1MwrNhVp7Fc4C9nZ/2HhMoRAEBGYDEiuJkHP5E7iTMH+KB+1j8Xsrz17pvXkFCvI9iE/bsHMCzm3NvJOgwT4ZZeW6fhLgYGCF/ZLj34ckOV0Vh6s6b7Ul4d7MSJu1ZDJ/X8Dsu6NhC+LyOK8LVYSDPbnG2ZdgfF67Ak11QNYWoQ782sdf5K28izO+k4d0sqb+TYSsxgGe3WNvMXucnQv7IMO+DgAxAYoU7o4Q56XqzPQnvblbCk/bcIQl4Db9N3w3/3Y4JON4VYU7G3hO54bNP0O6eDHMh8JY5Cc+2s0+4HxW2wDc7yjr0ZnsS9so3bSmsHQNfO2DTK3A/N4StXItvkc9+QYd4MkpFWxpWwpMurW0ZSX0Z4erdk+EJxOxNJ8+zb7hjPcIUEJABSLxQZ5UwJ16/bM+GvfJN+66thCftCPkaoRRQVGwiPEkHnbPNtifTU2avA/PyE2HO+QUUWHyLwtVVmPoNagPvtpPwbHvXvvvkC3qNcAooKlYR1nFQlXueovTke8sD8/MTtGUCFVBlvvUZVLVm25PpKfPu45Nf0Gt4hCkgIAOQeOHOKmFOzN5sT8K7W+C2JXDfAGHP/WELXBDuhFzYCdxT7t3P5wCT9HmBQl8rFN+igqqrsLr3JLy7BWx78y2FvVagsAUuCVOfhda/p9y7X2C+t6Dw1woUmF1QlRVW/56Ed7fAbUvgvgHCNlnYgiIWpt4KrWffcm86oMzZt9DXCoGADEDixXAC9hZ5Et5dfY7x7uOsjQhO6m6d9wtSwHn5GN+dPElvVqiy/ESBrx2uMFR2uHqjHb0iakcj0W1Z0A8OVRSu7o7Ttoyo3QpsM8PZ8JblJwp87XCFVjYBGYCiEe7MEtMFwAiR51ducfssnwiBJ2zPpl+2z4a3PD8R08XACFVUUHWGqWu/7OO5HY1o2tI3j7Z0T7g2M7xpn0xP0ue4sE1TSJt5nw8AgBLDc+IyK+85LESeJ+3dthKhlpIo1Ps0i10WYrH5bPjmO8d5Dg+poMJwRQW9Xhh+P8b383j55HnyPWnvtpUIXEqyUO/XLHZZiMXms+HNszjHeQ4PqaDCcEUxvJ5ftmfDrLz5IfI8ae+2lQhcSopw782sPIvhm/Yk/Mq9hb5Jf2ELLE4RPWQAikZBZ5YC/moO+Ve54XdIwPHhX67gMrcVcI4OLvPJ8CQjuRB4RHBBCKnAug1fmNB2DJdfkhRUh35lATt6NhPRloUdV1A9Hq9tGa7OgvJ9MnzLIm23ggqdInrIABSNGE9Opshb7LthVp5870ZAWUC2LVRZSVmMUPlmsQVk+Jb51KFPMrSCdij0WGcdSgGva4q8xb4bZuXJ924ElAVkh8wvaYtH2DK/Df9Nn3r0SYZW6A4FKOjQAl7XFHmLfTfMypPv3QgoC8gOme/mYoTLD8zwLfOpB98qCamgQp8iAjIA7ijwDBZQ7HvGMyu/Qz0ZAQWB2SV18ROm0HfTty4sfvUUSkE7FHZsJAp5A37Fvhsm6XeoJyOgIDC7pC9eIQoCNu368KmTQqqy4B0KOzYShbwBv2Kz4ckwK79DPRkBBYHZJWXxClPgu+n7uS1+dRJKoTscQ0AGoOjEebIKOPf5Z5iV7+IVWBDJUhRC/ZzCFkeo7IDKCNgMraAdCjvWVzw/x+JX7Hnjnkyz8l28AgsiWYpKqJ9V2OIIkeX3+S0Bm6EVukOE4vw5Qe/VN8OsfBevwIJIlniFes3CFkeo7IAPHrAZWmE7BBQTkAEoWvGetCxBJz9Phm+mSYZbChXqoHiXQoQ6xLN4hPicgR87rIJ2iuT4QIUdU8ib8rxvv91CZZpkuKVQoQ5KxFKAULv7Lobv5/T5rAGb4RW2UySv4auw/SN4U0Hv3ZPhm2mS4ZZChToomqUQoQ7xLB4hPlPgRwyrsJ1CFBOQASh6hZ3AIjrD5e8WtKsn03cJZLJK2hKokM8RIiu8iHdMsAh/bsjP4sn0XQKZrJK2BIrgc4TJDq2wHSN9nUCFHRfhGwz5WTyZvksgk+XmEqiQ9xwiK7zCdgxTzFOWAIpHJGeaAp70KkiMh5VoEZ/8A0VyYKyvbRRRO5bFNvQosraMpx2NImpLo7S3pxu/f0lTMheU4V8DACVJXqRn6QL2i/ZEH/HPdEFSlGf9AneP8LWi/Zmh0I7+YqlT2tJ9Je33j4AMQLFKxAXAVwk5txeJiM7xUVxUEnEB90hkO5blNvRVaPWXgbY0ykp7RlzFEe5YWJsxhgxAsYr4QmL28ywF8N3NdylNQr1/sxQoop3ymTpP5AXciLodC+DZJdRS2oT6DJ4lrEJ3OKZEtGUh+/vu5ruUVKHeq1kKFPGO+SKpY3rIALgm6lsXx0tXSjgRnvw9En3hDiXm20+0pZOIXIlsz+OtHYvwd5AeMgCuifoCY/YPXMqyOD5rcVy8DfNzYvpZns9UTO/Tdb6fN4bPXJztGRXfz+RZyoo4P1u0dUlABsBVcV9ofE+WgUtpEOp9e5YYFdfF21dcP9P3M4daSotQ792zxMjUa3G353H1OxnqPXqWOMRSh9yyBFBixHz7C17FffEOhXZMDNqy9ImnzeghA1BimJOZZ0HkSlq90YbxKYltSXuGl6g6IiADUCIl6iRXFvnWTUmun5L+/kqa0tKeJf19FrWiqgcCMgAlXlGdAEuT0vz5fd97af0MiVYW6qQ0v/doFcdnJSADUOr4nhx9l7Ig1OcyS1kT6jN6lrIi1GfzLGVNqM9oltIm1GcwS3FgUD8AAIDL6CEDAABwGQEZAACAywjIAAAAXEZABgAA4DICMgAAAJcRkAEAALiMgAwAAMBlBGQAAAAuIyADAABwGQEZAACAywjIAAAAXEZABgAA4DICMgAAAJcRkAEAALiMgAwAAMBlBGQAAAAuIyADAABwGQEZAACAywjIAAAAXEZABgAA4DICMgAAAJcRkAEoBjv1zY3tdXGq/zJmtlNcBhz8YbRGnH+Z/bn6dhyoMV9tdkoAoHBJUzIX5DlpACXSIo1J7ad3nK143PLdAt3QydkoViYgu0jDxjubDvfej7/dHw9Q35unOluOJ0drysC2zkYh1kzQ46cPkX982VJ3zPpI10b4EgCOb/SQAUC8du0KCMaM5Vq6fKeTBoCCEZABQLwaNFBXJ3lMW7VuWdtJJ9JhHVwxW9+MHKYh54/WMicXQOlGQAYA8WrQSwO+H6henRrYmzVb99Itnw9L7O3KfYv06R39dFNqZ/Vpf7uGDRqrGbOznUIApR1jyIBSIHvfAYW69O4e95Ruuztg7FPvwXrrjYtU09n0VTGtqiqWdzaKVRkfQ1YcNk/SkFMGaoazme8evZTZX62cLQClFz1kQClQsVpVVQm1VHF28FU+JfS+1uJOMAYAKAwBGQAAgMsIyIDj1dED2vjVBL1z/wA90vGiY/ODNemjRy4fotdHz9DGXc6+ETi4aKo+tV7r/tM984xdpvvveFPfzI79ScPszYv0zT9GaMTlZuyU53Xb66bzb9eQ+0fbr10yRlGZqUmOvb/8ZYC+CTkV2WHtnj3JrqtHnHnL7MWu9wF65ekJmrH0gLOvz/xtQbcrjVd1v/fnWcuwRU4+gNKGgAw4Du3+brSGtO+m264aojFvTNWCpT5B07Z1WjB1gj694x7d1vAiPfL0DO0+6pSFtFmzH71dt3UeoNet11q2xsm28peNflXDzr9ewz7e4uRFaN86fWO95k2n9NOwAaM1aeoibXWKjK2zZ2vGGyOs175Il50+RJO8AUwJt2GqXu95mfqeP9CuqwWzfSI2u96nauKwIRoy1KpzJxvA8YGADDiuHNbqV+7RnT1HaIY3cCrITi0YZu1/xyS/gOiYzfrmtpv1+CuzCwggduqbmx/S6987m4XZMEOv9O6jYQW+po81EzSi490aM/uwk1FCbZ5qBZAD9Ol3zE0GIBgBGXAcOfjFCD3+aPS9L7vHDNSwYYuCbg/u/niEho2JJMDYqd3bnGSBluvTfvdoYtRfqbRI7/z2KX2zwdksgZaNHqZvAuvg5K7qPXCwBk9+VQNf6K/elzUNejq2SoNOat/DWs4PLpMaqJUp8yzVKjr5AEobAjLguLFck58eGxSM1bzsHg1fPUtTMhfkL3v+q+FPdw26+C97+g1N9e1Vy5qtfz8aMFWExX699c5rWcuEOcPUO8KpLQ5OHKvXg4Kxtur93keacMDnNWeFeM1tk/T6W7NLyJiyQJu14fvAwLWT7h33qu59so+6nt9VF951j+79dILGrn9Dd5zuCaxqq9Nzb2j459by1u0hprfooztMmWe5q6WTD6C0ISADjhPZ3/1XnwSO+W7bX4Pf7a/2DSo5GZaU2mr/yAsa+GDgLPMzNPHL5U7aer1ZszU5sMenbj8NNK9X19m2VGndS/e+PdgKPwqzWdPfnuCkj+n61jDd+9uWquIzZUeVtqFfc/fwqVqwz9koUQ7o0A4n6bVWSxeGGPVft5OuHdgj5DxyAMouAjLgOLFx9mdBvWPt7+ijVqHmMlMltb/q+qCgYPXMdd7X2Lgo+NbnKfdfqvahXu/kTurR20mHs225FnzlpL366cqr82e/D3JyN/W42kl7jdXqFU6yRGmgxl2cpJcZW3eZbrpxhCZ9tU4Hs5xsAMclAjLguHBAuzcFj/Vq1TJMsGM0aBB8i2z8Zmdw/2Ed/PVYb5lH+7ZNnVSgBqrX3kmGs22zNjpJr96nqV6Kkw5SW/VOd5I+Vq0viYPmq6p9734he722jh+tEVf1UZ8al+nxQRO0LKKxdgDKGgIy4LhgBVAh4pRKMc/cbwV4IQbQV63qc+szWlnZWu0kvaz3V1aGqVfscbeGv95H9ZztYJs1e+QQ3d/5dr0ztZRM4wEgYQjIgONExRA9TYcLnF8shLqxBkgHdDD0vBnHWMFXUA+S9f6iHaRfcr8eqpIa9xus99e/oXtv7xo+MNs2W2MuH6hJEU1LAqCsICADjgu1Va9l4CB9adnykFPJ27KX/xw8M3wPz9QL1uu1sBN+Vq0O93qbtXGmkwynQVMF3dWc+LO2hh1bZZ5cdJJetXVSk+DPWaLU7aTeL72q9/dM11uTh+mW34aazmKGvvkufNsAKHsIyIDjROMzLnVSxyx4fZKWhQx4DmjBxC+d9DGdzm/pDR5qNgx+bnLG61ODbztasqd+GfyEZ6C6LdW+h5P2Gq1/TwwzJmzRVE0OnHWj7lVqFTw3RMmUUlWNz++lG96boLc+Cx5ftmBbJN9btV/ZPAwAlAkEZMBxouK5XXWDz3QUtkWvatj9E7Ta99qftVMLhg/UC28EBkJ91OuyYw8B1OvYVac4aa/ZI/TKgEna6DP1xO7v3tSQ20ZHMBltA3X4bVcnfcyMRwfpna/8v7Py4KJJeuXeEVrmbHuccv9Fah/2IYAoZe7XwX0HClyyI77lu1wT7x6rBZtDf5tAlRNrBwVkNcsH3By2toNvF3+pSePpSQPKgqQpmQvynDSAUmb3xwPU9+aAbqKrh2nsB71C3Aaz9h8/UHfeOCmC4ChYp79/oWdu9X0q03zx9UUaNt7ZjMEt3y3QDb4dbVnLNeY31+udqGfqt9Ttp+FLHgo97UYhQtZjBI69f/Pl4v30jp3r0UMDV7+gC+0qO1Zer1Mfdb2qqRqf3FInarNWz5ytSWOsINbv6craumHyF7rlfN+HJJbr087X6/WCehqfHK0pA9s6GwBKE3rIgONIzauf0uAno79gt3rkDQ30C8aM2rpw6DBdGNjrFkqnXrow6HZkCCktdcPoCF/TV91eeuiru2MKxorb1tkT9OmgERrR93Y90neIXh8ZGIxZ7XTDQF3pF4wZLdX1juAeRABlAwEZcFyppFYD/6m33uvnN5t+WGbW+Pcm6JmnOylkrHNSLw2Y+JA6FfRaJ/fR4NH3qHM1Z7sw1msOnDtad4SbEDZAvasf0vBZw9SrRRxTbpQYtdX+3hf00uuhZ+qvd+tADbyhhD+0ACAmBGTAcaeSGv/WCmKW/1cvvTdQ1/brpFYnO0XGyW3V/uq+uuO90Rq7/A3d8dumoYMxR8W2/fTMwi/0zAt91dXnC7Drdeqh3i+8obELBqvrSVEGS7Xa6toPvtCEBa/qoYH+r2uClsbnd1KvBwfrmQXT9f4HEQaXrmqr3gve0MAX+qlXj4D6rttU7Xv00bUvDNNLq7/Q8Od6qF7YqTsa6MK3JuitsfeoV+CXjZvX4cvFgVKLMWQAAAAuo4cMAADAZQRkAAAALiMgAwAAcBkBGQAAgMsIyAAAAFxGQAYAAOAyAjIAAACXEZABAAC4jIAMAADAZQRkAAAALiMgAwAAcBkBGQAAgMsIyAAAAFxGQAYAAOAyAjIAAACXEZABAAC4jIAMAADAZQRkAAAALkuakrkgz0lHpWJOedU8kqYTjlZW+ZwkKc9aAABA6ZSUp6PJedpfPkO7KxxSdvJRpyB+qft26MSVM1Vz0zJV3rtV5Y4ecUpKl9zyFZRRvZ52N2ylX5t3UWa1Ok5J/GIKyOpkVbWXtLTKSk2pqArlyyspiYAMAIDSKi8vT0eOHlVmVrYOHcrQjpQD9hKvJnO/VJN5XzpbZcv6My7V+jMvdbbiE3VA1iijpqorTbWrV1dyOe54AgBQ1uTk5mrn3r3aq0P6pfJuJzd6Lb77l90zVpaZnrIV5/+fsxW7qCIq0ytmgrG6NWsSjAEAUEaZa7y51ptrvrn2x8L0jJX1YMwwn9F81nhFHFWZMWOmUUzPGAAAKPvMNd9c+00MEA0zZqys3qYMxXxW85njEXFAZgbwmzFj9IwBAHB8MNd8c+03MUA0joeesUDxfuaIoyvzNKUZwA8AAI4f5tpvYoBomKcpjzfxfuaIAzIztYV5mhIAABw/zLXfnt4qCmZqi+NNvJ858vuPeUlMbQEAwHHGvvZHOddoaZ1nLB7xfmYGhAEAALiMgAwAAMBlBGQAAAAuIyADAABwGQEZAACAywjIAABAmbR17s+qcN/P+nCvkxGBWI5JBAIyAABQshzZqyf/PMMKjJbqnfi+kajUICADAAAlStb6fXqn6om6s8Mefbgqy8kt2wjIAABACXJU0+b/IrVL110tqmva9F1a4JSUZQRkAACg5Di0TxNmVNRdLauq5al11H3zDk3b7JSVYQRkAACgxNi6fLveOeFEdW9ibdSppt+1PKgR8/aqrN+4JCADAAAlRJYm/bRL9TpXVXt7O0Xd21fX1ln79GMBXxW599ddGjZmoU69zzwIMFtt3linD7flOqWhxXJMUSIgAwAAJcOOffpwWUXd0vIEKxTL18Tcttz/iyasOOrk+Fs/d4XaDPtZT66pqD5XnqqP+5+kPtUz9OQrq/TONmenALEcU9QIyAAAQImwYNGvmnZCXXVv4hOe1ElTrwbSqEX7FDQ12I5tuu+9HdJZLbTq8dP0XI+66tO2rp7+bWst7l9ZX07e5ezoI5ZjigEBGQAAKAEOatqcg1agVE1nV3CybFXUvVMVaeZ2TQqIyBYs+VWTVENP96wj3xjOSGnSQE/3cDZ8xHJMcSAgAwAArstatUsjNksPtjh2u9KjffM6aq9d+nC579D+bP283grgGlRXhzpOlp9yOq1hLSftEcsxxYOADAAAuCxXPy7fpq1WauQ/flAFe6C9z/LsOnsusknz9mm9vb+RrfVrrFV6RdXLz4hALMcUDwIyAADgrsx9mjAlW2p1op67smnIZeBZVaTlv2qCd06y8qpX31rlmGczQ9u6/7CT8ojlmOJBQAYAAFy1d9VOjbLWD17QVA/2aBByefpCc9vyoMYsP5h/kCqqSQNrtWiv5h/Kz/GXpfkrPPt6xHJM8SAgAwAALsrWpLlmrokG6nVyAWFJg2q6wQqmFkzbpWn2nGTldHarRqqnbRr63z1BT2Cun7tBQzdVdLY8YjmmeBCQAQAA9+zYow/nW+seNQKergxURX26VZf2b9O09fkTuKaceqJe7pKiBVOXqs0rq/TkzF1WcPerHn1vnrp9V1nPXVrV3s9XLMcUBwIyAADgmvWrdmiStb7z5CpBT1cGsieJVbaGzffMSVZRfW5or8U3N1CHg3s0bMzP6v3ldu2te5Km3N1IZ1eydwoQyzFFL2lK5oI8J12gVnsbqH692s4WAAA4XmzZulPLqkf+Dd8X/PMeJ3V8+fYPrzqp6NFDBgAA4DICMgAAAJcRkAEAALiMgAwAAMBlBGQAAAAuIyADAABwWeQBWVKe8vIimiEDAACUEfa134oBopFbvsAZXsukeD9zxAHZ0eQ8HTl61NkCAADHA3PtNzFANDKq13NSx494P3PEAdn+8hnKzMp2tgAAwPHAXPtNDBCN3Q1bOanjR7yfOeKAbHeFQzp0KEM5ufnfHwUAAMo2c803134TA0Tj1+ZdnNTxI97PHHFAlp18VDtSDmjn3sDvRgcAAGWRueaba7+JAaKRWa2O1p9xqbNV9pnPaj5zPCIf1G8xjbJXh7Rt9256ygAAKKPMNd5c680131z7Y7H+zEuPi54y8xnNZ41XxF8u7qtOVlV7SUurrNSUiqpQvrySkpKcUgAAUNqYpynNAH4zZszcpjSBWKzBmK8mc79Uk3lfOltli+kZS0QwZsQUkBkVc8qr5pE0nXC0ssrnWMFYHgEZAAClVlKe/TSlGcBvxoxFe5uyIKn7dujElTNVc9MyVd67VeWOHnFKShcztYV5mtIM4Dc9Y/HepvQVc0AGAACAxIhqDBkAAAASj4AMAADAZQRkAAAALiMgAwAAcBkBGQAAgMsIyAAAAFxGQAYAAOAyAjIAAACXEZABAAC4LKaZ+vOsI44czlXmoaPKPpyjnKNM9g8AQFFJLp+kCpXKKbVyeVVKTXZyUZZEHZDl5uTpl3UHtHbpfu1Yf1gHd+daQVmuVeDsAAAAEiYpSXYwllYrSbUbV1SLdjWU3iBNFa28eFXOSVb9rEqqmV1BaTnlVI7vpS5QblKeDiXnanfFI9qSclgZyTlOSfyiCsgOZ+ZoyU+7tfT7vUrNq6IO7RqpcYNaqpJWyfoHQyMCAJBoeXl5OngoS79s3qP5izfoUM4hNetQWe3PTVfVahWcvaLX9FCKmmVUdrYQi7WVM7QuLcvZik/EAVlebp6m/XuTNsw/rIu7na4ObU5SmhWIAQCA4nHkSI5mzV2rr75bqBNblVf33o2VWqW8Uxq50w6k2T1jiJ/pKfu56iFnK3YR93cunr1Ly37Yr+uu6KyuXZoTjAEAUMwqVEjWOZ1O0dW9ztL2lblaOne3UxI50zNGMJY4pi5NncYrooDs4P4jmjR2vS7t3l6nt2zg5AIAgOJWrlySTj+toc7v0krLZu/Wrq2ZTknhzJgxblMmnqlTU7fxiCggW7V4j6qnVlWnM5o5OQAAwC2mp6zFyfVUtUJVrV2+38ktHD1jRSfeuo0oIFu77IDandZYqSmxDx4EAACJU71aZZ1Ys6Z+XX/QySmceZoSRSPeuo0oINu5NUP161ZXUjmepAQAoCRITamomjWq6sD+7PzppyJgprZA0Yi3biM6OudInipUKC/CMQAASgYz21T55HL2ZO25EU7QzjxjRSfeuiVUBgAAcBkBGQAAgMsIyAAAAFxGQAYAAOAyAjIAAACXEZABAAC4jIAMAADAZQRkAAAALiMgAwAAcBkBGQAAgMsIyAAAAFxGQAYAAOAyAjIAAACXEZABAAC4jIAMAADAZQRkAAAALiMgAwAAcBkBGQAAgMsIyAAAAFxGQAYAAOAyAjIAAOC+jAzpxx8LXjIznZ3LHgIyAADguqSXX1ZS374FL6NGOXuXPQRkJVhebq62/bpZs77/Vtu3bXFyAQAogw4ezF+3aiV16eK/mDxjz578dRlUJgKyPbt36vvv/quMQ05jlhE5OTlaumie/vn357Vi6SInN3KHD2fppx//py2bNjg5AACUUHl5+avBg5X38cf+i5WXX5i/T1lUqgMyE7CsWr5Ub48aoTHvjNKBA/uckuNbnvUPduf2rZo4boye/+sgrV75s1MCAEAJsGuXkkaO9Fu0cKFdlPTJJ0FlJs9m7RNYZl6rLEiakrmg0HDzH08uUp/uZ6vLmc2UlJTk5LonNzdX27du0fRpX+nrLyZo/pwf1bzl6Rr5+hjVPbGBs1fpd/TIEf3vm8ka897rurn/Pep2YU+nJDwTlM7/6Ud98dlY+1bn1i2bNGr0Z+p+8WXOHgCAsuKb6cv1w6qFurZ/c6WkJTu54fXYUdNJuWzlSiVddJGzEZ+8qVOlU091ttw1tc5uJxW9UtdDZoKxVSuWasSwJ/T2ayOVVrWqWp3eQRUqVnL2OH7t2rld773+koY+MUDbrIC13RmdVTmtilMKAEAJ0aiR8saOlR580MmIXp51rP0aDRs6OaVbqbxleTgrU/XqN9CDf/qLvZzSspWSkwv/y6CsO3IkWymplXXD7/+op/72qrp1v0SVKqU4pQAAlBCpqdLZZysvnp6t5s3t17BfqwwodQFZuXLldHq7jrr34Sd1Ua/eqp1e1wrGyjulsTmclaV/f/Iv3de/r37431Tl5Bx1SqSjR4/qleFDdPUlnbRs8XwnN9+yJfPVs2trfT7hIycnvwdv47rV+seIv+qqizrqzFNr6ooL2uvFYU9o4/o1zl7HLFk4V4/e83uN+/AdrV+zUs/8+UF1bF5bo998xdkjWG5OjiZ8PFpdWtXTs089qiwrQDXq1mug399+v2685U6d1PQUgjEAAEqJUtlDZoKyChUqWutkJVn/i1fFSpXUsHFTZWVm2rdDs6wAzePAvr1aumi+du7YbpUtswMuwwycX7lssWrWqqOTT21p52VnH9a0KV/ontt+q0/GvKPWbc7QHfc9pvZndtHE8WN02+8u04/Tp9rHeuTm5thPQ/66ZZP+8eJQeyD+0aNHdCQ729nDnxlX9s3Xn+v1l/6mSy67Wvc+8qRSUvL/OjDj+8pXqKDk8uVLxFg/AAAQmVL9lGWimOClXv2GSqtSVWtW/qxDB/Y7JdKG9autYOkXpdetp9VWQOaZWsOsVy5fppOanGIfa4Isc+x7b7ykFqe10T/H/Ed/HfG6br/3MT39/Ci98cF/rH1P1ohn/qyN1mv6MgGYGYh/asvW+vzbBZq/Zq9uu2uAU5rPhHDZVpBmpvf456vD1fncC+xeQsaIAQBQ+hGQOWrUqq22Z5ylg1YwZgbHm0lZTW/Yovk/2U9w9ujZ277laMqMHTu2ac2qn9WyVRtVqXqCPQXHzBnTtGvHdl3zu9/rlOatvL1UZm22f3fzHVq7ZoV++nGGFcDl97QZe3bttAKrNF3c6yrVTq8Xsncr+/BhzZ01Qx9/8JZatm5rB2zmdi0AACj9CMgcKSkpanZKCx3Yv0+/bFhrjx0zwZnpuep0znnqcNY5qlixkjZtXGffZty0fq19W/HU0063x7CZAfXr163WKS1a2a8TSqs27XXyqadp/dpVfrckK1k/u0Wrtvbtz5DBWFaWFs6bZY8zq2kFjjfeepcaNm4Scl8AAFD6EJA5zHi0xk1OtseTrV29wh4PZgIzM31E2zM6qX6DRqpWo4YddJlAzexzopXX6KT8udlyrADO9GJVr1FTqZUrO6/qz9xerHpCNfsWZa7POLITTqiu2nXqqkKFCk6Ov8ysTC1ZOM96P+vs3rH6DRrb7xcAAJQNBGQ+TFBkbk9u/mWj9u3do8Xz56hhoyZ2AFSteg3Vqp2udatX6tfNm7RuzUo1aHSSFYDVsAOypHLlVC452Q7WDluBWSiZGRk6dPCAUlMrK9k3oDLHF/BwQpoVyJ119nn2GLMZ06bYty7NgwAAAKBsICDzYQb1Nz/tdPtrh8zXDf00a7oVCHWz81NT0+zeMBNw/bxkvj2o3zxdWcl5wrFixYpW8HaSddwy+5ZkKGtXL7cDuWantlD58pFP1WGenDRj1a678TZ7rNn7b/1d82b/aN9WBQAApV+ZD8jMVweZpxI/++RfdjBVEDOdhhnjlXU4UzOmfaVNG9fr9HZn5k+zYQVcTZqdao81m/X9d/Z2o5NOtgKr/NuMZm2efKxcuYomfvKBHZR5prcwa7P90eh/2k9gnnHWOXaPWjTM7cxWbTrohlvutMecjXpxqBbNm+2UAgCA0qxMB2Rm8L0Z6/XV5+P09efjtWP7Vr85wEIxU1iYwMtM9mpuSZpxZYa5LVmn7on29BOT/vOpPelqnfR6drDmKT+tdTtd3+92zfvpBz14xw16bshjev+tV/XM4w/ojzddpV83b9SDA5/WifUb2cdEywRl7c7opJv/cJ8yMw7qmSce1OIFc5xSAABQWpXpgMwMfE+vV98OqszTj2YcWGFPJpopLE47vb19O7Bdh7Ps25UeZkB+85at7VnwzXiuKlWPlRmpldPUs/e1+ssLr6ndmZ01+fNPNWLon7V44Vz16XuT/v7OOCu/iz3WLFamJ+7Mzl316JPP2mPSnnj4j1pCUAYAKI3S02P/6qN69ZxE2ZA0JXNBwV1Gln88uUh9up+tLmfmP1EIAADc98305fph1UJd27+5UtIK/2O/x46aTqoEWbtW2rbN2YiQCcaaNnU2So6pdXY7qeiV+TFkAACgBGvWLP9LwqNZSmAwFi8CMgAAAJcRkAEAALiMgAwAAMBlBGQAAAAuIyADAABwGQEZAACAywjIAAAAXEZABgAA4DICMgAAAJcRkAEAALiMgAwAAMBlBGQAAAAuIyADAABwGQEZAACAywjIAAAAXEZABgAA4DICMgAAAJcRkAEAALiMgAwAAMBlBGQAAAAuizggy8tzEgAAoORISrL+w0W6tIsoICtfUcrOPkJQBgBACZGbm2ddm49a8VieypWPrH8l19oXRSPeuo2oBWvVrawt2/ZaARkNCQBASZCZla09+w7phGqVVKFiZAHZoeRcJ4VEi7duI2rBZq2raeGyjTqaQ0MCAFAS7N2fqa17duvExpXz71pGYHfFI04KiRZv3UYUkDVvU11HkjL1/cxVTg4AAHCLuVW5eNkv2p+9X81aV3dyC7cl5bCTQqLFW7cRBWRpVSvogisb6r2Pf9DipZucXAAAUNxy8/K0YvU2Tf1xiU7rVEM1alVySgqXkZyjtZUznC0kiqlTU7fxiOyms6VVx1rqdmW6hr86Wd/PWu3kAgCA4jR77lq9/q9v1LxTFbXvUkdJ5SK8X+lYl5ZFT1kCmbo0dRqvpCmZCyIeqZ9zJFfzvt+hKR/+opMb19Ul3duo5aknKjWlgrMHAABINHOLctnKLfrq2yWav2iDet/SVJ2711NyhYj7VYI0PZSiZhmVnS3EwvSMJSIYM6IKyDwyDh7R1PG/6KfvtmnPziylplZQclLs/ygAAEBoOXm5OnQoWzXrpOrM89N10dWNVaVqYjpCKuckq35WJdXMrqC0nHIqlxddb9vxxkxtYZ6mNAP4Tc9YvLcpfcUUkHkcPZqrg/uzlXHgqHJ5AhMAgIRLKldOVU6ooCrVKig5mc6PsiqugAwAAADxI9QGAABwGQEZAACAywjIAAAAXEZABgAA4DICMgAAAJcRkAEAALiMgAwAAMBlBGQAAAAuIyADAABwWcwz9W/fnKEZk7do2ezd2vzLAWUfTtz3OQEAgHwVKyWrQaOqatWpprr2rK/0Bon7QnC+yzI6Je67LCeOXq0vx6zX1Vecqa6dT1Wzk+ooJSUxX3QKAACOyco6orUbdmjGrFUa/5+5uvSGJurd7xSnNHZND6WoWUbigrvj0drKGVqXluVsxSfqgOy94cuUuSNZD93ZU+m1qzq5AACgqG3feUAjRk1Wap0c3fxIKyc3eqcdSLN7xhA/01P2c9VDzlbsohpDZnrGTDD2tyeuIxgDAKCYmWuvuQaba7G5JsfC9IwRjCWOqUtTp/GKOCAzY8bMbUrTMwYAANxjrsXmmmyuzdEwY8a4TZl4pk5N3cYj4oDMDOA3Y8boGQMAwF3mWmyuyebaHA16xopOvHUbcUBmnqY0A/gBAID7zDXZXJujYZ6mRNGIt24jDsjM1BbmaUoAAOA+c0021+ZomKktUDTirduIjzbzjDG1BQAAJYO5Jkc7ByjzjBWdeOuWUBkAAMBlBGQAAAAuIyADAABwGQEZAACAywjIAAAAXEZABgAA4DICMgAAAJcRkAEAALiMgAwAAMBlBGQAAAAuIyADAABwGQEZAACAywjIAAAAXEZABgAA4DICMgAAAJcRkAEAALiMgAwAAMBlBGQAAAAuIyADAABwGQEZAACAywjIAACA+zIypB9/LHjJzHR2LnsIyAAAgOuSXn5ZSX37FryMGuXsXfYQkJUy61av0BXdO2jipx84OQAAlAEHD+avW7WSunTxX0yesWdP/roMKrUB2eZf1mvY4Id1yTmn6dT0cvbabP+6+Rdnj+jk5OTohWce1zltGmjJwrlOrr+8vDz9Y8Rf1b5ZNc2d/b2T6+/A/n2697bf6rbrL9We3TudXHeY97t86UINevAPuuCMpnY9XdnjTL3+8t+0b89uZy8AAEoA65plrwYPVt7HH/svVl5+Yf4+ZVGpDMg2rFute269TnNnfa9eV1yrR54Ypu4XX6ZxH71rB0NrVv7s7Bm55ORktT+zs3Zs+1VLFsxxcv0dPLBfPy9dpEMHD2jRvNlOrj9zvOnFatWmg06oVsPJdcfCebN0/RXnafPG9bruxlvtejq93Zka9eIw/en+27RzxzZnTwAAitGuXUoaOdJv0cKFdlHSJ58ElZk8m7VPYJl5rbIgaUrmgojCzdt6fK2pnz3sbLnL9I79vHShzruwpypWrOTkSrN/+E6P3vN7XXpVXz34p6dVoWJFpyQyJpC67w/X6+xuF+qRPw8LOn75skV65O6bdfhwljqfe4Ee/8sIpaSkOqX5pk6eqD/2u0qvjf5MPXr2dnITx/Me/3D3w+p97Y1Obmjm/e7euV1dul6ocuXyY2/Ta/b5+A/1xCN3asDjz+im2+6x8wEApU+Pq57XW1MvcbYK12NHTSflspUrlXTRRc5GfPKmTpVOPdXZctfUOrHffSqVPWQNGjXRRT2v9AvGjA4dz9Yll19t36Y7dOiAkxu59Hr11bJVWy1bPD/k7caVyxarcuU0tW57hp3eZQU7vsxtzwVzZ6nFaW3U9OTmTq57zGc557yLvMGYkZSUpAsuvkzduv9GK5cvVVZW2X1iBQBQQjVqpLyxY6UHH3QyopdnHWu/RsOGTk7pVmrHkIVierSqVavubEUvrUpVtWrT3h5D9svGdU5uviPZ2VqyaJ4aNzlZ5/foqXk//aD1a1Y6pfkyDh3U+rWr1PSUFqpT90Qnt+Qx9VS9Zi1nCwCAYpaaKp19tvLi6dlq3tx+Dfu1yoAyFZCZ3p6tW7fYgVVycnknNzpnnX2eKqdVCRojZnrMTM+ZCdjadeiklq3baeHcWfYtQI/NmzbYvXOntW6rKlVPcHKlzIxDGvPuKN14VXd7YL15KMAM+v/q83HKzj7s7JXPfAZzO9EsZszaR++9bg/If+qxe+xbpeGYcXPX9jxbf7jxCvt9FMS8ny2/bLD+DVdWcrlkJxcAALilTAVkv27aqAVzZqpDxy5+AVE0GjQ6yQqo2lnB1wJ78L6H6TFbvWKZ2p7RyXtrc92aVXavmIcJikwPWbszO9u3Bg2zfdfvr9GIYU+o2akt9fd3x+lPg59Tcvny9oMJQ58YYAdIoUya+In+NuRRO8DKyc3xC/58mZ/72H23qrz1moOGPK8GDU9ySkIzn8OMwevY+dyox9kBAIDEKzMBmQme3n3jZVWqlKILf3OFNyCKlnky0jwhuXH9Gu3de2xwnukxO6VFKzVq3NR7a9MMmt++dYtdbsaPLV+6SGecdY6aOOPHTKBlnmg0U2G8+/FX+svwUbrk0j66/uY7NOrd8Ro68p/67JP39fmEj+z9fW3d/It+mP6N3h8/VSu35djHBj5AYJgnJZ//6yA7/cyIN+zbpQXZ9utmvT1qpDqc2UUdu3RzcgEAgJvKREC2Y/tW+5bejzO+0WODn1WTZrHfk/ZMf+E7RswEe6bHzARqNWrWtvNMT9kvG9Zq7eoV9vb+fXvsW5rNW7VRrdrpdt6q5Us1fdpX9pQT5kEAX6aH7JLLrta5512k/33zlR20+fpp5nRdc/3NatO+Y9jg0gRjTwz4o/35n335bZ3c/DSnJLS1q5bb012Y268P/3moataq45QAAAA3lfqAbOmiebr31uvs4OS19ybYY8Di1eyUFn5jxEwvmOkNO90Kqjy3+ExPmZnTyzxVaXrHtln7mF611qe39/ZkmduVaWlV/G5h+jqhWnW1aN1Wmzau0+5dO5zcfO3O6GwHgOHs379Xrwx/Oj8YffbVAoMx8xn+981k/fHmPqpdp65eefuTQnvSAABA8Sm1AVlubq49xuru319j33p71QoyzBitRPCMETOTwJqB9aYXzExx4fv61WrU1CnNW9lBlxlHZqbBOGStT2/f0dlDdg9aSmplVQqYnsPDBGnJ5crp6NGjyrWCOl/pdU+0b7+GY247/vvTf9lPfJoxb+GYhwbef+tVe362/7v1Lj0z8g3VSa/nlAIAgJKgVAZkpsfniwkfacif7tXdA/5sTwJrxnUlineM2NKFdlBlesFM0GMG/HuYYKllqzb2PiYoM1NiBO5T30pnZWbocMCTlIHM3GYVU/yDr5TKle3bmuHc8/ATuuvBQXpr1AiNee815VhBXSCT9+7rL+rtf4zQs6+8Y08CGzh3GwAAcF+pDMhWr1ymv498RgOffl7X3nBrgYFLrMwYMXM78Kcf/+dMdxH8VUimN8z0is2b/b39pKO5bVilyrGnO82cZeY1Fs//ycnxt2+vGXe2wH4IoKYzNi1S5ZPLq98f7tNtdz5kfwfn+LHvBQVls378TmPeeU3DXnpL5/foFfODDgAAoGiVyoBsxrSv7bFQZ3e9sMiCDM8Ysa+//MweG2YG+psB/748U2R889Xn9tOLvmPMDHNL03y909j33wz6wnJzy/Xb/35hf0n5xZdeqdTKaU5J5MxYtf53P6yrrrtJzzzxkL7898feqTHMRLbfTvnSHlPXtsNZdh4AACiZSl1AZiZH3bBujT2I/6P3/6k3Xnk25PLtlC/s/c1EqyZYuaJ7B3tgfqTM05SmV8x8P6YZB2YG+gfyTJHxw/Sp9vsyT1j6qla9hu5/9Ck7/fvf/sae7PU/48bYk72a77sc/OjdVkA1QN0vuszeJxYmkLvv0cG6uNdV9uub76k0QVlGxiGtW7PSvuX63hsvhawjsyyYO9N5JQAA4JZSF5CZYMNMkmpuEb4yfIiG/2VgyMU8fRkP09NlerwMM8DfDPQP5JkiwzBPZYaakNXcxnzjg4n2l4GbucweuvP/9PzQx+0pJ975eLJuvXNA3LdczWs99tRzdo/hkEH36YvPxirXqiNzC9P0wI3825Mh68gsG63gFgAAV6Snx/7VR/XK1gNqSVMyF4Se/j3AbT2+1tTPHna2AACA23pc9bzemnqJs1W4HjtqOqkSZO1aads2ZyNCJhhr2tTZKDmm1jk2oXy0CMgAACilykRAVobEE5CVykH9AAAAZQkBGQAAgMsIyAAAAFxGQAYAAOAyAjIAAACXEZABAAC4jIAMAADAZQRkAAAALiMgAwAAcBkBGQAAgMsIyAAAAFxGQAYAAOAyAjIAAACXEZABAAC4jIAMAADAZQRkAAAALiMgAwAAcBkBGQAAgMsIyAAAAFxGQAYAAOAyAjIAAACXRRyQVayUrKysI84WAABwk7kmm2tzNHKT8pwUEi3euo04IGvQqKrWbtjhbAEAADeZa7K5NkfjUHKuk0KixVu3EQdkrTrV1IxZq5wtAADgJnNNNtfmaOyuyJ2uohJv3UYckHXtWV/j/zNX23cecHIAAIAbzLXYXJPNtTkaW1IOOykkWrx1G3FAlt6gsi69oYlGjJrs5AAAADeYa7G5JptrczQyknO0tnKGs4VEMXVq6jYeEQdkRu9+pyi1To7+9JdP6CkDAKCYmWuvuQaba7G5JsdiXVoWPWUJZOrS1Gm8kqZkLoj6sYCJo1fryzHrdfUVZ6pr51PV7KQ6Skmp4JQCAIBEMU9TmgH8ZsyYuU1pesZiDcZ8NT2UomYZ0fWwwZ/pGUtEMGbEFJAZ2zdnaMbkLVo2e7c2/3JA2Yfj66oDAADBzNQW5mlKM4DfjBmL9jZlQSrnJKt+ViXVzK6gtJxyKpeX5JQgFDO1hXma0gzgNz1j8d6m9BVzQAYAAIDEiGoMGQAAABKPgAwAAMBlBGQAAAAuIyADAABwGQEZAACAywjIAAAAXEZABgAA4DICMgAAAJcRkAEAALiMgAwAAMBlfJclAAAlGN9lWXKUuO+ynDh6tb4cs15XX3GmunY+Vc1OqqOUlApOKQAASJSsrCNau2GHZsxapfH/matLb2ii3v1OcUpj1/RQipplJC64Ox6trZyhdWlZzlZ8og7I3hu+TJk7kvXQnT2VXruqkwsAAIra9p0HNGLUZKXWydHNj7RycqN32oE0u2cM8TM9ZT9XPeRsxS6qMWSmZ8wEY3974jqCMQAAipm59pprsLkWm2tyLEzPGMFY4pi6NHUar4gDMjNmzNymND1jAADAPeZabK7J5tocDTNmjNuUiWfq1NRtPCIOyMwAfjNmjJ4xAADcZa7F5ppsrs3RoGes6MRbtxEHZOZpSjOAHwAAuM9ck821ORrmaUoUjXjrNuKAzExtYZ6mBAAA7jPXZHNtjoaZ2gJFI966jfhoM88YU1sAAFAymGtytHOAMs9Y0Ym3bgmVAQAAXEZABgAA4DICMgAAAJcRkAEAALiMgAwAAMBlBGQAAAAuIyADAABwGQEZAACAywjIAAAAXEZABgAA4DICMgAAAJcRkAEAALiMgAwAAMBlBGQAAAAuIyADAABwGQEZAACAywjIAAAAXEZABgAA4DICMgAAAJcRkAEAALiMgAwAALgvI0P68ceCl8xMZ+eyh4AMAAC4Lunll5XUt2/By6hRzt5lDwFZKbNu9Qpd0b2DJn76gZMDAEAZcPBg/rpVK6lLF//F5Bl79uSvy6BSGZDl5eVp+dKFGvTgH3TBGU11ano5XdvzbI15d5QyMw45e0UnJydHLzzzuM5p00BLFs51cv2Zn/uPEX9V+2bVNHf2906uvwP79+ne236r266/VHt273RyS5bc3FzNnDFN9/Xvq44tatv1d/M1F+urz8cpO/uwsxcAAMXIusbaq8GDlffxx/6LlZdfmL9PWVQqA7L1a1bqkXt+r507tqlvvz/okSeGqVGTZnru6T/p2SGPxRSUJScnq/2ZnbVj269asmCOk+vv4IH9+nnpIh06eECL5s12cv2Z400vVqs2HXRCtRpObskyf86P+mO/q5Rcvrxuv+cRPTTor6qUmqp7br1O777+onKOHnX2BACgCOzapaSRI/0WLVxoFyV98klQmcmzWfsElpnXKguSpmQuiCjcvK3H15r62cPOlrt+2bBWa1Yt13kX9lS5cvkxpen1+fj9f+qJR+7Ua6M/U4+eve38aJhA6r4/XK+zu12oR/48TBUqVnRK8i1ftkiP3H2zDh/OUudzL9DjfxmhlJRUpzTf1MkT7WAn1vdQGM97/MPdD6v3tTc6udH5eckCZVhB6xlnnaOkpCQ7z/SMvTL8aY376F298a+JOr3dmXY+AKDk6nHV83pr6iXOVuF67KjppFy2cqWSLrrI2YhP3tSp0qmnOlvumlpnt5OKXqnsIWt0UjNdcNGl3mDMMOlO55yvFqe10aoVS53c6KTXq6+Wrdpq2eL5IW83rly2WJUrp6l12zPs9K6d252SfOa254K5s+z30PTk5k5uyXPa6e11ZqdzvcGYUbFiJSvA/Y3dw7dh3WonFwCAItCokfLGjpUefNDJiF6edaz9Gg0bOjmlW6kMyMIxAUaSFZhVrx7bXwBpVaqqVZv29hiyXzauc3LzHcnO1pJF89S4yck6v0dPzfvpB/vWqa+MQwe1fu0qNT2lherUPdHJLT3KJSfb6+o1SshfUACAsik1VTr7bOXF07PVvLn9GvZrlQFlKiDbuGGtDuzbq9Zx3G476+zzVDmtStAYMdNjZnrOTMDWrkMntWzdTgvnzrIH+nts3rTBftjgtNZtVaXqCU6u7DFt5oGDG6/qbg+gNw8FmEH/oQbRZ2Vl2rddzWLGrH303uv2gwtPPXaPfas0nDUrf7YfbPjDjVfY7yNa5nOsWLbI7jlr0qxkdP0CAHC8KBMBmXmy8esvxuvZpx7VbXcPUKvT2zsl0WvQ6CQroGpnBV8L7MH7HqbHbPWKZWp7Rifvrc11a1bZvWIeJigyPWTtzuzsvR1otu/6/TUaMewJNTu1pf7+7jj9afBz9oB6M4h+6BMDwj6EMGniJ/rbkEftACsnN8cv+PNlfu5j992q8tZrDhryvBo0PMkpKZx5zb17dumj0a/r3Tde1q13Pqj6URwPAADiV2oDMs98XKbH6YxTalgBxT817KU39X+33m0HO7EyT0aaJyQ3rl+jvXuPDc4zPWantGilRo2bem9tmkH+27duscvN+LHlSxfZA+WbOOPHTKA16sVhdsD47sdf6S/DR+mSS/vo+pvv0Kh3x2voyH/qs0/e1+cTPrL397V18y/6Yfo3en/8VK3clmMfG/gAgWGeNH3+r4Ps9DMj3rBvl0bCTNth6q553WSd1aKO5v80U6+P/kyXXHa139gyAABQ9EptQFblhGq65vqb7SkvHnhsiD1Vw83XXqIXnx0c81xkhmf6C98xYqanzPSYmUCtRs3adp7pKTNPe661AkNj/7499i3N5q3aqFbtdDtv1fKlmj7tK1134632gwC+TNBogp9zz7tI//vmKzto8/XTzOn252vTvmPYAMkEY08M+KN2bN+qZ19+Wyc3P80pKZx5j6buzHLXg4/bn+O6y861b60y7QUAAMWr1AZkddLr6fd3PKDb731Mdw94Qu9++rVe+udH+vfH7+uDd/5h91jFqtkpLfzGiJleMNMbdroVVHmmwjA9ZWZqCPNUpflZ26x9TK9a69Pbe3uyzO3KtLQqfrcwfZ1QrbpatG6rTRvXafeuHU5uvnZndLYDwHD2799rT1NhgrGnnn01qmDMMOPETN2Z5cGBf9HYz6frsSef1cvPDdGk/3zq7AUAAIpDmRnUbwKerhdcoiuuuUFTvvy3tv66ySmJnmeMmJkE1gysN71HZooLMwbMo1qNmjqleSs76DLjyMw0GIes9entOzp75M+XlpJaWZUqVnJy/Jn3nFyunI4eParcgAAyve6JqlQpxdkK9vaokfr3p/+yn/g0Y97iZXrsLr3yt+rW/Tf66vPxQT12AACg6JSZgMwwtxubndrCnvQ0Oyv8E4mF8Y4RW7rQDqpML5gJesyAfw8TLLVs1cbexwRlZkqMwH3qW+mszAwdLuTriMzcZhVT/IOvlMqVCxwLd8/DT+iuBwfprVEjNOa91xJym9E8XWq+8cDcos3J4bYlAADFpUwFZObW4dpVK1Steg07qIqHGSNmbgf+9OP/nOkugr8KyfSGmV6xebO/t590NLcNq1Q5Nt2FmbPMvMbi+T85Of727TXjzhbYDwHUdMamRap8cnn1+8N9uu3Oh+zv4Bw/9r24gzLT0/fL+rX2+LIKFfy/pQAAABSdUhmQff3lhKAxV2as1+wfvtN/xo1R1wsuVq06dZ2S2HjGiH395Wf22DAz0N/0wPnyTJHxzVefa9uvm/3GmBnmlqb5eqex778Z9IXl5quevv3vF/bTjhdfeqVSK6c5JZEzY9X63/2wrrruJj3zxEP68t8fh50aw8PMc2bqL/DBB/N+/jv535oy6TN1635J3AEtAACIXKkMyFb9vESXnHOaPXnqG688ay8P3fl/uvPmPvbErr/9v/7e4MkEICZYMVNkmIH5kTJPU5peMRPkmXFgZqB/IM8UGT9Mn2pP2mqesPRleuruf/QpO/373/7Gfr8mYDSTvZrvuxz86N1WQDVA3S+6zN4nFiaQu+/Rwbq411X2638+/sNCg7Lp075Wr66n2/O2mbob9eJQ+/08fFc/9et/rxUgXuXsCQAAikOpDMiu+u1NuvGWu+y5wYb/ZaDeeHW4fbvuuVff1TMj31DNWnWcPWNnerpMj5dhBvibgf6BPFNkGOapzFATsprbmG98MNH+MnDzfk3g+PzQx+33+M7Hk3XrnQPimjfNMK/12FPP6eyuF2rIoPv0xWdjwwZlZuzbjb//o3r0ulJTv/6PXX9jR/9TNWrU0gefTdMDf3o6pt46AACilp4e+1cf1avnJMqGpCmZCwruTnHc1uNrTf3sYWcLAAC4rcdVz+utqZc4W4XrsaMEflfx2rXStm3ORoRMMNa0qbNRckytc2xC+WgRkAEAUEqViYCsDIknICtTT1kCAACURgRkAAAALiMgAwAAcBkBGQAAgMsIyAAAAFxGQAYAAOAyAjIAAACXEZABAAC4jIAMAADAZQRkAAAALiMgAwAAcBkBGQAAgMsIyAAAAFxGQAYAAOAyAjIAAACXEZABAAC4jIAMAADAZQRkAAAALiMgAwAAcBkBGQAAgMsIyAAAAFwWcUBWsVKysrKOOFsAAMBN5ppsrs3RyE3Kc1JItHjrNuKArEGjqlq7YYezBQAA3GSuyebaHI1DyblOCokWb91GHJC16lRTM2atcrYAAICbzDXZXJujsbsid7qKSrx1G3FA1rVnfY3/z1xt33nAyQEAAG4w12JzTTbX5mhsSTnspJBo8dZtxAFZeoPKuvSGJhoxarKTAwAA3GCuxeaabK7N0chIztHayhnOFhLF1Kmp23hEHJAZvfudotQ6OfrTXz6hpwwAgGJmrr3mGmyuxeaaHIt1aVn0lCWQqUtTp/FKmpK5IOrHAiaOXq0vx6zX1Vecqa6dT1Wzk+ooJaWCUwoAABLFPE1pBvCbMWPmNqXpGYs1GPPV9FCKmmVE18MGf6ZnLBHBmBFTQGZs35yhGZO3aNns3dr8ywFlH46vqw4AAAQzU1uYpynNAH4zZiza25QFqZyTrPpZlVQzu4LScsqpXF6SU4JQzNQW5mlKM4Df9IzFe5vSV8wBGQAAABIjqjFkAAAASDwCMgAAAJcRkAEAALiMgAwAAMBlBGQAAAAuIyADAABwGQEZAACAywjIAAAAXEZABgAA4DICMgAAAJcRkAEAALiMgAwAAMBlBGQAAAAuIyADAABwGQEZAACAywjIAAAAXEZABgAA4DICMgAAAJcRkAEAALiMgAwAAMBlBGQAAAAuIyADAABwGQEZAACAywjIAAAAXEZABgAA4DICMgAAAJcRkAEAALiMgAwAAMBlBGQAAAAuIyADAABwGQEZAACAywjIAAAAXEZABgAA4DICMgAAAJcRkAEAALiMgAwAAMBlBGQAAAAuIyADAABwGQEZAACAywjIAAAAXEZABgAA4DICMgAAAJcRkAEAALiMgAwAAMBlBGQAAAAuIyADAABwGQEZAACAywjIAAAAXEZABgAA4DICMgAAAJcRkAEAALiMgAwAAMBlBGQAAAAuIyADAABwGQEZAACAq6T/B+930JhyX+QrAAAAAElFTkSuQmCC;" vertex="1" parent="1">
                    <mxGeometry x="160" y="30" width="421.42" height="364.95" as="geometry"/>
                </mxCell>
                <mxCell id="3" value="" style="curved=1;endArrow=classic;html=1;" edge="1" parent="1">
                    <mxGeometry width="50" height="50" relative="1" as="geometry">
                        <mxPoint x="440" y="300" as="sourcePoint"/>
                        <mxPoint x="490" y="250" as="targetPoint"/>
                        <Array as="points">
                            <mxPoint x="490" y="300"/>
                            <mxPoint x="440" y="250"/>
                        </Array>
                    </mxGeometry>
                </mxCell>
                <mxCell id="4" value="" style="curved=1;endArrow=classic;html=1;exitX=1.003;exitY=0.061;exitDx=0;exitDy=0;exitPerimeter=0;" edge="1" parent="1">
                    <mxGeometry width="50" height="50" relative="1" as="geometry">
                        <mxPoint x="540.1669999999999" y="69.92415999999992" as="sourcePoint"/>
                        <mxPoint x="660" y="30" as="targetPoint"/>
                        <Array as="points">
                            <mxPoint x="610" y="90"/>
                            <mxPoint x="560" y="40"/>
                        </Array>
                    </mxGeometry>
                </mxCell>
                <mxCell id="5" value="&lt;font style=&quot;font-size: 18px;&quot;&gt;Navbar.jsx&lt;/font&gt;" style="text;html=1;strokeColor=none;fillColor=none;align=center;verticalAlign=middle;whiteSpace=wrap;rounded=0;" vertex="1" parent="1">
                    <mxGeometry x="680" y="10" width="60" height="30" as="geometry"/>
                </mxCell>
                <mxCell id="6" value="" style="curved=1;endArrow=classic;html=1;exitX=1;exitY=0;exitDx=0;exitDy=0;fillColor=#990000;strokeColor=#FFFFFF;" edge="1" parent="1" source="7">
                    <mxGeometry width="50" height="50" relative="1" as="geometry">
                        <mxPoint x="540" y="130" as="sourcePoint"/>
                        <mxPoint x="689.83" y="109.99999999999989" as="targetPoint"/>
                        <Array as="points">
                            <mxPoint x="639.83" y="170"/>
                            <mxPoint x="589.83" y="120"/>
                        </Array>
                    </mxGeometry>
                </mxCell>
                <mxCell id="7" value="" style="shape=ext;double=1;rounded=0;whiteSpace=wrap;html=1;fontSize=18;fillColor=none;strokeColor=#000000;shadow=1;" vertex="1" parent="1">
                    <mxGeometry x="162" y="90" width="418" height="300" as="geometry"/>
                </mxCell>
                <mxCell id="8" value="" style="shape=ext;double=1;rounded=0;whiteSpace=wrap;html=1;fontSize=18;fillColor=none;strokeColor=#000000;shadow=1;" vertex="1" parent="1">
                    <mxGeometry x="165" y="136" width="405" height="40" as="geometry"/>
                </mxCell>
                <mxCell id="9" value="" style="shape=ext;double=1;rounded=0;whiteSpace=wrap;html=1;fontSize=18;fillColor=none;strokeColor=#000000;shadow=1;" vertex="1" parent="1">
                    <mxGeometry x="165" y="178" width="405" height="182" as="geometry"/>
                </mxCell>
                <mxCell id="10" value="" style="curved=1;endArrow=classic;html=1;exitX=1;exitY=0.25;exitDx=0;exitDy=0;fillColor=#990000;strokeColor=#FFFFFF;" edge="1" parent="1" source="7">
                    <mxGeometry width="50" height="50" relative="1" as="geometry">
                        <mxPoint x="530" y="159.9999999999999" as="sourcePoint"/>
                        <mxPoint x="689.8299999999997" y="169.9999999999999" as="targetPoint"/>
                        <Array as="points">
                            <mxPoint x="639.83" y="230"/>
                            <mxPoint x="589.83" y="180"/>
                        </Array>
                    </mxGeometry>
                </mxCell>
                <mxCell id="11" value="" style="curved=1;endArrow=classic;html=1;exitX=1.01;exitY=0.671;exitDx=0;exitDy=0;fillColor=#990000;strokeColor=#FFFFFF;exitPerimeter=0;" edge="1" parent="1" source="7">
                    <mxGeometry width="50" height="50" relative="1" as="geometry">
                        <mxPoint x="525" y="279.9999999999999" as="sourcePoint"/>
                        <mxPoint x="684.8299999999997" y="289.9999999999999" as="targetPoint"/>
                        <Array as="points">
                            <mxPoint x="634.83" y="350"/>
                            <mxPoint x="584.83" y="300"/>
                        </Array>
                    </mxGeometry>
                </mxCell>
                <mxCell id="12" value="&lt;font style=&quot;font-size: 18px;&quot;&gt;TodoPage.jsx&lt;/font&gt;" style="text;html=1;strokeColor=none;fillColor=none;align=center;verticalAlign=middle;whiteSpace=wrap;rounded=0;" vertex="1" parent="1">
                    <mxGeometry x="710" y="90" width="110" height="30" as="geometry"/>
                </mxCell>
                <mxCell id="13" value="&lt;font style=&quot;font-size: 18px;&quot;&gt;InputForm.jsx&lt;/font&gt;" style="text;html=1;strokeColor=none;fillColor=none;align=center;verticalAlign=middle;whiteSpace=wrap;rounded=0;" vertex="1" parent="1">
                    <mxGeometry x="710" y="160" width="110" height="30" as="geometry"/>
                </mxCell>
                <mxCell id="14" value="&lt;font style=&quot;font-size: 18px;&quot;&gt;List.jsx&lt;/font&gt;" style="text;html=1;strokeColor=none;fillColor=none;align=center;verticalAlign=middle;whiteSpace=wrap;rounded=0;" vertex="1" parent="1">
                    <mxGeometry x="680" y="280" width="110" height="30" as="geometry"/>
                </mxCell>
                <mxCell id="19" value="" style="curved=1;endArrow=classic;html=1;fillColor=#990000;strokeColor=#FFFFFF;" edge="1" parent="1">
                    <mxGeometry width="50" height="50" relative="1" as="geometry">
                        <mxPoint x="525" y="750" as="sourcePoint"/>
                        <mxPoint x="674.8299999999997" y="718.9999999999999" as="targetPoint"/>
                        <Array as="points">
                            <mxPoint x="624.83" y="779"/>
                            <mxPoint x="574.83" y="729"/>
                        </Array>
                    </mxGeometry>
                </mxCell>
                <mxCell id="23" value="" style="curved=1;endArrow=classic;html=1;fillColor=#990000;strokeColor=#FFFFFF;" edge="1" parent="1">
                    <mxGeometry width="50" height="50" relative="1" as="geometry">
                        <mxPoint x="535" y="810" as="sourcePoint"/>
                        <mxPoint x="674.8299999999997" y="778.9999999999999" as="targetPoint"/>
                        <Array as="points">
                            <mxPoint x="624.83" y="839"/>
                            <mxPoint x="574.83" y="789"/>
                        </Array>
                    </mxGeometry>
                </mxCell>
                <mxCell id="24" value="" style="curved=1;endArrow=classic;html=1;fillColor=#990000;strokeColor=#FFFFFF;" edge="1" parent="1">
                    <mxGeometry width="50" height="50" relative="1" as="geometry">
                        <mxPoint x="535" y="870.28" as="sourcePoint"/>
                        <mxPoint x="669.8299999999997" y="860.28" as="targetPoint"/>
                        <Array as="points">
                            <mxPoint x="619.83" y="920.28"/>
                            <mxPoint x="569.83" y="870.28"/>
                        </Array>
                    </mxGeometry>
                </mxCell>
                <mxCell id="25" value="&lt;span style=&quot;font-size: 18px;&quot;&gt;1. เพิ่มข้อมูล&lt;/span&gt;" style="text;html=1;strokeColor=none;fillColor=none;align=center;verticalAlign=middle;whiteSpace=wrap;rounded=0;" vertex="1" parent="1">
                    <mxGeometry x="680" y="699" width="110" height="30" as="geometry"/>
                </mxCell>
                <mxCell id="26" value="&lt;font style=&quot;font-size: 18px;&quot;&gt;2. Delete ข้อมูล&lt;/font&gt;" style="text;html=1;strokeColor=none;fillColor=none;align=center;verticalAlign=middle;whiteSpace=wrap;rounded=0;" vertex="1" parent="1">
                    <mxGeometry x="680" y="769" width="140" height="30" as="geometry"/>
                </mxCell>
                <mxCell id="27" value="&lt;font style=&quot;font-size: 18px;&quot;&gt;3. Refresh แล้ว ข้อมูลไม่หาย&lt;/font&gt;" style="text;html=1;strokeColor=none;fillColor=none;align=center;verticalAlign=middle;whiteSpace=wrap;rounded=0;" vertex="1" parent="1">
                    <mxGeometry x="665" y="850.28" width="150" height="30" as="geometry"/>
                </mxCell>
                <mxCell id="29" value="" style="shape=link;html=1;strokeColor=#FFFFFF;fontSize=18;fillColor=#990000;" edge="1" parent="1">
                    <mxGeometry width="100" relative="1" as="geometry">
                        <mxPoint x="20" y="560" as="sourcePoint"/>
                        <mxPoint x="840" y="560" as="targetPoint"/>
                    </mxGeometry>
                </mxCell>
                <mxCell id="32" value="" style="shape=image;verticalLabelPosition=bottom;labelBackgroundColor=default;verticalAlign=top;aspect=fixed;imageAspect=0;image=data:image/png,iVBORw0KGgoAAAANSUhEUgAAAn4AAABYCAYAAABruvpiAAAAAXNSR0IArs4c6QAAAARnQU1BAACxjwv8YQUAAAAJcEhZcwAADsMAAA7DAcdvqGQAABHhSURBVHhe7d0JcJR1nsbxXwjhCAgkRAJyCwQQUEyEWhDlFsZrB3VQcF2UHZmBmnJ11XIXZ7Zc160anQUKFLc8UERUELUYtBDxgOGS+0ZQECUIIQlnuENIluef9w1Nzk6nEyb092N19fu+3Xn7fd+mqh9//+ONWrZneZ4BAADgiheVd4G3DAAAgGosKyvLWypeDe8ZAAAAVziCHwAAQIQg+AEAAEQIgh8AAECEIPgBAABECIIfAABAhCD4AQAARAiCHwAAQIQg+AEAAEQIgh8AAECEIPgBAABECIIfAABABJg3bx7BDwAA4Eqn0CdReRe4JQAAAFRrWVlZ3lLxqPgBAABUIzk5ObZjxw4LpXZH8AMAAKgmFPqWL19uO3futLVr15Y7/BH8AAAAqolDhw4VNOceOHDA1qxZY7m5uW49GAQ/AACAaiIxMdGSk5MtKirKraenp9vq1auDDn8EPwAAgGqkefPmdtNNNxWEv8zMTFu5cqVrBi4Lo3oBAACqoYyMDFft86NcTEyM9e7d2y2XhOAHAABQTanaF9jU27dvX/e8ceNG91wYTb0AAADVVEJCgsXFxXlrZSP4AQAAVENqtNWULhrpGyyCHwAAQDWj0Ld+/Xo3pYtooEdSUpJbLg3BDwAAoBpR6Fu3bp3t37/frSv0paSkWMeOHd16aQh+AAAA1YRC34YNGywtLc2t+6GvWbNmbr0sBD8AAIBq4pdffrF9+/Z5a2bdu3cPOvQJwQ8AAKCaaNmypbVo0cIt33DDDQXLwWIePwAAgGpGI3kbN27srV3k38e3pHn8qiz4nTp/yr4+vMjmH/zctp7YZvvPpllGdobVi461JrWaWOu6rW1Q/AD7VcJQS4rt4P0VAAAAgnXZg9/p3NM2OfUVm7hnkmXlHPe2lu6WuD725/b/YykNkr0tAAAAKMtlDX7Lj66wkVv+2dKz070t5fMvzR+xyR0nWs2omt4WAAAAlKSs4FdpgztmpM20IevvCDn0ybR9b9ugdUPt8LnD3hYAAACEqlKCn0LfmO/GWk5ejrcldCuPrbKB64bYifMnvS0AAAAIRdiD36pjq23s9j94a+Gx/eQOG7Hlnyzvwn8AAAAITVj7+J3NPWudVnSztLP5s0mH2yudJttvm4/21kJz5swZe+utt+znn3/2tlwqJibGEhMT7ZZbbrHrr7/eoqOjvVdCk5qaam+++aY1bdrURo8ebXXq1PFeKR99Tdu2bbNjx47ZzTff7G0Nry1btti7777r5gV68MEHva3Vw1dffWULFy60hx56yLp16+ZtDZ7ud/jpp5/aI488Yq1atfK2hpe+u6lTp1qjRo0q9G8BAICSVGkfv0mpU8IW+h5oOtyuq9fZW8v3X7tfCGuTb7169dyPcOBDNCv2Bx98YG+88UbBBbzcvvvuOxfKTp8+7W1BuOzZs8fmzZtn58+f97YAAHBlClvwO5933l5OneqtVczz7Z6z6V2m2V+7f+xtyZeZnWmzDsz21irunnvusfHjx1/yeOGFF+yxxx6zq6++2nbv3m0ffvihnTt3zvuLyyc3N9dV/RBeP/zwg73zzjt26tQpbwsAAFeusAW/JUeW2qFzh7y10PWL62tPt/k3t/y3I0vcc6A56ZeGwXDTzY51+xM1xcXHx9uPP/7omlhxZVGT/8cff+ya/c+ePWt169b1XgEA4MoV/dwF3nKFTNgzydYf3+CthaZxTGNbkPyp1Y+ub/vP7rdfb7zPsvOyvVfzpZ5JtXEtf291o0P7oc7JybENGzbY0aNHXV829ecrTmxsrKuyff/9964JUP3GatS4mJPVX2vBggU2a9Ysmz9/vi1evNjdNFn9wwJDhN6n/mP169e3G2+80WrWvDgnYTD7UEB5/fXXbcmS/BCsIPrll1+6gHrttde6bapIrl271t5//33XZPn111/b5s2b3a1cFF713kB6vz5rxowZ7nO//fZbu+qqq1x/Rv2d+iOqf2NJduzYYRMmTLCMjAzr2rVrwf5VkZw5c6a99957ron8uuuuc9tFn6mQ9dlnn1mnTp3c9ZC0tDSbPXu2C2FffPGFLVu2zNLT06158+ZFruPEiRNdn0l9h6+99pq7drt27bKkpCR33XRtAr9THY+uhd6r70DH4+9Tn7lu3TqLi4uzhx9+2E6ePOluf5OcnGwNGzZ07wlWsOeggLlmzRrXty/w38Lhw4dtypQpro+hrmXbtm2LfGcAAARDvzVy4MAB91xY2Cp+a7PWeUuhm9l1uiXWSnTTwAzfPNKOnz/hvXKRRvZq5HBVaN26tfuR1sVTMPCpD6A66a9YsaLgR1w/8uqHN3nyZNdnrCzB7kNhrGPHjtauXTu3fs0111hKSoo1a9bMravPn4KWQseJEydcuOncubMLttOmTXPBJ7CJWO/XdgUUBVkFpYSEBJszZ457bzAUDBs0aGD79++/5LpoWYFH9KzQ6lNw0zYdtwKpjmnlypX28ssvu/Cmc9d5KXQpmJd0HRXEda5NmjRx56ngpr6ahWn/ixYtcoM+FH4fffRR9+xTILvjjjvsySefdN9zKEI9h0AKfQrEeh48eLANHDiQ0AcAqDRhC37p2RneUmieaPWv1j++n1sev+tPpQZJ3eO3Kmiwh0KZ+n8pSInCjKpqCjL9+vWzp59+2kaMGGHjxo2zBx54wLKzs12IOn685NvTlWcfGmWsMNC7d2/3t6qw3X///dalSxe3vnz5chcWFV6eeuopGzVqlHs8/vjjLuh88803Liz59H71XdR+nnnmGTd6V5+rYOSfY1lUHVSAU1VPVTKflrVNYTUzM/OS/akqpvNRlVLnpOCril2tWrVszJgx7hh0Xk888YQNGzasxOuoa6drNnbsWHee+pvCI68VyBS8FPoUDAuHPlH/zr59+7pjCVWo5+DTvytVCnWtCH0AgKoQtuBXWv++pNgO3lLxejRIsf9un9/iPP/gApuS+opbLklGdqa3VPUUmvbu3euqO/37978kdKh6pqZC/ZBr0EBJwrEPUchSwFHwuP32210Vzqegc9ddd7kQtHr1atdcraCh/opqxh40aJDVrl3be7e5QNazZ09vrXQ63vbt27sQpvPwaVmfo2ZifZbOwadzUdOmmjFFx6T39OnTp6DJWhR8evTo4ZqD1ZSsZuVAqu6p2b20gLRp0yb76KOPXOXN76tZGUI9B9G1U1O7phXSdzFgwABCHwCg0oUt+NWPLtrcJhqdu7nXenu7y5sWE1W0uqK/m9lthrsf794ze230tt96r5Ssfs3iP6sqKLQp3OhHPbD/luiHW4FIYWvnzp3e1qLCsQ/xq2pqevWbfgOpWVh96fwmWTUn6qGm3eLCkMJL4epZSdQPUdVQNXHqXHS86n+naqCCmUKl38ypJuiffvrJNc/qOFUJ07Hr7zt0KPo/BToGv4+h+u0FUvDz+wcWR3MRfvLJJ65/5p133ulGZ1eGipyDwqL6derfga65Ko+B/UcBAKgsYfu1Ud+84hzIzu9cOKLp/bb4pq+sWe1LA8r/dZ5qreu0cv36Htw6yo7mHPNeKVnTWk29pcqlMKOHwpj/w6zmWVHgUTNd4YcGEehHXwFLVZ3ihGMfogChQROq/M2dO7fIfjRww6/0KSD6U8IoOBXXxKlKYLBNnwpUCpB+/0c9FDAVQlu2bOmqj2oKVUBS374jR4640dL6DG1TGFQ4LGkghQKkjkXnr3Pw6e8DB8gUpgkrtX+dpwatVNZUPBU5B1UBFYT1b0rhWAEQAICqELbg16X+xRGcgf5957P2nz8+5wZlpDRItjU9V1jPhj3ca6Ouech+k3ivW/7Truds9bE1brksXevn92+rbOqzptCkH3B/cmefmug0KrTwQ816gT/ypQnHPkShTmGx8H4UghROKoMqlapWqf+aKl8KqQqg6muo0KeRtQcPHnTbFHI0Elejb8tLAbg81TCFWo3SVUVSFVM1hV9uhc9B/yOhQSDqZ6iAqoE2gYNkAACoLGELfgPjB3hLRb308wQ3NcuxnCxLqJVg36QstD9eO94mJf2ve/2LQwttUupkt1yWFnVaWIfY9t5a5dKgCFWM1GTqjxz1qzsjR460l156qcSHOvqrGbA44diH+BU6Na2++OKLxe5Dj+eff94FIYUPhQ6FweIqYQoh5aEmaVURFezUzKuwqs/RZ6gvn8KMKoJ6XcFZlUBRn0QFNA0596ufhSlI6hh1ftpfsO6++27XhD5kyBD3t7qNW2Bfw3CpyDnoOug4Ff50rJqKRtPrlPf6AwBQXmELfpp4uTQKd71W97EfTu10/fn+2PY/LDY61s3XN2pr8PffHRCXP/K3siksqIqmZkUNtvB/uFXR0rKaaUP9oQ7HPkTToih8KFyVNHI0kN6vh96vUbaFqdmxtKblwvxpXRTs1I9Nx6L9i/ryKWhq3jp/GhdVTkWhSU3F+qzi+jEqQG7fvt0tq3m4PFRdE01/o+9NFUfNe1ieCmowKnIOfvVPx3rbbbe567Zq1aoyp34BAKCiwhb82tZtUzAdS0l2n/7JhT+N3BV/vr5g+vX5xrb8nbdUORTE1Ddt+vTpLjRolG1g5301b6oCqFCoZsTA4Kbqjjrt69Zvn3/+ube1qIrsI7C6pMqhBhAopKo/X2AVT/vU/p999ll79dVXXZO1mmcVhvQ+TUOibT6FDk39Uh4Kcgp06qOmUbuB4U5NvZpKRVVThVJVB/1QJhpBrIqlJjsO7OOm41ZYVHO3gpWmnQmFgrVGTCuIbt261U15E27hOAddM03VowCpJt/yBG8AAMorbHfuEPXzm7bvbW+teOfyztns9Dn2y9l99l7aB7boyGLvlbINa/KP9oeW47y10ATeuUNVKk2gvHTpUvfQ3TEUiDQoQKFIYWX48OGuuuPTskKbwoT2o4eaORWyNDefljXoQVOpKGgpqOk1VXX8uzWUdx+iJkXdVUPVMw2iULBRuFKzoYKqpmnRZMIKcKo0KTQqfKi6NHTo0IJmVk0ho4EWCkJ6vz5L/QFVFdN7FVo0+tYfkVoavV/Nxgo4avLV+emaiUKeKpoayKBmcr+y5VOlUOem49BdRxQcFZ7UNKt1NXHfe++9BdWyku564dPfFr5zh/ava61ro2umuQ9LajrXaODy3rkjXOeg49W10nehwSL+lDcAAJSXfmtErXvFCWvwa1a7qZ08f8pWHlvlbSnZxuOb7PtTpc9TFyg+Js4+ueFDu6pmfkUpVIHBT5UvVVj8hy6WfnjbtGnjpgJRP7HA0OfzK23+SFbNX6eBDAo2t956q913330Fla/igp+UZx+i7Qp7GhCiPmEKaPp79R/TswKImm+1Hz3rdQUdTQzthzFRWNMdL/T5Chp6vyqb2ocqZApxCp1aD5YCqY5Nc9H508TocxQwFWgUNnv16nVJWNP7FYh0pxEFLh2LAqyaSNVnURNL+2FVQgl+ohCrc9RD37f61OmzCwsl+IXrHPRvTH0gdQz6t6BBMIHfPQAAwSor+EVdCAhh7VGem5drQzfcaUuOLPW2VFyNqBq2MHm+9Wl0s7cFAAAAhamYI5rZozhh6+PnU0ib1W2mdarX0dtScROT/kLoAwAAqKCwBz+Jj4m3ZT3+ZgPi+3tbQqO7eszt/pH9vsUYbwsAAABCVSnBTxTaPus+1/6S9GdrVDO4PlOBfpUwxFb0XGpDGw/xtgAAAKAiwt7HrzhZOcftlb2v2l8z59mm45u9rUU1rNnAbms82H7X4lGadgEAAMqprD5+VRL8AmnC5o0Xwl96drplZGdavehYa1KribWp09rd0i066uJcbwAAAAje313wAwAAQOWo8lG9AAAA+PtE8AMAAIgQBD8AAIAIQfADAACIEAQ/AACACEHwAwAAiBAEPwAAgAhB8AMAAIgQBD8AAIAIQfADAACIEAQ/AACACEHwAwAAiBAEPwAAgAhB8AMAAIgQBD8AAIAIQfADAACIEAQ/AACACEHwAwAAiBAEPwAAgAhB8AMAAIgQBD8AAIAIQfADAACIEFED1g7O85Yj3j2Jw6xXw3/w1gAAAKqX9nnt3PPGjRvdc2FU/AAAACIEwQ8AACBCEPwAAAAiBMEPAAAgQhD8AAAAIoLZ/wPgCZG2aM923QAAAABJRU5ErkJggg==;" vertex="1" parent="1">
                    <mxGeometry x="270" y="620" width="275.5" height="38" as="geometry"/>
                </mxCell>
                <mxCell id="34" value="" style="curved=1;endArrow=classic;html=1;fillColor=#990000;strokeColor=#FFFFFF;" edge="1" parent="1">
                    <mxGeometry width="50" height="50" relative="1" as="geometry">
                        <mxPoint x="545.5" y="630" as="sourcePoint"/>
                        <mxPoint x="630" y="630" as="targetPoint"/>
                        <Array as="points">
                            <mxPoint x="630.33" y="680"/>
                            <mxPoint x="580.5" y="689.72"/>
                            <mxPoint x="580.33" y="630"/>
                        </Array>
                    </mxGeometry>
                </mxCell>
                <mxCell id="35" value="&lt;font style=&quot;font-size: 18px;&quot;&gt;4. แสดง alert เมื่อ กด delete&amp;nbsp; และ add&lt;/font&gt;" style="text;html=1;strokeColor=none;fillColor=none;align=center;verticalAlign=middle;whiteSpace=wrap;rounded=0;" vertex="1" parent="1">
                    <mxGeometry x="620" y="610" width="205.5" height="30" as="geometry"/>
                </mxCell>
                <UserObject label="https://fkhadra.github.io/react-toastify/introduction" link="https://fkhadra.github.io/react-toastify/introduction" id="36">
                    <mxCell style="text;whiteSpace=wrap;html=1;fontSize=18;" vertex="1" parent="1">
                        <mxGeometry x="380" y="570" width="430" height="50" as="geometry"/>
                    </mxCell>
                </UserObject>
                <mxCell id="37" value="&lt;h1&gt;Lab 1 TodoList&lt;/h1&gt;" style="text;html=1;strokeColor=none;fillColor=none;spacing=5;spacingTop=-20;whiteSpace=wrap;overflow=hidden;rounded=0;shadow=1;fontSize=18;" vertex="1" parent="1">
                    <mxGeometry x="10" y="560" width="330" height="120" as="geometry"/>
                </mxCell>
                <mxCell id="39" value="&lt;h1&gt;Lab 1 (challenge)&lt;/h1&gt;" style="text;html=1;strokeColor=none;fillColor=none;spacing=5;spacingTop=-20;whiteSpace=wrap;overflow=hidden;rounded=0;shadow=1;fontSize=18;" vertex="1" parent="1">
                    <mxGeometry x="10" y="1110" width="330" height="120" as="geometry"/>
                </mxCell>
                <mxCell id="41" value="" style="curved=1;endArrow=classic;html=1;fillColor=#990000;strokeColor=#FFFFFF;entryX=-0.015;entryY=0.324;entryDx=0;entryDy=0;entryPerimeter=0;" edge="1" parent="1" source="47" target="44">
                    <mxGeometry width="50" height="50" relative="1" as="geometry">
                        <mxPoint x="546.42" y="1341" as="sourcePoint"/>
                        <mxPoint x="580" y="1240" as="targetPoint"/>
                        <Array as="points">
                            <mxPoint x="570" y="1320"/>
                            <mxPoint x="580" y="1290"/>
                            <mxPoint x="580" y="1310"/>
                            <mxPoint x="596.25" y="1320"/>
                            <mxPoint x="560" y="1240"/>
                            <mxPoint x="580" y="1250"/>
                        </Array>
                    </mxGeometry>
                </mxCell>
                <mxCell id="42" value="" style="curved=1;endArrow=classic;html=1;fillColor=#990000;strokeColor=#FFFFFF;entryX=-0.015;entryY=0.416;entryDx=0;entryDy=0;entryPerimeter=0;" edge="1" parent="1" source="47" target="45">
                    <mxGeometry width="50" height="50" relative="1" as="geometry">
                        <mxPoint x="580" y="1420" as="sourcePoint"/>
                        <mxPoint x="696.2499999999997" y="1370" as="targetPoint"/>
                        <Array as="points">
                            <mxPoint x="580" y="1400"/>
                            <mxPoint x="596.25" y="1380"/>
                        </Array>
                    </mxGeometry>
                </mxCell>
                <mxCell id="44" value="&lt;span style=&quot;font-size: 18px;&quot;&gt;5. เพิ่มปุ่มแก้ไขข้อมูล เมื่อคลิก&lt;br&gt;- เปลี่ยน list เป็น input&lt;br&gt;- เปลี่ยนปุ่ม edit เป็น confirm&lt;br&gt;&lt;/span&gt;" style="text;html=1;strokeColor=none;fillColor=none;align=left;verticalAlign=middle;whiteSpace=wrap;rounded=0;" vertex="1" parent="1">
                    <mxGeometry x="600.71" y="1190" width="240" height="110" as="geometry"/>
                </mxCell>
                <mxCell id="45" value="&lt;font style=&quot;font-size: 18px;&quot;&gt;6. เมื่อคลิกที่ list งานนั้นได้ทำเรียบร้อยแล้ว ให้&lt;br&gt;- เขียนเส้นทับ&amp;nbsp;&lt;br&gt;- เปลี่ยนสี&lt;br&gt;- disable ปุ่มแก้ไข&lt;br&gt;&lt;/font&gt;" style="text;html=1;strokeColor=none;fillColor=none;align=left;verticalAlign=middle;whiteSpace=wrap;rounded=0;" vertex="1" parent="1">
                    <mxGeometry x="608.58" y="1320" width="231.42" height="150" as="geometry"/>
                </mxCell>
                <mxCell id="47" value="" style="shape=image;verticalLabelPosition=bottom;labelBackgroundColor=default;verticalAlign=top;aspect=fixed;imageAspect=0;image=data:image/png,iVBORw0KGgoAAAANSUhEUgAAAs4AAAIVCAYAAADBFXnAAAAAAXNSR0IArs4c6QAAAARnQU1BAACxjwv8YQUAAAAJcEhZcwAADsMAAA7DAcdvqGQAAHQ2SURBVHhe7d0HYBRl3sfxX0gIgdC7gApYQBQFRAQFFbAAKqdYUFB8PTgbdsQ7sCCewp0INhT19DwLWBDwUEFFQA8ERQQEaSpFBKSGHgKkvPPMzi67m91kdrNJNsn3czfOM88zs+V52J3/PnnmmYSm3/TLEQAAAIA8lXPWAAAAAPJA4AwAAAC4QOAMAAAAuEDgDAAAALhA4AwAAAC4QOAMAAAAuEDgDAAAALhA4AwAAAC4QOAMAAAAuEDgDAAAALhA4AwAKB45JWhBeKHqK54XhBeqvuJhiSMEzgCA2Ap14gu1lCShXn+opTQJ9f5CLSVNqPcQailNQr2/UEu8CvVaQy1FgMAZAFBwRXzyilslvR5K+uuPpZJeFyX99UejCN4zgTMAIDpFcJIq0UpK/ZSU11mcSkr90JZHFVJdJDT9ph/VCwCIjHPmqJqcqmY1jlej1NqqVqGKksolegrKsMzsLO05tE8bD+zQ6l2/ae/hA56CBM8qbvid/WnH0MK2pRGn7VnW27KwP38EzgAA9/zOGK3rnKwz6zZ3thDOD9tWafH2n50tS3EHXEFnfdrRvbhrS4PPZJ5i3WaJNfqf8ZiTBgAgtxDdK+c1bKWWtU5wtpCXBqm1VTm5on7bt8XJcRR10EU7FhhtWfKEbTMjinZjjDMAILwQJ2jTq3Vy9eOcLbhh6svUWwBTtyHqt1DQjjETti2LCm0ZsZBtZkTRbgTOAIDQQpxUzPhJ/hQcHVNvpv5yKeygi3aMuZBtaeqZtoxbsfr8ETgDAHILczIxFx0hemHrr7ACLtqx0NCWJU8s2ozAGQAQKI+TiLlSH9HLs/5iHXDRjoWKtix5YtFmBM4AgKPyOXmY6a0QvXzrL1YBF+1Y6GjLkicWbUbgDADwyO+kkZ3D/L4FZNefVY95KmjARTsWCdqy5IlFmxE4AwDyP0HnFDQCQID86jPa6qYdi15h1SltWXgK8PkjcAaAss7NCZpzdGyZ+ox14EM7Fo/82jKaOs/vGNqyYEzd5ff5C1NM4ByV7dp97ltaG7B8pf3bnGIAKC1iHdwhUKwDrnBox8KXX1vGqgloy9iJoi4LHjgvXxYUQHqWLVP3OzvkLWvGV7mO3TrjoFMKAChUeZ03vCcVztOFw1uvsQiEaMfiRVuWPG7aLERRofU4p/9zofb/4WwAAEqWUCeTWAQFiKweza757Z5XOe1YuCKtS9qy+EVaj0FFhThUY4N2vrZBWc4WACDOcM6NH9EGQHkdFhdB1W79ePPVGnrzHO1zckq9wmhLFC+/tinUMc5Zn32nXd8cdrYAACVCjAOuDaOswKnGKP242ckIqQwGWMEi6PUqiJg076FlmtHMtOsILVzr5OGoWLdlTD+TP2t2jTj6rB1ap7k9B2hkz8+U51dEYXNZx4V8ceBB7f3nUh1kyDIAxJdw54g8Th4xPXeXYUVSj4X8JJkLftLCet3U/opF+nFO2b0yvrjbks9k5PKsMxcVWsiBs2XnCqWN385fIACgJHK+vDlBx5avPoPrtbAqOqbteEBrPpokXX6e2l/QUmte/7Z4ewqjdWidfhw2Ti8//7OTEZ2o2rIg7eAcW1j/VIpchSbqOPU1DZnaTQ2crMIWts1cKPzA2XLojYXas4rRzgAQ10rNmbiMC9OOMWvenT9p+b+rq33nk1W3U0edsGyO1i5zykqSnRv10/MzteGQsx2PCrsty7CwdZhP5RZK4Jw6oLVSnbTHdqWNWa0C/9vMOqwjyzdo34SF2n7vF/q959Ep7Dbc8oW2Pr1a6b+FGlOdpj3/FzjlnVnCT3uXpYMv5t5/y6fuptjLXrtBe57+Spt7O8f2/K/+GLFM+5fnM2bl8EEd+nad9r72nbbeO10bfM89Ub/f9YW2v7FOGdvy+AESamrAR9bZF2jm/LFJe0Z462yitn/N+BmgzIrwpOs7j3C2jg2nHiM+cQdnR9scBWzHfV/9TwvrdtcJba2Npi11Rud1mjNlmTI9xWVLtG0ZrJjaskyKts6cwwqnx7lRE1W/u46z4Vi+ULtczu0cSva3C7XhvPf0+y1fafuLK7Tv+y06stMptGQu36IDU77Tlj7vafMzm4I+wDWV0r2mkz7qwI9pynbSAQ5vV/oEJ+1znCqfVdlJh2EF9hlvW8HpjV9p55QNytjo5O/co4OfLta2WyaGeG0eR6Z8od86T9SmQXO0443VOvD9dr/9DurIoi3a99ocbb5ysra8nxbRZyzbCqj/uHqmdn7qrbODyuaaTQAu+M4xxXyCzlj5nWbfOVzP2hekWcuZQzV+0GdaE2p47cJJ9j6zF1rpDYus44ZqlHPM5Od/VoZnL+2bM1WTL7rD93j+ZQEyd2vNq6/pzXMGBDz3Br9zUMSKuD59T5cd8qwXgW1a/d53qtL3ZOfP6nV1wp9aat/4n/Sbi96xgDpvdq/ezKsenXof792/xgA923OcZn+yMVc77Zs0yt7HbvNcnIvhRnmHZDjbpz6n5WZzxFDn8a/W+Em77T0iUmLb0qUI2sFnz0YtHzVOL5/pqdeR5zxn75+5eY7G56rn0BcGey4qnqQNVjrj28809fp7NdI8v/msjlqkXQX5pebUXTRNV0hDNRJV4cqzVfNUZ9NRkLmdc/btd/1rNuPDmdr2RuC46grnNldFJ+0z5Q8dChVA/rJduUL8S5uqUl0nHUbG+Jna/PKWPKfgs1/b27kD36zdeR931EGlPz9T22e4/BGStU17nlsc/h83ABj5nUGKODg46og2vzRCz5wzSt8uqq6TB92jmybeo56X1dP2T17T682GWsHSEWffQJlr5uj962bq4OnddfHYq9S24TYtHDZU/3nmZ22b9JzG3rtaKddcr95WWfumu52ydYHnmgPrNPfGB/T66J+UctHV6j1xsHpddawyrOd+2QoGlkc7uNepz7DVmm97OOtgbtrJxS5hrV2mH7+srradmyvJyaphhmtsm6Tlsw84OaHt8tb55Vep79u3q/NldbXt31Y9Xjwudz1aP3imdh+g1/+6SJmnd1Kvt4ep79iualphmWbceK+euW2Odjm7Rq66Ggzvpx73dfIE/xd2Uw+zbS3Nji9v7xGRaNsyv3Zw05aFLZp22GB97trdq/EjlqnKZf2sYwbrostStWHYY5o03tuj6NZh+9/NMwOXKanzVer52gB1PN36rI4YoZet11RosU0edV94Y5yTa6ranS1Vwdn0iMXczhVV/txmqj6wreqMuFjHjO6k2n2aqHwtp9iR8dpC7fOfIqdRfVU+y0n7rNOhX5ykn0M//ZbrNVY5t34+lbVBe6dsd9J5y3h5sfaH/bdTWSmXtlCtgWer7mjr/Y04R9WvbOj7gvI4qP0vLFe6m9j569Xaa/+kBgBLQc7FBTqPf6f3T/X0PoVeBuj9j5xd/WTO+VBvPrRINe4bpvvm3aMet3RSsws7qf3we3TvvGHq3PZnzej7odaE6O2c/egiNX9vsH3MGX2vV6+pI9TrQuvb+vGn9PoIqceUo2U9Jz7mlM3x6zk9og0vvaRpm87TTfOeVe/h3XTGhWer7dDb1X/GPTpDczT1tSiGKBRxPOSLAWIQiG3+5DOtqWsFTu38AsymTdWspfTtJz+FD2Tmvan3Z7TRbd9ZdX53V516WVddNHqo7pp+vY5bOzOoHq0fOING6NsNVqC24DndNPp6tb2spU612+k53ftsJ+n95zR1fLSzedRVs7t7quOANqphNtudp45m21ratg0caJqvWLRlQR6jUP8tRdMO5pjn9KM6qfePL6nvcKtOLzOfmQG6adaDqvuF9QPL2dOdSXr/k2bq/z/PZ/XUq6wfOW88pt5XSPv+/Zl+imYqxALWd+EFzpaE009XzT6B/bxRz+2cXFnVhnbX8bOv0bFPnW09bgtVOb++KrZvoqoDO6nRyNZKcXb12K5936c5aaOyKl7U0El7HdSBn/z3Mfbr8PzgvBaq3CHZSeeloird3V2N/9dPTb8xy3U69rFmQa/L2KS93wQ+R0KlJqo1+k/Wsb3UYGhbVevTTJXbW+/v/BNV84GuavBYEyU6+9p2rlb6j27rsY6qPnbZ0df1ZS/VOsPN+wFQlsUy4JKa6Iz7PL16oZerdIYVfAU6oNXvT9K+uj110aCWub9La7VUp3u6Wufq0L2dDQb21BnHORu2ujrh6rOt9W7Vvfv6XGUNOjex1sv0h/cv+nuWacmIdWr74FVqFtQ5o+Paq+111sl7/M9WqBAlp14jqt5YNEXU1mnth+uk607T8QG9Yk3U9Dqr7sb/T6vD9cBva6rOD3ZSjcBeIKW076ZOfa16fGbx0R8sy77Vt19KzYZagdpJwT3A5VX3pp7qZP1bWf1KHM3mEU1bRsH3+IX9REY07eA95tHgz5el2snqNLSns+FWE/W4v5vqBvyesX749O5mrRdp22+h/9rkSpRtVqiBsxmyUfGGc1Q14AvHzO28WOl7nE2XEs9vq1qX1lFimHgv4dSGSj3J2XAc+v1gwBjmpDOOVyUn7XXICpIDegu2bVf6907akXhjI6W4iDMr3HyB6vWuo3K+CDdZ5S86W7UG5h5ffejHPQHPW6F3J1VrX83v2EBJHZoGXXBpPcZGd8M1Uh/ppNoX1Tz62BUrK6lumCcCUPa4OXMU+DxdV80HeHr1Qi/d1fwEZ1efTdo23lpd11rHh+kITDn9NJlRgctX5g5fjzs59/i6JCdwO65Z7rIq9UzeOh3xBnC/rNO31mrhjTeF6CG/Xq8/bxVaTxtxj7NRGHFPIbdj5pxvNWeZ1PGCo8M0vBp0MsMevtOS2WF+RtRtpgZNnXSAVDU4y/xi2qr9zljnfT+vtgKxljq1U7jxkU10nImblq3Trqh/tcS5IvlM5i2advAc00QnnB76mKRmTezPq3vNVCc4ALek1Lb/VqBdaXkPDwrLTd2FaYNCDpwt1Rqqxr25e0u3v7Ml6jbP2X9QR5ZvUfqM1drjzLDxxy1faWfwsIs9hwOfo1F9pbZ30l7fb1SG3wcve+UfCmyGiqrSro4SnK3w6qtqt9D7VTgvxPjqr8OP2c7Zv1+HFm3RgU9XaI89w4b1/m6fp71OudehdDeDXlqoapd8LmoEgHi0eaunJ6tyhVyBmo9TsC8zd89Tldrh/+zuDaDzsu83z9+Bm/05VA+5d2miKvZehSBc8BTBydP3EAGPFcED+BzRb7Nn2hdvze11fe4fEue9ZbfV6knLQo89Pqdu2HpKqhzYpbVr7XfWfyupfO4/1x5ld4AeVmZUv1pizE11ugmE3SpwW7oTTTvs27Da+q/V1sF/oYlaDVWs5iRjxq/OomiXwg+cLYld2qp2t6AhG1bAu2tpJKOdD+vI18u07caJWnfJRP1+yxfa8th32unMsHFwuZve18qq2CV4uMYGZfziHfJwWBnf/+qkHbWaq1IbN72zx6h8IycZrFG1oLHeIWQd1MEPv9OW3m9Z72+yNt31hbaOWKid9gwb1vtbG+X0cV1qKZlRGQAiFLuAqwAa1LNOwZb9h/Lt1W2QGvyn5IKr0tDzpV7joq4hesi9izNONiK5T9xRnL8jV5Dn2LNMy5/ZHXAhXfDSuXcTafZnZmbU3PZYwZWTDOYJ0JJ9P2aqHGeG06TrSL5XftVQipshyYcOqfAmYC1gw0VweJH8G/ETTTtUrHmsJxGusXfuKsBFnYUnkrotksDZ9NqmDmgbNNQgTbvHrtYhV7Hzfh0Y8Yl+H7pY+6MNIB1JZ+Ue8rB3iTPLxeE0HZxiZ/lUuK5hiDHKkcuzog9u1+57P9Efz6xWeqQXnAJAYSviE/ZRdVX3Cmv1XvipzjIW/aTlqq5mLcP1XBRA3boyo0eWL1gb3XCMUiRjznf2sJWOd9wU4seDZ7looBmusU5LZq/zHOTPytsW8q/q67ThY2vV+TQ1cP66X+OEpqoiK1CfH24chnPMhU1U1+mNrHK8ZxzIto0hppP7eZ2iuYYsYtFEttF+torgMxlNO1SsZzonv9OapaGHUOxa+pPnr0jxIMo6LKLA2XJME9X6a1Bv7/KF2vNZ/he4Zc1YqK1BNx9J6tLCnlWj4YfXqfHnfdX0m2tUt4tTmJe69ZUavN+EjcowLyPXNHQ1Vfms3OOTI7Ztfx43f8lSxnvfKW2R/w+CiqrYs63qju6uY6d6319369UAQAEUWwAcLSsg7t1NVbZN0ox/Lss9Y8OenzX/uZlS2546tVPse5zV9Ey1NVfvP/Ou5nybOxDIWDxVCxc7G9GIZXvkFbQFlEXzpLu1epJVz+qpZufkUc8tW6pVS2nzi9+GmOXkM81+KXie7CPa9u8PNW2ZdGrfM4/23Ldto05tpdWPv6uFv+QegrPr/amas6y62vdvf/QYK+o2Y2d/HP9DUI/mNv344tTQwVpqqmf4yJb9BZ/WzK9ai7pnuNBE0Q4pnc9WZ+sH0MKnJml18PzcG+boizFrC29oUxEpusDZktSztWoFjQo/+P0WJxXOfqV/aqa/9tP+HDX4e1t7Vo0KxySrXGUzlCJLOf4zZ4dVUZUuPNFJe63TIevnaK5p6M5qnuuCw/DSlR1mtEjObzuDxk1bzq/sGZp3eLsOvBY4w0Zin06q/9cWqty+jsrXct7f4awCTuMHACVPSreb1HfoydrwzHA9c85zmvb8TC3/co6+Hfacnm03VDPSuqrv6z2dm3HEWnWdMfwenVH3Z83ofo9ev/ddfTtpkZaPn6ppA+7VM12mBtywodRa+4OWmKkC724dNJtGsCY6tb8VOW+bqbULggKty65SszVP6YVrXtOM8d956vDme/TsoO9Uo+9g9biqurOj0UQdX/dM9ze53T16c5C33t/V1Gvu0Kjblqnuow+qRze/vx83aK9O1r8TfTlOL/cc5zzHu5rc8zH91Ol6dXZ2C1CtkRpcaK3//ZomDZupHydN0uxPorgBSrEpYIS+ZpG+fX6q5uZaFjk/PqJohwot1X50V9VYNlVvnjNck0f4fV4vmq66Q69WiGv9ikH0dVekgbPpwa16f/C0cfk5qKygWS50WrXcF4ps3KIDwfuFUa5Vo6BfPAd18OcNuaahq3RR/fAXpOSyWvvmhoqcD+rA1BVO+qgKZzjvYffBXH8CTDm5Wq6LDHN++iP3TVkAoKAKtacyFsrruMEjNGTqAJ3abKuWDxun8dc8p9kzDqjpoKEaPOt2nVqYZ+LjOqn3gmet4P1MHZkzSVMHjND4x2fpj5RO6jHjaXVu7ewXscKvz7BNG+FT75oz1zrDSe07NM33nGjfDEW7NfujoL8QJDVS27FPq1enI1ozZpTG3/mWlm9sqYveflZ3jT37aM+xl6/eWypz/kxPvd85R5vrdVVvq97733dy0Gsx/04e0m3Du6rujh80+85RmvriOqXcNFS9+x4b5nXXVduXR1hBe7I2PD9O74/4QZkphfCXi1iKZXf2sjmaPewtTcu1rDv6gzDidpCqXHa77pp3jzq22aXVo8zn9V0t2dlIF30yXJ3PCh4sGwcirNOEpt/0K1grLF+mtbcE/q0q9bFrVO+iXPNIOLKU8dp0bX4jeK7kowKP367d505XwN6ntlXDcS1UwXvNXtZ+7R8xXds+Cxr/3KWTjv970IwetsM6MOI9bf3U2TR6nqgqU3/16z1oqDrvd1WVkMPmQrwmWx1VH32BarSv6Al8Dx9U+r+/0pa3g2+MUlO1/nOZqpne7G3rtPXKOQE90olXXqBGDxx39HXvt57vfuv5gmcNH9BdTW/2u7V5iLYIXwcAypxQ3/ZhThp2tvmPvTZLtr3+S5tephgF8K/Fkz2JhHLWYtZmSTD/zy1kZggh2tGXZRLeuVlpx5jK1ZblPO3lui1NG4XaN6g9A9rSpO2lBLblt+9qaPdJav/um+rp31NdhP61yGozU+dBnz8jVxOFaLMi7nE2EpXSt62quZ6qpKISg+/4t3yhtvzfTO14bYX2vDhPm/tMzh005ylZFc8NGq4REDRbujRVpYivNbEC3EETte7ct7TWLJ0nhgiarRrodroqe4eAVK+Y69da1pSvtOmWedo5YYXSnp6p3/uECJoBoJAEnbMRa2HqN2S90xglC+2VhyPaMGeRtW6pBifHYc+zS8UQOFsq1leNvzZz2Qsa6o5/VnC5dpP2vrHQCi5/VcZGE4w2yTVbRl7KnXm8qjrpUKpc2DDCXlorwHfzY6BWE9Ua4NebnFxHlW7M3TufufxX60fBQu2esklHdppxfk2sZwAAlHnEZohbu7X8+ZnaFuImdxnfTtW0EetUpXc3NQt5M5ySoXgCZ0u5c1urzpXuQsGkS89WvUvD38QjsU1r1Xugef5zJfurbAWsVzrpXE5UpVaRTn5cR7WeuCDM0A7Hqc1U75VOqnyMs21LVMWbLlDNNuHrIunSC1R3QKPiaywAABAf4vyHU+bicXq28R32xYTeCw7ti2m7v6sNbbup19Cz42dmjSjqshhjsWRV6ne2KrsaslFZqUMv07EjWqtKm2q+3tqkU09Uzce6q9GzLZUScXdsslI6NHPSQfo0VaVo7lRT/zjVef1PqjfgRFVs6n1BlZXSpZlqWa/z+HFnKzUgaHZUrKPqz16mY+5rptRTvT8QKqr8uc1Ue3QvNRp6nJIYpAygIKI92XqPCzloE1ErrvqkHWPLfD6irdNwn0m3wz3isi2r69Qnh6nX3Z6LCT0XG07Vz9ua6YyxwzRk+gA1i4dpNdzWXYi2KPjFgQCA+BfBSdqXZRImbW9b/8nO0c2t/qSkcvySj1ZmdpbeWPJfeS4isxZn5T2RhzyfB2ea9gjeL7929F4cSDvGjN2WP1ptabePtTgrs+26HY1Q+wa1J20ZG7k+f4bpQnbaJle7hWhI/voPAHBtd0aZmLm40MRL/dGOBVdsdRgUy9GW7uWqq9xxcb4InAGgLIjiBGELOm7TvnC334UbuerPr35D9lLGSnA77qUdCyqvtnQl2vamLaOWq66iaAMCZwBAgLwCuFU71jkpRMOuv2gDphiiHQsuZB0W6q+f0FbtpC3dikVdETgDANyxYoK9hw5o4ebcd0NF/ky9mforsGhis6Bj9h6mHQsisC2L95cQn0l3YvX5I3AGgLIsrx6yMGWLNq/S6u30ckXC1Jept6P86raoeymdp6Mdo7N6x/qgtix8Yf+J0JauBHz+wtSl249hYo3+ZzzmpAEApZnLE0Mu9hX91sHmeCttVut3/aGcnBw1qFrXFCIPCzcu17ebfvKcmM3if0W/nfSkQ5643Z7NQ8h1qHdmBlNAO0bFbsuNVlt6ux1j0ZZhskPyPgafSdc8bbbMajOnvgrYZkxHBwBlSahvfN9cV0f5skzCpO1t6z/ZnoIcMyVWdraqVqis5nUaq1HVeqpesaqSEpkWKzMrS7sP7tXGvVu1avt67T203zpZl8sdbDmrSE/cYUXajub/Zpt2DCvPtvS1nbV42zbStjT1H2pf2jJqYdvM1LNZCvj5I3AGgLIk1Dd+fidpw5471pu21ub/9tpJm7WT783zHWs2naTNbyMgPw7lOm/6ZdhJ76bZsLedtXVyTvDLC+ztMqx1tMFWOCEq05dlEiZtb3vTnrW3He0fQybD245mbWc5207Sx28jID9O5apKvww76d00G/a2s46wLc2uIYUqMFmh6i5EhfqyvAlve5lNk2f+Xwo/kwHV5rdhJ72bZsPedtbh2sybZ/4T5eePwBkAypJQ3/hhzpR2trfMP+09GVsCgi7PAZ4y32L+46SDecv8hMgqcm5PoJ4TsFlbCZP2LZ4zsqdX0jlp2xnWYqetxVl5HzfkcxrhnjfS+vRvB2/aL6iys8w6r3Y061Ds/Y8K2ixWIes1XJ3aayvhC6jMEqItvfuW5LY0nFUAb5mfEFmFKmT9has7e20lTNq7mP9Yeb42s/NNnrX2fRadbW/66CpQiEwCZwAoS1yeLA1ftkmYtL3tTR9de/fz7+3y7WuvvGvPyuaftuXKiANBJ03/TW/ad2K11iZpL0eDZbvY/Md/HbSvneNZ5RaqwGSFqi5vPQfxZQe3jVmbNrM3Pe1o7+tN2D2axtF9PGvPyuaftuXKiBNB9ei/6U376tpam6S9hGlLbwBmNnyBtifP9zD+QmZaTHaoKvPWdRBftt1GZm1vOOmja+9+JfszGVRn/pvetK9erbVJ2kvhfv4InAGgLAn3je89kfrxZfmfZP3TfkGXke0NtMy2vTjbhvc4wz/fCN4Oy/WO+Qh3lgwheFfvdvAJ1WzaJ2ZPD5ev2JswJ3L/vKBy3/7+QmZaTHaoqvCvYz++bP828WaalTe4cgS0o7eNvfz2C3gNQbvlLaKd8xGmjkIJ3tW7HVzPZtNuo2JsS8O/rh2+LG/CrPzTRf6ZNCLa2RKmLkIJ3tV/279OTdJuC09euaAfM7FsMwJnAChLwn3j+59EHb4sb8J/25e2Ft/Z+eiu/sf48gz/Df/8UAIOLGRhTpK24CK/fe2kd9PJD3gocwb3lZvF2fBLB+zvL1yByQ5XNSHqzJflTfhv+9LWEq4dnbQvz/Df8M8PFnBQEQlboRb/oqD97E1vlrWR62G8bem3j2d9NJ3rGK9wBSY7XBWFqDtfljfhv+1LW0u0n0kjaDNA8L6xErbiLMFFfvvaSe+mkx/wUHl9/uy1JxFwjFfITCubwBkAyphQ3/phToi+bG/CXln/MWvvYphyZ5/Qx4Tg2zFIuP2LQuhzZdiTaNgTsEnYi3fbWcx/fHmehO+YYOEKTHaEdRrQJr5dnLR3Mexyz0bAMfbas8rFt2OQcPsXlWjq1V57Er7dTMJevNtmcTZ8eZ6E75hg4QpMdoT1GtAuvl2ctHcx7HLPRsAx9tqzysW3Y5Bw+8daNPVnrz0J324m4d0wK+/iPcDe9qR9xwQLU0DgDABlTQQnzfAnXCdhOraC97EEPJS398s/Ly8hXkeRCXsWDeLdzfmbcK7DvBlm5f2zcYiTthHyKcO9Dm92uCoKU3e+bG/Ct5uVMGnvYvg9RsBxuY7Nh9/jFItwdRjMu1sB2zLs04Ur8GbnVU0h6jCgTey1Z+VLhPlMGr7NeP1Mhq3EIN7dom0ze+1JhHzKPF4HgTMAlDXhvvXDnBx92d6Ebzcr4U17/zIc9BgBm/4bgbsdFXR8sQh30vTP9tsn1+7eDHPC9pU5Ce+2s0+4pwpb4J8dYR36sr0Je+WftuTXjsGPHbTpE7xfcQhbuRb/Ir/9ch3izSgRbWlYCW+6pLalm/oywtW7N8MbMNubTp5333DHeoUrsLIJnAGgLAr1zR/mBBmQ7d2wV/5p/7WV8KYdIR8jlDyKiozLk2muc6vZ9mZ6y+x1cJ4nEe7cHL7A4l8Urq7C1G+uNvBtOwnvtm/tv49HrscIJ4+iIuWyjnNVuXfWDG++rzw435OgLWMojyrzr89cVWu2vZneMt8+fvl5PYZXuAIrm8AZAMqicN/8YU6gvmxvwrdb8LYleN8gYc/RYQuKQZgTZ74nWm+5bz+/A0zS7wHyfaxQ/Ivyqq786t6b8O0WtO3Lt+T3WMHCFhSTMPWZb/17y337Bef7CvJ/rGDB2XlVWX717034dgvetgTvGyRsk4UtKGRh6i3fevYv96WDypx9832sUKwiAmcAKIuiOFH6irwJ365+x/j2cdaGi5NvcZ2f85LX+dPHfydv0pcVqsyTyPOxwxWGyg5Xb7Sjj6t2NGLdlnk9caiicHVXRtvSVbvl2WaGs+Er8yTyfOxwhd6HInAGgDIq3Ld/VCdqI0ReQLmluM/GsRB8YvVuBmT7bfjKPYmoTtpGqKK8qjNMXQdkl+V2NCJpS/882rL4hGszw5f2y/Qm/Y4L2zQu2sx3rSEAAK55TzBm5TvXhMjzpn3bViLUEo9CvU6z2GUhFpvfhn++c5z38JDyKgxXlNfjhRHwNP7vx8cvz5vvTfu2rUTwEs9CvV6z2GUhFpvfhi/P4hznPTykvArDFUXxeAHZ3g2z8uWHyPOmfdtWIniJF+Fem1l5F8M/7U0ElPsK/ZOBwhZY/IrocQaAsiqvb/88eqFC9nIZAYcEHR/+4fIuK255nEtzl/mfXb3ro3l5nZdtLk/cueRZt+ELY9qO4fLjSV51GFAWtKN3MxZtmd9xedVjWW3LcHWWK98vw7/MbbvlVehXRI8zAJRVUZ5ETJGv2H/DrLz5vo2gsqBsW6iyeFmMUPlmsQVl+Jf51aFfMrS8dsj3WGcdSh6Pa4p8xf4bZuXN920ElQVlh8yPt8UrbFnARuCmXz36JUPLd4c85HVoHo9rinzF/htm5c33bQSVBWWHzC/OxQiXH5zhX+ZXD/5VElJehUFFBM4AgNDyPNMEFfufmcwq4FBvRlBBcHa8LgHCFPpv+teFJaCeQslrh/yOdSOfFxBQ7L9hkgGHejOCCoKz433xCVEQtGnXh1+d5FOVee+Q37Fu5PMCAorNhjfDrAIO9WYEFQRnx8viE6bAf9P/fVsC6iSUfHcIROAMAGVZAU8qQeeowAyz8l98ggvcLIUh1PPktzhCZQdVRtBmaHntkN+x/gryPJaAYu8L92aalf/iE1zgZiksoZ4rv8URIivg/VuCNkPLdweXCvg8uV6rf4ZZ+S8+wQVuloIK9Zj5LY5Q2UFvPGgztPx2CFFM4AwAZV1BTy6WXCcpb4Z/pkmGW/IV6qCCLvkIdYh38QrxPoPfdlh57eTm+GD5HZPPi/K+7oDdQmWaZLglX6EOisWSh1C7+y+G//v0e69Bm+Hlt5Obx/CX3/4uXlSu1+7N8M80yXBLvkIdFMmSj1CHeBevEO8p+C2Gld9OYYoJnAEAYU8SPq7ORJ7dcu3qzfRfgpmseFuC5fM+QmSF53rHGHP5vCHfizfTfwlmsuJtCebifYTJDi2/Hd0+TrD8jnP5AkO+F2+m/xLMZBXnEiyf1xwiK7z8dsyjmFk1AAAebs4GeVzZn5coD4trrk/SwdwcGO1jG4XUjqWxDb0KrS0L0o5GIbWlUdLbs7g+fwkzDi4pxR8FAEAkctyeTfPYL9ITsuvnLAYJEZ6d89zd5WNF+pyh0I6BoqlT2rL4xePnj8AZABAgFidqf3FyDi4Urs7FEZz8YxFoecWyHUtzG/rLt/pLQVsapaU9XVexyx3dtBljnAEAAVyf8M1+3iUP/rv5LyVJqNdvljy52snD1HksAy0j4nbMg3eXUEtJE+o9eJew8t3hqLhoy3z299/Nf4lXoV6rWfLkekcPt3VMjzMAIKyI/2RbVromw3F58vWKdYAVStR/dqctnYR7cdmeZa0dC/kzSI8zACCsiAMBs3/wUpoV4L0WRZBlmOeJ6rm876mIXmex83+/UbznomzPiPi/J+9SWhTwvUXTZgTOAIA8FTgg8D+pBS8lQajX7V2iVFRBlr8CPaf/ew61lBShXrt3iZKp16JuzzL1mQz1Gr1LAURbhwzVAAC4FvWf/eFT1EFWKLRjbNCWJU9B24weZwCAa+ak413gXrzVG21YMPHYlrRneLGsIwJnAEBUYnkyKm386yae6yfeX1+8KSntGe+vs7AVZj0QOAMACqwwT1QlRUl+//6vvaS+h1grDXVSkl97pIrqvRI4AwBizv8k5r+UBqHel1lKm1Dv0buUFqHem3cpbUK9R7OUNKHeg1mKChcHAgAAAC7Q4wwAAAC4QOAMAAAAuEDgDAAAALhA4AwAAAC4QOAMAAAAuEDgDAAAALhA4AwAAAC4QOAMAAAAuEDgDAAAALhA4AwAAAC4QOAMAAAAuEDgDAAAALhA4AwAAAC4QOAMAAAAuEDgDAAAALhA4AwAAAC4QOAMAAAAuEDgDAAAALhA4AwAAAC4QOAMAAAAuEDgDAAAALhA4AwABbHgNV1UsVXg0ne60pziEm//Os0aeqf6Nzbv7VI9dM8U/brHKQOAMiZhxsElOU4aAIpU2geD1Pummc5WAfQaqffHd1dNZ7NImcD5/LHOhqM4X0+ApZpQsZ/ecLY8umrIr6PVpaGzmadDWvLopRo8aoez7eg3WlNe6arKziYAlBX0OAMAwtintDVBQbPx1jptcJIAUJYQOAMAwqii+qc1d9JH1byluY5z0jG1f5N+nTpFr9x6i8ZMDhGwA0AxI3AGAIRRQS0Gj9aw+zrquHpmu6Ha3TJMTz7ZMabDNLZMHqmH2l6oi+pcqtt7D9eHby3QvkynEADiCGOcARSfjH3af8hJB/hRE+vfqQnOllefj+bomvbORoBkVa5WwUkXsVI9xrlorBjZSvc87mw4Or75pYZdW9vZAoD4QI8zgOKTUsUKeEMtVRUqDK5QI9S+ZimmoBkAUKYQOAMAAAAuEDgDKHUOb1qqWS+N0ZjL+ulGv/mVbzz/Fg2/5y3NWrBDh51985WxQ0vesh6r25Xq7TxO77Z36oWX5mpLtPMZZ+7Ths+n6I17BmmwGdvrfY2Nr9Tgy4brlbfmasNOZ99iZqYM9L0+7zJyqVMaZOc6LTB1ddktzrzPnsXU++Bbx2jqBwu0Zb+zr9/818HDNIy5N/nVS8VBmrXJKQCAYkTgDKD02LNOsx68RTee2E8jB72l6TOXaotTZGxZsEBzXx2jkedfqEtPG67py/c5JaEdXvq+hluB7eBbrcf6ep3vpiZpy+dq6qA7dWPP17Ril5PpUtrXb2l4q07qf8VwTXh1ppYs95s9Yus6LZk5RR/eeqf6N7Ke9/G5SisRF8nt068vDdKNja7UQ6auZi7Qhq1OkcXU+5K33tILN92iWSucTAAogQicAZQOv83VCz2v1MgXFri7a9+aKRrTdqAmLAh5daIOL3hNg88eqblrnIxQFozV8Fvfczbyc0i/vnCnbu82Ju/H9NmhJSOt/W+dHhD8xx/rfY0aqNsHzYzz1wkABUfgDKAUWKUP+92pqQucTdeW6o1rH9Os35xNr4yl+vCusXLTOZq21d18w/s/HaOHHpwb8a240yYM0ciRS90PLSlqm2Zp/KPBQzdq67hr++muN8dq1PvDdOt9V6rFCU6RV1IVterazl5ylVlqnuop8ywNVTnJKQCAYkTgDKDE2z/1fb2SK2g+XT3ffE9T9i3RjIOeZcp3I9WznVPstXW6Xnl9QUBguuWDV/VGrmG85vGmaIrzWDP2falRj3d0OeXcKn32+Pu5guaal96pUb9+53t9M3aFfswVj7+qma56qYve4VUrNddJ+9zxmMa9eb96XttRrXpeqatHDNNzP83R62/2OxoAt+mtUZ+8ai+39nXy/LR4cISvfNQn96udPY80ABQvAmcAJdwmzfn3FCd9VMfXR+qua5sH9FRWPr277vr3MAXHzmmjZmqJ70K/TVo8OVcoqHYvmsdrcvTGH0m11WrwaA25L/+5hg9//aUmBgfipw/QsP8MUKuGflPppYR7zLmaOm2Vk44vhzNCDHVZuEq/ei8C9Kmi4661guk2ziYAlEAEzgBKtq2rtORzJ+3TT3/qFeYOHyd0UtdeTtrnff262knuWadfcz3eler+p1CPV0GtLrvCSYe3YcFHuXqbW916pVqEvP2e9ZhXXJer1/nXb49enBhPKh/bUCc6aZ8FY3XPabdozDPTteK30GPIAaAkInAGULJt3aQNTtKn5ymqn+Kkc6mt+qc5ST+/rHfGKu/Ynvvxup6uE2s56WDHn6COTjK0fUrbmHscdIvmedy6r2FDtXCSPpM3xefFd6d3Vc9LnLS/rQs0fegQ3dP8bPVuO0Qffr5JuTqhAaCEIXAGULJlHNavTtInydyEO0o7d2qJk/SplhL94+mQ9oe4frBCqbnYraG6v/6q+pwffshK2vLpeuWKS3X7rVO0gegZQAlG4AygZLMC0FwX6GUq4lkokqMNZHduz7cnODlE7/ehSOdnrleAHwOFrVY73fzZFL3+/p3qcmr4AHrLW8M1+KnACzEBoCQhcAZQsjVsolZO0mfqSm3JcNK5bNJv3zhJn9o6vrET8NVrmHvoxeQ1YYPj/evX5e7xDlBb9ZvnDiZXrAp/K7yQM1V0beJyBo/iUkXH9RygIQu/1Ker3tOw0b3VLsQ0c2mj5mpF2LYBgPhG4AygZKvXXK26Ommft/TfqWHmV146U5/NdNJe9a5QC++g4nq1VN9JHvWRZn4a6i6DoWf0CHZcmx5O6qglr0wPE0Du05Kp05z0Ue3Obx7ngfNRycc3V8c7hujJJVN0V67xz5uU5uJ24vv3c1EhgPhD4AyghGuo1tfmvjxv7oND9cbnOwKGBexfOl0v3DUm141NTrznQrXyDqdIOUWtb3HSPjs0deAQTfjaLxg3t/ceNERjcs3AkVvyuR3VJ3ge4qVjNfKeKfrVP4jM2KElo4Zo9KvBQf+V6n5pHhcTRujQ7n3avyevxX3Qmjb1NU2Yukr7Qw09SaqtmrnmX07ONSwm2dov2JI3rR8WvikCASA+JMw4uCTHSQNAnFiqCRX76Q1ny+vmr5eoT/AkzEbGKk245Dq9EfGdAy31+mnUT/erld/UcOZ22/ecPzafIRh56DVS74/vHtBDnDZ5iG7vOz2qKeXavfipnvxzNIFz6HrMl9/rT/tgkHrfFNRF/+hbmjHkdDvpK6/XRO3+1FWtm52g406tov3Ll2j5F9M19fOgISmXDNPbH10Z0Ku//9ORuvLq952tULpqyK+j1SV2vx0AICr0OAMo+VKaq89bI9Ul0rvL1euu+z8fGBA0G8ntbtRdj3oCw7zVVpc+ucaJhFSz12Ma5uoxA7UY/KqGRBU0F7Gt67Tg1df0yqAheqjbnRo56LXcQbNO182P9sg1FKby+V11NXcGBFACEDgDKB2O764hP7ylW8Pd+CRI/V73a9R3I9W9md+d+3wqqMWQkXryjrwC3dpq9fgYDbr1FGc7P+Yx/2XfdrqVmyCxXjtd/eYUPfl4u6N3KyzJTuiqu755UX3ahKjvyu108wd35p67GgDiDIEzgNKj1um6evynmrJkrO4f0lsdz/efiaK2jju/nbrfN0xPLpmjt8fnF8A2VLvRb+n9r0fq5n7t1MI7Q0S9JmrV704NWzhFowafHuEUcRXs206PWvWlnntziK72f1zjhNPVqldv3fqm9byrXtWt/rf4jlM1ew7RuPeHqc8tXdUqoL6tHyft2qnjLQN0/0dTrDYZrZ5tqjgluSW3G6Dn1r+qu6zHCagTS/12DQNunQ4AxYUxzgAAAIAL9DgDAAAALhA4AwAAAC4QOAMAAAAuEDgDAAAALhA4AwAAAC4QOAMAAAAuEDgDAAAALhA4AwAAAC4QOAMAAAAuEDgDAAAALhA4AwAAAC4QOAMAAAAuEDgDAAAALhA4AwAAAC4QOAMAAAAuEDgDAAAALhA4AwAAAC4QOAMAAAAuJMw4uCTHSRdIclaSah5JVdXMSkrKSpByrAUAAACxkZCjzMQc7U1KV1r5AzqcmOkUFFzFPdt1zM/fqubGFaq0e4vKZR5xSkqW7KTySq9eX2mNWuiPk9vrYLU6TklsxCRwrpNRxV5SUyupYkqyyiclKSGBwBkAACBWcnJydCQzUwczDuvAgXRtT9lnLwXV+IdparxomrNVuqxv00Prz+zhbBVcgQPnY9NrqrpSVbt6dSWWY+QHAABAYcvKztaO3bu1Wwf0e6U0Jzdyzb5+x+5pLs1Mz/Pq829wtgqmQJGu6WU2QXO9mjUJmgEAAIqIibtM/GXiMBOPRcP0NJf2oNkw79G811iIOto1Y5pNQ5meZgAAABQ9E4eZeMzEZZEwY5pL6/CMUMx7Ne+5oKIOnM2FgGZMMz3NAAAAxcPEYSYeM3FZJMpCT3OwWLznqKNeM3uGuRAQAAAAxcfEYyYui4SZPaOsicV7jjpwNlPOmdkzAAAAUHxMPGZPBRwBM+VcWROL9xz9OIucBKacAwAAKGZ2PBbh/TNK6jzNBRGL98wAZQAAAMAFAmcAAADABQJnAAAAwAUCZwAAAMAFAmcAAADABQJnAAAAFIstP6xU+btX6t3dToYL0RwTKwTOAAAAiMyR3Xr04blWALtcbxT8TtYlBoEzAAAAIpKxfo/eqHKMbm+9S+/+kuHkln4EzgAAAIhApmYv/l06o67uaFZds+fs1BKnpLQjcAYAAIB7B/Zoytxk3dG8ipqfVEedN23X7E1OWSlH4AwAAADXtqzapjeqHqPOja2NOtV0ffP9GrNot8rCgA0CZwAAALiUoenf71T9s6uolb2dos6tqmvLd3s0/4idEdLuP3Zq5IQfddLd5oLCBWr56jq9uzXbKQ0tmmMKG4EzAAAA3Nm+R++uSNbNzataIbNHYzNcY+/vmrI608kJtP6H1Wo5cqUeXZOsK/90kj4YcLyurJ6uR1/4RW9sdXYKEs0xRYHAGQAAAK4sWfqHZletp86N/ULIOqnq3lAat3SPck2tvH2r7n5zu3RWM/3y0Cl6qms9XXl6PT1+7alaNqCSpn2209nRTzTHFBECZwAAALiwX7MX7rcC2mrqUN7JslVW53aVpW+3aXpQ5Lzkpz80XTX0eLc68o+1jZTGDfV4V2fDTzTHFBUCZwAAAOQr45edGrNJuq/Z0WEaXq1OrqNW2ql3V/lfInhYK9dbgXbD6mpdx8kKUE6nNKrlpL2iOaboEDgDAAAgH9mav2qrtlipZ16ap/L2BXt+yz/X2XM5T1+0R+vt/Y3DWr/GWtVNVn1PhgvRHFN0CJwBAACQt4N7NGXGYanFMXrqT01CLkPOqiyt+kNTfHM6J6l+A2uVZebiCG3L3kNOyiuaY4oOgTMAAADytPuXHRpnre+7oInu69ow5PJ4FzNcY78mrNrvOUjJatzQWi3drcUHPDmBMrR4tXdfr2iOKToEzgAAAMjDYU3/wcwB11DdT8gjdGxYTX2soHfJ7J2abc/pXE4dWhyr+tqqEV/uyjXjxvofftOIjcnOllc0xxQdAmcAAACEt32X3l1srbvWCJpNI1hlXdmpurR3q2av99yoJOWkY/R8+xQtmblcLV/4RY9+u9MKwv/Qg28uUqevK+mpHlXs/fxFc0xRIXAGAABAWOt/2a7p1vr2Eyrnmk0jmH0zFB3WyMXeOZ2TdWWfVlp2U0O13r9LIyesVM9p27S73vGaMfBYdahg7xQkmmOKRsKMg0tynHREWuxuqAb1aztbAAAAKC6bt+zQiuq+q/LydcG/7nRSZctXfxnrpKJDjzMAAADgAoEzAAAA4AKBMwAAAOACgTMAAADgAoEzAAAA4AKBMwAAAOBC9IFzQo5ycqKayQ4AAAAxYsdjVlwWieykPO9kUirF4j1HHThnJuboSGamswUAAIDiYOIxE5dFIr16fSdVdsTiPUcdOO9NStfBjMPOFgAAAIqDicdMXBaJtEYtnFTZEYv3HHXgnFb+gA4cSFdWtude5AAAAChaJg4z8ZiJyyLxx8ntnVTZEYv3HHXgfDgxU9tT9mnHbs+dyAEAAFC0TBxm4jETl0XiYLU6Wt+mh7NV+pn3at5zQUV/caDFNNRuHdDWtDR6ngEAAIqIibtM/GXiMBOPRWP9mT3KRM+zeY/mvcZCwoyDSwo8NUadjCr2kppaSRVTklU+KUkJCQlOKQAAAArKzJ5hLgQ0Y5rN8AwTMEcbNPtr/MM0NV40zdkqXUxPc6yCZiMmgbORnJWkmkdSVTWzkpKyrKA5h8AZAAAgZhJy7NkzzIWAZkxzpMMz8lJxz3Yd8/O3qrlxhSrt3qJymUeckpLFTDlnZs8wFwKanuZYDM/wF7PAGQAAACjNCjTGGQAAACgrCJwBAAAAFwicAQAAABcInAEAAAAXCJwBAAAAFwicAQAAABcInAEAAAAXCJwBAAAAFwicAQAAABcInAEAAAAXYnbL7W2b0jX3s81asSBNm37fp8OHspwSAACKXnKFRDU8topatKupjt0aqG7DSk5JwZXPrqDKR2qqYmZllc+poIQc+qHKspyEbB1JOKSDSfu1v3yajpQ75JQUXKWsRDXIqKCah8srNaucyuUkOCUIJTshRwcSs5WWfESbUw4pPTG28WhMAuepb/2qaRPWq9flZ6rj2Sep6fF1lJJS3ikFAKDoZWQc0drftmvud79o8sc/qEefxurZ70SnNHrVD9VV9cP1nS0gt93JW7S7wjZnK3pNDqSoaXrsfvCVRWsrpWtdaoazVXAFDpzfHLVCB7cn6v7bu6lu7SpOLgAA8WPbjn0aM+4zVayTpZsGt3ByI1cro5GqHKnpbAHh7Sufpp0pG52tyJ2yL9XuaUbBmZ7nlVUOOFsFU6C/LZmeZhM0/+ORawiaAQBxy5yjzLnKnLPMuSsapqeZoBlumX8r5t9MNExPM0Fz7Ji6NHUaC1EHzmZMsxmeYXqaAQAoCcw5y5y7zDksEmZMM8MzECnzb8b824mEGdPM8IzYM3Vq6ragog6czYWAZkwzPc0AgJLCnLPMucucwyJhLgQEohHpvx16mgtPLOo26sDZzJ5hLgQEAKAkMecucw6LhJk9A4hGpP92zOwZKByxqNuoA2cz5ZyZPQMAgJLEnLvMOSwSZso5IBqR/tsxU86hcMSibqN+BDNPM1POAQBKGnPuivReA8zTjGhF+m+HeZoLTyzqlm8CAAAAwAUCZwAAAMAFAmcAAADABQJnAAAAwAUCZwAAAMAFAmcAAADABQJnAAAAwAUCZwAAAMAFAmcAAADABQJnAAAAwAUCZwAAAMAFAmcAAADABQJnAAAAwAUCZwAAAMCFhBkHl+Q46Yj07/qFZn70gLMVPxJyslQ+4bCScg5LOZnW4hQAAIpGglmSlJmQrCM5ycpJSPTkx5GuVzyt12de7Gzlr/G+050UELn1VZY6qfx13V7TSaEwzKyT5qSiU6oC5/LZ6UrOOajU1EpKSSmv8klJSkgw3+AAgKKSk5OjI5mZysg4ogMH0nU4oaKOlKvklMYHAmcUJQLn+FHQwLnUDNVIydmvSuUzVbduTVWtUknJ5csTNANAMTDfveY72HwXm+9k891svqMBoKQrFYGz6WmukJStOjWrKbEcw7YBIF6Y72Tz3Wy+o813NQCUZCU+yjRjms3wjJrVqzg5AIB4Y76jzXe1+c4GgJKqxAfO5kJAM6aZnmYAiF/mO9p8V5vvbAAoqUp8tGlmzzAXAgIA4pv5rrZnPAKAEqrkd9PmZNqzZwAA4pv9XW2mCQWAEqoUBM6eK7gBAPHN/q5mbn0AJRgDgwEAAAAXCJwBAAAAFwicAQAAABcInAEAAAAXCJwBAACQv/R0af78vJeDB52dSycC53i2cYKuSkjQVe9ucTIAAIh3GVozebD+cnY5nVS3gYZO4xxWWiQ8/7wSevfOexk3ztm7dCJwLq12r9SE+7vqmL9bv/4AAKVT2kp99dpdGtjrVJ1T1wSq5XTOeRdq6OjJWrPH2aeIbZw8QDfeNl6HOj6kvw3rrxMqSIeWjFa/0xqo32uLnb1QIu3f71m3aCG1bx+4mDxj1y7PupQicC5tdqzUtFF91eKUFur7zCzxOx8ASqMMrXn3L+rc/FT9ZegkrdE56jlslBWoDtIFtf/QV/+8Wt0GTdB2Z++iM19TH7We9/qxGjv67+o/0Fq61nfKUOLleCZizxk2TDkffBC4WHmewtI9WTuBcymyeFRTJdRpoUvHbFGPBx9SLycfAFCaZGjxc5fpxnteV50B7+i/qzbrs8n/0t8GDrIC1VEaMXm55q36QWPaV3f2L0Kb12n5NqlD29aq6mQZFVoN0ls/bdZbA1o7OYh7O3cq4ZlnAhb9+KNdlDBxYq4yk2ez9gkuM49VWhA4lyIZOkUDn/9Ua1fO1NPXOH8yAQCUKoe+fkQDn5ylRn/9Rm+P6KMWNZ0CfzVb6/IBPVTH2SxqVVIrOimUWCbYNUGv/7J0qafsww9zl5k8wwTXwWVpaZ6yUoDAuRTpMPhTjb2rh5oUQycDAKAoLNY7/xit7af9XUPu7KAKTi4Qc8ceq5z335fuu8/JiFyOdaz9GI0aOTklH4Gz486EBCU8OEsZzrbPktFqY5W1eSb4goYMzXrQOuaYhzUr4KDdWjnlSQ3o0kLHmMe0lqYdrtKdL8zSlkxnF58tmnCttc+1E6xUhha/0FctjrG2+03Oe2zy+gnqa/brYD33DicPAFD6/TRLU3+QLvhLH7WOImreu2qyXrrnQnU7zXMh4Ulnn6uBD76o+ducHfz98KS9z0vW8yltvt558DLnuBN07T1P6qvfPbvZNk/QQPN4rW7QF9bmF7c18Dx+3av18eaj5QMnB57dFo82+zxp/RyQNn7uzMRx2pNaYQr9j9mzWBO9z3/aqfrL8Alac8DsZN7TBP3jRufiyKAyFEDFilKHDso56SQnIwonn2w/hv1YpQSBs6PH7dZ/3p5vf3j9LZ493s5bPH2R1nmyHCu1eIa1urGLzknx5Gj/Yo3ueYpa9BqrefV76OEJn+rTCWPVq8lKTbq7q47p9KTmOxekBls3sb963D1BK813Skau8P0oEzR36KsJlftr0rtPqEttJx8AUOpt/3m+FVR20cXtmzg5bmVoxctW4Hne1XpncX1dcO87+te772hYjyZaM+0u9TvtXCtADn3uObR2gu4/7wbNT+2ugU9Zxwxsre3vPqK/dL9LX3n/Ap/aRBeYixPv6SMzULDFNWZGDXOxYnc1SvXskpeMJU/q/htH6ytzorWC+EOebI+9s/TSzYO1uNaVGvj4C+rfPkNfvXiDbnxwstZYwf2Aq/+tvafdryEvW2UdpeVOWdFfGImygMDZ0aZTL2nLJM1b4mTY1mnR9MXqdY1VNmOa5m90so1fF2mate/ATm3kiZszNGtEDz3wcRM99MVKrZjwtAZe30M9rh+opyes0MovHlKHbx9WrxEherUzZ+n1cRX1xLJdysnJUc4HfRTyGuT98/Xk9VbQrD4aP+M19Wrs5AMAyoSN6yZb/62ulAh7mw/NtQLMR6ep0T1f6rP/vaO/DeijC7r20Q3D3rG2v9QdZ87XMzc9qfkBEavHSwMnq82U5Xpx2EBd3sMc86HeftE6L257UeM/d7qUqnXQNebixJt7yPxRvlHXgepvX6zYX62reXYJb70+njBbHd7drF+2ZVvLQ/K/hPCLB1+UHvpEI/7aX5f3Gqi/vbZcbw2sr+0T79SNN03TBW/6lb38g0bbZS95gnAgxgicHfU7XaVeWqxp3/t90n6dpQkzrOD3wf4aqMmat3i3U2DF2N9P0yz1V5cOzoDiHdM0YeQW1R/8hB6+KPcg4+oXPaAHbraOGzlZs44+jMeUT1V9yFj1Py2PwckmaL7oHD283gqa549XH4JmAIAru/X1xCe1ve4g3Xdvl4DZLmw1u6j/Xf2tQPhJffFV8AlKajHsId1wkvdPqx6NLv6zbrDWX/28LrB3OCqva3vLf+m+cNPWXT9IN5zp//wp6tDNer3aou3X/F39g8pObX+VtZ6lFT/nfi9AQRE4ezXqoB4XWR+1GfN944vt4PiiXurSto3OuUZ6cc4ip7d4txbNsX71X9NF53iHSvy60vroS32t4Dbw68Wrulp3NhPETdLiXz05R/XXVReFPsqWsUIT7uhlB82vzX6doBkAyqgKqU5fbJZn5c5K/fqutbqmu9qEGTZRtWVnXWytP1+Vu5u2zYkhhoVUq+GZseP3LdprZxREL/W8IPzQkxanNMkd7Cd5zpkXt2iS6wLJqrU9Afi2A3kMewSiRODs00RdrEBYE+dpkf0jdYtmTZls5zVRfXW4yCrzjoHOWKRZ46Qe3Tv4hlRsWbfIXteoEj4Arphk/muF5cEXCV5kniG8eSMGaNDbW3TKzf3Vt3keATYAoFRr1OQc67+TtWhFBL2pZm5ls65cMfwsHIme1fbM3MFmndqFPVVTE9Wu6yRDaFT3GCcVQiLT3qFoETj7aXJWD7XWi5r1vfXFsWOeZk1srR5neX4F22XeMdBL5mu8uqhXp6O/kOsfe4q93rUvv1+4rZUSHPtWr6i8PvrnPP6pJj/eQStH9tVVzyzOPUYaAFAmVD2rs66x1u9MnOb+4rcGTXSiWe8/mO+wihapxdE5E/mYbaC4EDj7a9VFfVtJ479drN3zZ+n1Vn3Vxdo+WuYZA71u2SxtadVDbexvIkfjFvad+sbPnhcmsN2teTMmWxG2FYA3d7Jcq6EOj0zTzCFNNO3+Hur/r5UEzwBQFtXsoWv+2lqa+oBGTnZ79ZsVOPe0VhNna1GYyHnvktn6QvV1wWmeTiAAoRE4B2itc3rV15bJs/TinBfVuk8Xvyt7PWWz5kzQhBmz1Lqff5mlkRXQ3m4dO/JhPTEj95/Qds99UU+/IXV48Cp1ieoHfXV1GTFe42+UJtzSRf3f5XJhACh7UtT6trG678wt+vi2CzXwxVnanuseAZZt8zXxNW+vdH2df81A1dn2pJ55elbuMcl75uudF16XzhykSzoyHBDIC4FzkNYd+6v+krEa+3Z9XdUpIDRW6/Z9pRlW2USrrENgmQlsezw1WU+0n68nLz5FLfo8oNFvTNa0d1/UA31a6JROD2vLzZM0/r7g4yLRRH1emqanL7eC5z7nqC/BMwCUPakddMf4L3VHx4P6YviFOqfVqep3z2C9/uJovf7PuzSw+wk66bRzNXTx0b9NVr1klF78awctfu5CdTvvBv3jxdf1xcwJemf4Dep27rl6Jq2/Xnx1kD0HM4DwCJyDpHToor7aYv3vTnVp72Q6Us7qooFbrLL6/dXBO4TDX+UOemjOH5r5/FU6Zd1kPfDnq3Rpnyc0bX8XPTxtrRb9u5cV+hZQ5dYaNMEE6Fus4LmrBkwkeAaAMqdmF903eYVmv/sv9e96jLbNHK1/DB+sf4yepu0Ne+hvL3+jec/18sx8YUtR60FW3uQXdMnJ6/T58L9o4PU36KWZu9Xh3k80+4t/6eJjnV0BhJUw4+CSHCcdkf5dv9DMjx5wtopPpaydalCf2+cBQEmwecsOpSfWcraKT9crntbrM80EbO403ne6kwIit77KUieVv67bazqpOLFggRJuvFE6eNDJcC9nyhTpzDOdrfgws473dpfRIXAGABQZAmeURSU6cDbWrpW2bnU2XKpfX2pS4L+zx1xBA2eGagAAACC8pk2lDh0iW+IwaI4FAmcAAADABQJnAAAAwAUCZwAAAMAFAmcAAADAhZIfOCdIOTlRTQwCAChC9ne19Z0NACVVKQick3QkM9T9RgEA8cT+rra+swGgpCrxgXNmQrIyMo44WwCAeGW+q813NgCUVCU+cD6Sk6wDB9KVlZ3t5AAA4o35jjbf1eY7GwBKqhIfOOckJOpwQkWl7d7n5AAA4o35jjbf1eY7GwBKqpI/xtlypFwlHcosp+1pe+h5BoA4Yr6TzXez+Y4239UAUJKVisDZyEiorPQjSdq2LU1796Xr8JEjzLYBAMXAfPea72DzXWy+k813s/mOBoCSLmHGwSVRRZf9u36hmR894GzFj4ScLJVPOKyknMPWt3emtTgFAICiYaacS0iyLwQ0Y5rjcXhG1yue1uszL3a28td43+lOCojc+ipLnVT+um6v6aRQGGbWSXNS0Sl1gTMAAPkhcEZRInCOHwUNnEvNUA0AAACgMBE4AwAAAC4QOAMAAAAuEDgDAAAALhA4AwAAAC4QOAMAAAAuEDgDAAAALhA4AwAAAC4QOAMAAAAuEDgDAAAALhA4AwAAAC4QOAMAAAAuEDgDAAAALhA4AwAAAC5EHTgnV0hURsYRZwsAgJLBnLvMOSwSOQnZTgqITKT/drITcpwUYi0WdRt14Nzw2Cpa+9t2ZwsAgJLBnLvMOSwSRxIOOSkgMpH+2zmQyI+0whKLuo06cG7RrqbmfveLswUAQMlgzl3mHBaJg0n7nRQQmUj/7aQl89f8whKLuo06cO7YrYEmf/yDtu3Y5+QAABDfzDnLnLvMOSwS+8unOSkgMpH+29mcwl83Ckss6jbqwLluw0rq0aexxoz7zMkBACC+mXOWOXeZc1gkjpQ7pN3JW5wtwB3zb8b824lEemKW1lZKd7YQK6ZOTd0WVNSBs9Gz34mqWCdLf/v7RHqeAQBxy5yjzLnKnLPMuSsauyts0z56nuGS+bdi/s1EY11qBj3PMWTq0tRpLCTMOLikwJcYTn3rV02bsF69Lj9THc8+SU2Pr6OUlPJOKQAARc/MnmEuBDRjms3wDNPTHG3Q7K/6obqqfri+swXkZnqaow2a/TU5kKKm6ZH9dQSBTE9zrIJmIyaBs7FtU7rmfrZZKxakadPv+3T4UMG7wwEAiJaZcs7MnmEuBDRjmiMdnpGX8tkVVPlITVXMrKzyORWUkFOgP+CihDNTzpnZM8yFgGZMc6TDM/JSKStRDTIqqObh8krNKqdyOQlOCUIxU86Z2TPMhYCmpzkWwzP8xSxwBgAAAEozfiIDAAAALhA4AwAAAC4QOAMAAAAuEDgDAAAALhA4AwAAAC4QOAMAAAAuEDgDAAAALhA4AwAAAC4QOAMAAAAuEDgDAAAALhT4lts5OTnKzpK2bkrXj3O2adUPadq84YAyMjKdPQAAQCwlWEtKxSQd06iSmrWtpbMvrK/qtVOUmGRKUJpUykpUg4wKqnm4vFKzyqlcDm2cl+yEHB1IzFZa8hFtTjmk9EQrSI2hAgXOOdk52rPrsJZ8vVWr5qXppNpV1LV1Q53UqKoqVUhSAm0LAEDM5Vhn7gMZmfpl4x7N/PEPrd68Vyd3rKEOlzRQ5arlnb1Q0jU5kKKm6ZWcLURjbaV0rUvNcLYKLurA2fQ070k7rNmTNih7Q6YG9Gim1ifWsoJlomUAAIrS96u2a8zEn1TppAq6vF9TVamW7JSgpDplX6rd04yCMz3PK6sccLYKJuoxzmZ4hulpNkHzPb1OU5uTahM0AwBQDM5qXkcj/tJWB385pFlTfldWVoFGYaKYmZ5mgubYMXVp6jQWog6czZhmMzzD9DQ3O7aakwsAAIpDk/pV9PCNrbTm+13a8Os+JxcljRnTzPCM2DN1auq2oKIOnM2FgGZMsxmeAQAAil+LxjXUuWV9LZjxh5ODkoae5sITi7qNOnA2s2eYCwEZngEAQPzodmYj/bJ8lw4djO1sAigaZvYMFI5Y1G3UgbOZcs7MngEAAOJHw1qpSkxI0P49R5wclCRmyjkUjljUbdSPYOZpNlPOAQCA+JGYWE7J5RN15DA9ziUR8zQXnljUbYFCb0ZpAAAQn8xczwBii78HAAAAAC4QOAMAAAAuEDgDAAAALhA4AwAAAC4QOAMAAAAuEDgDAAAALhA4AwAAAC4QOAMAAAAuEDgDAAAALhA4AwAAAC4QOAMAAAAuEDgDAAAALhA4AwAAAC4QOAMAAAAuEDgDAAAALhA4AwAAAC4QOAMAAAAuEDgDAAAALhA4AwAAAC4QOAMAgBItJydH8z7+Sku+WuDkoFCkp0vz5+e9HDzo7Fw6ETgDAIASKyszS8OvG6Rh196rwd1v0ejbHrMDacRewvPPK6F377yXceOcvUsnAucSbt+BA1r+88/akZbm5AAAUDZkHsm0A+bvpv9PT340Vn97Y4Q+f3uqnrjhQeVkZzt7IWb27/esW7SQ2rcPXEyesWuXZ11KlZrA+ciRI1rz22+a+c03+vDTT/X5119rhRVQpkf5J4NDhw9r/g8/aPa8eTqYkeHkBjL58xYu1JwFC+z9Q9myfbs+++orrV6zRtmF8At4xerVuvORRzRz7lwnJ3LZ1pfL1h077Pf7388/10fWYt7XH9u2KSsry9kLAID4ceTQYQ275l4tnr1AI/77otpd0lFdr+uhRyeM0tz/ztSrQ5919kTMOHFMzrBhyvngg8DFyvMUlu7e/sR+D9/2mJOOyPQJ6/Tn7ierUoUkJ6f47Nm3zw6UXxk/Xh/PmKFvTDD73Xf6dvFiZWZmqlH9+kqtVMnZ2x0TcI96+WU9+9pr6ta5s+rWquWUHLVm/Xrd9eij+vTLL9Xd2qdGtWpOiYcJOqfPmqVHnn5aDa3XcPopp6hcudj+Vtn0xx/60vqx0Pb003Vas2ZObmTMD47Rr7yiqV98oa+tevtq/nx9/e23Wvf776pVo4bqWO89MTHR2RsAEM8OHcnWh/PXq2WHOqpSPdnJLV0OpWfo4avu1g9fzldScnldfENP1TvuGLvsuOZNdWD3Pn054RNde///2XklSdP0ik6qmO3cqQQrNkiw4gHvYo9h3rpVCVZxwooVAWUJpszKMxLMPn5lOvlkKcI4rLCsSy3YGOxS0eO83grwploBswluB/7f/2nUww/rnv79VdMKZN/68EPNmjdPGYcOOXu7U9lq4A5t2mj9xo1aunKlk3uUGT/1y7p1+s0qN73JP61e7ZQcdSA9XSt//VV1rODzVOsfTayD5lgxAbIJjPv26qW/Dx6sJ6zl0q5dtWjZMr1h/YrcaAXnjBcDAMSD9H0H9NdLb9XKBUvt4Rknt26hoX8aaG8b33w8Wx+Ne1cX9bnM3kaUrMBZzzwTuCz11LGs2CpXmckzfvwxd1kpGk5aKgLnCsnJ6vOnP2nw7bfrqu7ddc6ZZ+rKbt10x003qVqVKvZwi9179zp7u2OC3FannabjGjSwA8jgwNsM0/jR+mV1TN26qm0F7AsWL9aRzEyn1GPHrl120F3f2sf0OJdLML/R4o/pCX/orrt0Xc+e6tSunS7s1EkDrr/e7kVf+9tv9g8TM5wDAIDitH/PPj3Y/RatX7lGo6a/ag/PGDn1JZ3U6hT97bLb9c6IV/T49YN07uVdNODJe52jEJVjj1XO++9L993nZEQuxzrWfoxGjZyckq9UBM6NrcY9v0MHe0hBghOcmh7UBvXqqV6dOvZY3X3eAe0RMEHzmS1batFPP2nbjh1Orsd269fTQuuXV4e2bdXujDO0dNUq7d23zyn12Lxli91be3LTpqpqBfDxql7t2vaQDH+VKla0fxSYHyVmyAn9zQCA4rRn527df+GftXntRo3+4nU1P6ulnV+hUord81yrQV29+fdxOr/XxXro7X8qMYkhhgVixQGyYquck05yMqJghmhYj2E/VilRKgLnlAoVlFy+vD3mxp/p4U2yAujEcuWiGiZRvWpVtW3VSstXr7aHZfgzwxv2p6frXBM4t26t73/80Q6SvQ4fOWLvUzk1VWe0aGG/Ri/TWz1jzhzdPmSI2vfsaS93DB2qL6284J7t7Tt3atjo0Rryj3/Yj/fmhx/qwuuv16NPPx12+InpHTYXJJ5/9dV6+Kmnwl7cmBfz2Fu3b1eN6tV1jPUDxNQhAADFYff2NN3X9WalbdmhZ2f9RyecHnhNz7yPZ2vjz+t1Sb8/acibI1UukXMWCkeJ/5dlxt6GWkzwmLZ7t9J27dKJjRvbPb4mL9S+oRazr+m9Pq9dO/vCwmWrVtlDMUzZISuo/HnNGtWygsrmJ5yg9m3aKMMKThctX+473vQ+m2niqlaurCbHHmv3gJv8XXv26KF//lPX3XGH/ZjnnnWWzrGCbzPs4//uv1//fOkl+7G8j2Oec8u2bVq7YYPenjRJjz/zjH3xnhk+4d8TbNZmf5M374cfNGLsWLu33Qy5qGAF7d7Hy28xx/++ebNef+89+0LB7hdcoKbHHed5DqscAICitO33LbrrvBuVvne/xs55R8c1b+KUeHz25kf6Z/+HddlfrtGglx/z/eUZKAwJMw4uiSoauuvSWZrz/GWqVTXFySl63y5apAf+/nc7UHSjxUknadOWLfYsHPlpc9ppduAbbpq5sqh3z556ywrcy5cv7+QAAOLN3vQjum7MbPW5/xQdc3yqk1sybVm/Sfd2+T+Vr5BsD8+oe2x9p8Rj8tjxGjd4lHrd2Ve3jxrs5JZsXbfXdFJx4pNPlHDHHc5GZHLMzVAuvdTZig8z6xTsQsUSHTj/sHSpnnj+eS1evtzJseTk6MDBg3aPb8WUFLun2TtMo3GjRvbYZDPbRX5ObtLEHhphenzN/nv27lXN6tWVYj2m6RE2wzRMT7QZgmF+3Zp9du/Zo9o1ayo5Odmezs4sVVJTPcM0rH3M8Acz9ML0VFcKMS2L6dE1Qb3Zr3aNGkpKSrJ7gE2eWZuhI8FBqwnszYWPZkxytrWPOdb0cpvXWZBf3WYaPzMu3Lx/c4GlGevco2tXPTd8uMpbrwsAEJ9KS+C86dcNdtCcWq2yPTyjep3AgNJcCGjGNN/06B26YcgtTm7JR+BcuMp04GyGPWwz06U4THBppoebPG2aVv36q7p16WIPNUi1gldjh7VvFSuoNEMX8mOGR3jnL/7i66/t+ZzvHTBAXc49157j+JMvv9Q11j8GM77ZBLhf/u9/9vCIx+6/X+1atdLHVrnZr9/VV9tzLJvgfe6CBRr48MMa8+ij6tqxo/NMR5lg9dXx4+2bmTwzbJiOM4G+9ZrHvvGGPUPH4Ntusy+E9GeGeDxl/cM0z7H/wAE7eL+hVy+1POUU+3VFxQrgd1rPN3n6dPumKKanufM559g/CMwPCv4MBgDxqzQEzmuX/azB3f6i2g3radRn/1LVmoH3STC9zKa3+e7nhuryW651cksHAufCVdDAuUSPcTY3HGnWtKm9HN+woR3sTbQa2PQqD7nrLg2+9Va1adnSt48ZT2ymXvNu57Wc3769PbTDpE3QaGbGMIGpmX1i7/79dlB9thU0e/e56LzzdMLxx2vX7t32PqYXuE7NmjrbCqJPOfFEex/T+2wusmt92mm+5/FfzFzPJzmBaaMGDew885jVqlb13EClefNcxxxv7WeC8nUbNtg/Gs47+2xdfP759mMF7+t6OeEEe9z1zb172z32P69bZ8+8YcoImgEAhcncEXDQxQPUoOmxGjPj3wFBs/nL7PP3jLCD5nvHPlLqgmbEv1Jx2akZrmButf3y22+rrhXgmRug9OjSxe4hjQUTtJoAdsny5Vq9dq1W/vKLHTjXsgJjbyBp9jHB9ZIVK+w78Zkea3NRoP80b+b1mA+9CcBDMT3mZsiHGXbhPwuHYT9PmKA1xXrcM08/3f5RMH/RIs39/vuobzXuzwwNMYv5EWBmCQEAoLAtmvWd9u/eq2Hvj7GHaXjlZGfrn39+SJ+89qH+9sYIXdr/KqcEKDqlInA2wzImTJli33J60C232L22sWQC2VNOOkkbNm3S/IUL7eDWzKZhepC9zHjq05o3ty8o/M7cDMUKNM3rMdPReR3XsKEdYH+/ZEnIiw7N0JMV1vFNrYA7+PbdeUlMSrJ7vk0PsZk+7vV339X/vvvOnv2jIEzPenpGht3b7GZ4CwAABTXvk9lqevrJqt2grpMjZWVm6bHr7tdXH36ux94bo67X9XBKgKJV4gNnExx+8/339kVs5jbR5uK8vJj9Jk2bZk/7Zqarc8PMBW2GPpjgcdY339i/es0Ud/69wqZH+IxTTrEvnDOvp5x1jBmPbOaX9jLjgy85/3xN/PRTzZo7N6AX11zQ+OnMmfrJCpwvvegi+wK/SJjnNT3OZvo5M6b7hTfe0DdWkG96sfNiLiY0c1AH94Kbuvn866+Vbv1IMNPt+f9IAACgMJi/yn776f/Uvvt5To60feMWO2heOGO+npj8gs65/AKnBCh6JT5wNr2/azZs0Jr16+2L6Mz0dIMefzxgGTJypB0EmhuB7ExL03tTp+rpV16xL6xzw4whNncRNLNqmKEQyVbA3OiYY3yzdRgmcDaBsrnbntmncqVK9j7+Y4LNLBx39OtnP9YDTzyhux55RC+/844d5N7y4IP2a+p2wQXq0blzwGO7ZYJ0c5HgbX372j3ew595xp6yLy8meP/gk090ze2367ExY+wbrJiLDW8eNEjv/fe/usR6PWbctJlVAwCAwrT6h+VK27pDjVucoPfH/Ed3dbpBfU7qph+//l4j/vui2l50jrMnUDxKfOCclZ1tB4nmBiHvTJliB6LBywQrAFy9Zo09a4WZVcP0/JrxyGbohBsm+K1Zo4bd62yCUzNMI/gW1YYJrE+yHtfcsdAMFzHb/szjNDvxRI1+9FF7WIUZYvL4s8/qpTfftAPlJ6zg2Qw1CT4uEub1tT/zTA296y77/T44YoTdoxxOasWKuqxrV3s4hplFw/zwMDdaMUNKhlvBs+nBrlvr6K3MAQAoLPM/+cpej7hpiL4c/7FadjxTY2a8ro+2zNUZ57W1y1DE6taN/pbZVixR2pTo6egM82edzKysPIckmKDPTCtnhlwYJqDMto4zwxsiCQjt57GONWOKvY8VzDy2Ceb9ny+YqXAz57LZz3uHQhM4h7o1uPf9Gebxgl+vOd6Um+fzvy22Oc4MSzFr8z7z6sE2dWHqz3tnRbu+zGuxHtP8CAAAlBwleTq6ryd9Yd/05PyrLlb9xu46t0qbuJuOzli7Vtq61dlwyQTNMb7mLBbK9DzOAAAgUGm6c2BZFJeBcylSpudxBgAAAIoKgTMAAADgAoEzAAAA4AKBMwAAAOACgTMAAADgAoEzAAAA4AKBMwAAAOACgTMAAADgAoEzAAAA4AKBMwAAAOACgTMAAADgAoEzAAAA4AKBMwAAAOACgTMAAADgAoEzAAAA4AKBMwAAAOACgTMAAADgAoEzAAAA4AKBMwAAAOACgTMAAADgQtSBc4K15OR40gAAIL4kJHCSBmIt6sA5JSVJ6RmZzhYAAIgHWVnZOnQ4S+WTE50clCTZ/OApNLGo26gD52OOTdXPG/c4WwAAIB5s2plu/1m4crVkJwclyYHEbCeFWItF3UYdODdvW1Ozl/zhbAEAgHjw2Q8b1bRFVVWoSI9zSZSWfMRJIdZiUbdRB86tz6+rn7ft1cLVO5wcAABQnFb8tkufL9yosy9q6OSgpNmccshJIdZiUbdRB851jqmkk86tqRenrNAvDNkAAKBYbdyRrsffWqzm59bScSdUcXJR0qQnZmltpXRnC7Fi6tTUbUFFHTgnJiWobed6Sj6hvJ58Z4mWrNnplAAAgKK0+NedGjRuviqfXEGXXNPYPkej5FqXmkHPcwyZujR1GgsJMw4uifoSw5ycHO3fc0TzPtusFV9vV5umtdXj7GN1auMaSk0pb09ZBwAAYsucf/cdPKKVG3br0+82aO5PW9W2e311ueJ4JadE3SeGONPkQIqapldythAN09Mcq6DZKFDg7O+P3w5YAfQmLV2wQzu2ZSg7m+lUAAAoLAkJUp26FXX62bV13uWNVPuYSnYeSpdKWYlqkFFBNQ+XV2pWOZXLoZHzYqacM7NnmAsBTU9zLIZn+ItZ4OzvYHqmMjOzrZ/ETgYAAIgdK3aqkJyo5BRmzgCKUqEEzgAAAEBpw0AoAAAAwAUCZwAAAMAFAmcAAADABQJnAAAAwAUCZwAAAMAFAmcAAADABQJnAAAAwAUCZwAAAMAFAmcAAADAhZjdOXDbpnTN/WyzVixI06bf9+nwodjeGxwAAByVXCFRDY+tohbtaqpjtwaq27CSU1JwlZStBgmZqqlMpSZk0cuWj2xrOZCTqDQlaXNOktJjWGOVshLVIKOCah4ur9SsciqXk+CUIJTshBwdSMxWWvIRbU45pPTE2MajMQmcp771q6ZNWK9el5+pjmefpKbH11FKSnmnFAAAxFpGxhGt/W275n73iyZ//IN69Gmsnv1OdEqj1yThkJomHHa2EI21Oclal1PB2YpekwMpapoeux9EZdHaSulal5rhbBVcgQPnN0et0MHtibr/9m6qW7uKkwsAAIrKth37NGbcZ6pYJ0s3DW7h5EbulIQMNUg44myhIDbnlNfKnBRnK3Kn7Eu1e5pRcKbneWWVA85WwRTobwmmp9kEzf945BqCZgAAiok5B5tzsTknm3NzNExPM0Fz7Ji6NHUaDdPTTNAcO6YuTZ3GQtSBsxnTbIZnmJ5mAABQ/Mw52ZybzTk6EmZMM8MzYs/UqanbSJgxzQzPiD1Tp6ZuCyrqwNlcCGjGNNPTDABAfDDnZHNuNufoSJgLAVE4Iq1bepoLTyzqNurA2cyeYS4EBAAA8cOcm805OhJm9gwUjkjr1syegcIRi7qNOnA2U86Z2TMAAED8MOdmc46OhJlyDoUj0ro1U86hcMSibqN+BDNPM1POAQAQX8y5OdJ7KRCqFZ5I65Z5mgtPLOqWzwoAAADgAoEzAAAA4AKBMwAAAOACgTMAAADgAoEzAAAA4AKBMwAAAOACgTMAAADgAoEzAAAA4AKBMwAAAOACgTMAAADgAoEzAAAA4AKBMwAAAOACgTMAAADgAoEzAAAA4AKBMwAAAOACgTMAAADgAoEzAAAA4AKBMwAAAOACgTMAAADgAoEzAAAA4AKBMwAAKNFycnL034/natZXi5wcFIr0dGn+/LyXgwednUsnAmcAAFBiZWZm6ereD+vKq4fowkvu0YBb/2EH0oi9hOefV0Lv3nkv48Y5e5dOBM4l3LpfV+vyzq019cPxTg4AAGXDkSOZdsD8ybR5+nTqKL39n0f0n7em67q+w5Sdne3shZjZv9+zbtFCat8+cDF5xq5dnnUpVSoCZ/PLctXyHzX0vr/ogjZNdFLdcrq6WwdN+M84HUw/4OwVmaysLI1+8iGd07KhfvrxByc3kHnel8Y8oVZNq+mHBd84uYH27d2ju/pfq/7X9dCutB1ObvzYuGGdXVd/7t1du3ftdHIBAIhvhw4d0RVXDdHM2T9o2sdPq/sl7dX3+ov1wbuPa/JHX+uvQ0p3z2excHryc4YNU84HHwQuVp6nsHT39peKwHn9mp81+M7/047tW9W73180+JGROrZxUz31+N/0z+F/jSp4TkxMVKszz9b2rX/opyULndxA+/ft1crlS3Vg/z4tXbTAyQ1kjje9wi1atlbVajWc3PhgAv9vvv5SPy76zskBACD+padn6LI/Ddb0z79VuXLllFw+ySmRel1xvu4eeLXeGv+Zk4Oo7NyphGeeCVj04492UcLEibnKTJ7N2ie4zDxWaVEqAuek8uU16KEn9fJbH+n2e4fqlrv+qtEvva2/DXtK4994SfP+N9PZMzJNT2ym5qeeobVWYH7k8GEn96hNG3/T+rW/qIm1n9knIyP3gPh1Vv7qlcvsINwE4/Fks/X6p06aoFq16zo5AADEt3370nVxj/v07YLl9vCMM9s0U4+eD+jb75bb5R9NnaMXXpqkG/tcYm8jSibYNUGv/7J0qafsww9zl5k8wwTXwWVpaZ6yUqBUBM7HHt9UF1zYw/7V6WXS7c45X81OaalfVns+TJGqW7+Bmrc4XSuWLQ45zOLnFctUqVKqTj29jZ3euWObU+Jhhnss+eE7+zU0OeFkJzc+mNf28eR31bDR8br0yuucXAAA4tfu3ft1Ybd7tXzFOn352XP28IzpHz+tNq2b6ZJL79fjT/5H11z3sK7o2Un/GHG7cxSicuyxynn/fem++5yMyOVYx9qP0aiRk1PylYrAOZyEhAQlWAF09eo1nZzIpFauohYtW9ljnH/fsM7J9TA90D8tXaTjGp+g87t206Lv59lDRvylH9jv65GuU+8YJzc+mB8DUz+coGv6/lk1a9ZycgEAiE87duyxzrcDtWbtJs2e8YLObue5GK1SpRR9+t9Ratigjh57/HVdc1VnvfvOcCUlxddfeUucihWlDh2Uc9JJTkYUTj7Zfgz7sUqJUh04b/htrfbt2a1TzzjTyYncWR3OU6XUyrnGMJseaBN8msD6jNbt7CEdP/7wnT1u2MsM5TAXLZ5y6umqXKWqkyt7zLW5cLHvFZ3tCxnNxYXm4sHPP5mkw4cPOXt5mOEfjwy+3V7MmOr33nzFvgDysb/eqUOHMpy9clvz80r7or+/9L3cfh3+zOO8/dpYnWcF/GecebaTCwBAfNq2fZfO6zJQW7amac7sl9TqjMBgzgzPWP3zBt18Uw+Nf2uYEhNLdXiDYlQq/2WZmSy++HSy/vnYg+o/cJBanNbKKYlcw2OPtwLfM6wgeYl9EaCX6YH+dfUKnd6mnW9Ix7o1v9i9zF4meDU9ziY4Nb3fhtm+4/+u0piRj6jpSc314n8m2WOxE5OSdOefr9GIRwaFvZhx+tSJ+sfwB+1AOCs7KyBI92ee9693/9n6tZ2kocOftodjeJljPv3ofa39dbWu63eLkpMrOCUAAMSfDb9vVYeOt2rv3gP6du6rOqX50XOa8e//fKqb/vyEbrvlT3rtlb/5zrdAYSg1gbN3PmPTg9vmxBp6761/aeRzr+mGPw+0g9JomZkwzIwYG9av0e7dRwe3mx7oE5u10LHHNfEN6Vi1Yqm2bdlsl5sxxKuWL1Wbs85RY2d8swmIxz070g7s//PB5/r7qHG6uMeVuu6mWzXuP5M14pl/6aOJb+uTKe/Z+/vbsul3zZszS29Pnqmft2bZx6ak5P7Th5lZ5OknhtrpJ8e8ag8T8WcuVHzjlWd144CBOr7JiU4uAADxZ936P3ROp9vs9Lw5L6tJ48Bhj8++8IF9w5N77rxGLz4/iKAZha7UBM6Vq1bTVdfdZE9Fd+9fhysrM1M3XX2xnv3nsKjncja809L5j2E2Pc+mB9oE1DVq1rbzTM/z77+ttXtyjb17dtlDOU5u0dI3a8Uvq5ZrzuzP7XHF5oJCfya4v/jSXjr3vAv1v1mf28G1v++/nWO/v5at2ob9YjBB8yODbtP2bVv0z+f/rRNOPsUp8TDlz/1jmNqf29kO2PmCAQDEq19+3Wj3NKempmj+3Fd03LH1nBIPcyHg/Q+8oOHD+mvM03c5uUDhKjWBc5269fV/t95rT0U3cNAj+s+HX+i5f72n/37wtj0lnekBjpZ3WjrvGGbTq2x6l0+zgt/yycn2Pqbn+bQzzrRn0TDPtdXax/RSn3paK1/PsBmmkZpaOWDohr+q1aqr2amn2zclSdu53cn1OKPN2XagHs7evbv1wqjH7aD5sX+OzRU0mx8Sk9/7j11+Y/+Bqlgp1SkBACC+LF22Ruecd5vq16+pef97WXXrBN4HwQTM5kJA08v8yND/c3KBwldqR8+bwLTjBRfr8qv6aMa0/2rLHxudksh5xzCbm52YC+tMr7KZes6MUfaqVqOmTjy5hR0cm3HOZnq6A9b6tFZtnT1k90inVKykCmHGFZvXnFiunDKtIDc7KNCvW+8YVaiQ4mzl9u9xz+i/H75jz/BhxmT7M8H+tP9+oInj/60HH/1HrqAaAIB4Ye4I2Pmiu3RC0wb6euaLqlWrmlPiOZ8NvHu0PUTj5RcH6/Zbr3BKgKJRagNnwwyzaHpSM6WnH9DhjPAzUOTHN4Z5+Y928Gt6lU1wai4c9DJBbfMWLe19TPBspqoL3qeBlc44mK5DQTNnBDNzQyenBAbJKZUq5TlW+84HHtEd9w3V6+PGaMKbL9s9zF57dqdpygdv26/LO5OH/2KGs5ghJGc1q8OttwEAxerLWQu1a9c+TfrgSVWrdvSvo9nZ2ep38xN65V9T9fZ/HtEtA3o6JUDRKdWBsxkysfaX1apWvYYd/BaEGcNshjl8P/9/zjR0uW+hbXqXTS/zogXf2DNbmJ7dypWPTkNn5nw2j7Fs8fdOTqA9u8246CX2xYQ1nbHTbiUlJqnfX+5W/9vv1+gnH9Lk99/0Bc9m5oyLevzJHv8dajE3jzGv9a7Bw+z9mGkDAFBcpn48R2ecfqI9L7NXZmaWrrr2Ib0/caYdUPe9/mKnBChapSJw/mLalFxjgs2fcxbM+1ofT5qgjhdcpFp1Ai8qiJR3DPMX0z6yxy6HuoW2d+q6WZ9/oq1/bAoYA22YoRzndemm999+zb6pij/zS/qrLz/VD1bQbYLXaMYgm7HUAwY+oCuuuVFPPnK/PTzD1IOZh/r6m26zx3+HWsx7adDwOPUbcKe9n9kfAICiZs5ZH3/yjS7rcY6TI/2+cZsdNH8+Y4E+/ugp/enyjk4JUPRKReD8y8qfdPE5p9g3CXn1hX/ay/2336Dbb7rSvoHJtTcM8AW55oYiJqg0U9eZC/zcMrNnmF5mE4ybccrmgsFg3qnr5s2Zad+cxMyo4c/0fN/z4GN2+v+uvcR+vSawNzc1ua3fFRr24EAr8B2kzhdeau8TDRNw3/3gMF3U/Qr78T+Z/K79RQQAQLz7fuEq+yYnLVo00VOjJ6h9x1t0/AlXafbXizTt46d1yUXtnD2B4lEqAucrrr1RfW++w55bedTfh+jVsaPsYQpPjf2PnnzmVdWsdfTPPdEyPcemB9kwFwqaCwaDeaeuM8wsHP43HvEyQyJeHT9Vfxn4gP16TYD/9IiH7Nf4xgef6c+3DyrQvNOGeay/PvaUOnTsouFD77ZveELwDACIdx9/Mtde9+03XG+/85nO69hKX305Vru2faYLzgs/sxQKUd260d8yu359J1F6JMw4uCSqiKp/1y8086MHnC0AABAvul7xtF6f6X4ccNdyR++MW5w++HCWfdOTa6/ukutmJyXZzGz311l13V7TScWRtWulrVudDZdM0NykibMRP2bWOXozu2gQOAMAUMqU1MC5tCrxgXMpUtDAuVTPqgEAAADECoEzAAAA4AKBMwAAAOACgTMAAADgAoEzAAAA4AKBMwAAAOACgTMAAADgAoEzAAAA4AKBMwAAAOACgTMAAADgAoEzAAAA4AKBMwAAAOACgTMAAADgAoEzAAAA4AKBMwAAAOACgTMAAADgAoEzAAAA4AKBMwAAAOACgTMAAADgAoEzAAAA4AKBMwAAAOBC1IFzcoVEZWQccbYAAEA8MOdmc46ORLazRuxFWrfZCTlOCrEWi7qNOnBueGwVrf1tu7MFAADigTk3m3N0JA7kRBZow71I6/ZAIj9jCkss6jbqwLlFu5qa+90vzhYAAIgH5txsztGRSFOSk0KsRVq3acn8Nb+wxKJuow6cO3ZroMkf/6BtO/Y5OQAAoDiZc7I5N5tzdCQ25xA4F5ZI63ZzyiEnhViLRd1GHTjXbVhJPfo01phxnzk5AACgOJlzsjk3m3N0JNKtcGBtTrKzhVgxdWrqNhLpiVlaWynd2UKsmDo1dVtQUQfORs9+J6pinSz97e8T6XkGAKCYmHOwORebc7I5N0djXU4Fbc4p72yhoExdmjqNxrrUDHqeY8jUpanTWEiYcXBJgS8xnPrWr5o2Yb16XX6mOp59kpoeX0cpKXz4AAAoLGb2DHMhoBnTbIZnmJ7maINmf00SDqlpwmFnC9EwPc3RBs3+mhxIUdP0yP56gECmpzlWQbMRk8DZ2LYpXXM/26wVC9K06fd9Onyo4N3hAAAgNDPlnJk9w1wIaMY0Rzo8Iy+VlK0GCZmqqUylJmQV7M/TZYCZq8HMnmEuBDRjmiMdnpGXSlmJapBRQTUPl1dqVjmVy0lwShCKmXLOzJ5hLgQ0Pc2xGJ7hL2aBMwAAAFCa8SMSAAAAcIHAGQAAAHCBwBkAAABwgcAZAAAAcIHAGQAAAHCBwBkAAABwgcAZAAAAcIHAGQAAAHCBwBkAAABwgcAZAAAAcIHAGQAAAHCBwBkAAABwgcAZAAAAcIHAGQAAAHCBwBkAAABwgcAZAAAAcIHAGQAAAHCBwBkAAABwgcAZAAAAcIHAGQAAAHCBwBkAAABwgcAZAAAAcIHAGQAAAHCBwBkAAABwgcAZAAAAcIHAGQAAAHCBwBkAAABwgcAZAAAAcIHAGQAAAHCBwBkAAABwgcAZAAAAcIHAGQAAAHCBwBkAAABwgcAZAAAAcIHAGQAAAHCBwBkAAABwgcAZAAAAcIHAGQAAAHCBwBkAAABwgcAZAAAAcIHAGQAAAHCBwBkAAABwgcAZAAAAcIHAGQAAAHCBwBkAAABwgcAZAAAAcIHAGQAAAMiX9P/2SZHwl89QJgAAAABJRU5ErkJggg==;" vertex="1" parent="1">
                    <mxGeometry x="60" y="1208.61" width="432.95" height="321.39" as="geometry"/>
                </mxCell>
                <mxCell id="49" value="&lt;font style=&quot;font-size: 18px;&quot;&gt;7. เมื่อคลิกที่ list อีกครั้ง&lt;br&gt;- เอาเขียนเส้นทับ&amp;nbsp;&lt;br&gt;- เปลี่ยนสี&lt;br&gt;- enable ปุ่มแก้ไข&lt;br&gt;&lt;/font&gt;" style="text;html=1;strokeColor=none;fillColor=none;align=left;verticalAlign=middle;whiteSpace=wrap;rounded=0;" vertex="1" parent="1">
                    <mxGeometry x="605" y="1500" width="231.42" height="150" as="geometry"/>
                </mxCell>
                <mxCell id="50" value="" style="edgeStyle=elbowEdgeStyle;elbow=horizontal;endArrow=classic;html=1;curved=0;rounded=0;endSize=8;startSize=8;strokeColor=#FFFFFF;fontSize=18;fillColor=#990000;entryX=0;entryY=0.5;entryDx=0;entryDy=0;" edge="1" parent="1" target="49">
                    <mxGeometry width="50" height="50" relative="1" as="geometry">
                        <mxPoint x="500" y="1480" as="sourcePoint"/>
                        <mxPoint x="490" y="1360" as="targetPoint"/>
                    </mxGeometry>
                </mxCell>
            </root>
        </mxGraphModel>
    </diagram>
</mxfile>